<svg xmlns="http://www.w3.org/2000/svg" width="432" height="276" fill="none"><g clip-path="url(#a)"><rect width="431.129" height="275.268" x=".307" y=".688" fill="#F5FFF9" rx="8.71"/><path fill="#fff" fill-rule="evenodd" d="M123.563 65.912c-12.94 0-24.447 3.45-34.61 10.325l-.012.008-.012.009C78.75 82.989 70.689 92.52 64.77 104.963l-.003.006-.003.006c-5.893 12.239-8.89 26.694-8.89 43.448 0 16.582 2.992 31.122 8.893 43.689 6.071 12.439 14.291 22.058 24.64 28.957 10.334 6.889 21.85 10.336 34.626 10.336 12.952 0 24.381-3.379 34.38-10.094 10.19-6.895 18.258-16.513 24.176-28.957l.006-.013.007-.013c6.047-12.397 9.118-26.927 9.118-43.67 0-16.742-3.071-31.273-9.118-43.669l-.007-.013-.006-.013c-5.917-12.442-13.979-21.974-24.157-28.71l-.013-.008-.012-.008c-10.157-6.871-21.741-10.325-34.845-10.325Zm-37.85 5.507c11.167-7.55 23.814-11.313 37.85-11.313 14.186 0 26.912 3.758 38.086 11.314 11.147 7.38 19.863 17.763 26.178 31.036 6.498 13.326 9.7 28.753 9.7 46.202 0 17.45-3.202 32.877-9.7 46.203-6.315 13.274-15.029 23.73-26.166 31.263l-.008.006c-11.02 7.402-23.592 11.081-37.619 11.081-13.892 0-26.534-3.769-37.847-11.311-11.295-7.53-20.17-17.983-26.647-31.262l-.01-.019-.008-.019c-6.33-13.469-9.453-28.884-9.453-46.177 0-17.441 3.12-32.788 9.461-45.96C65.846 89.186 74.564 78.8 85.712 71.419Zm18.214 27.865c5.702-4.32 12.284-6.472 19.636-6.472 7.651 0 14.346 2.224 19.927 6.75 5.565 4.356 9.67 10.763 12.461 18.96 2.966 8.251 4.399 18.326 4.399 30.136 0 11.666-1.436 21.733-4.396 30.128-2.793 8.209-6.898 14.681-12.442 19.186l-.022.017-.022.017c-5.573 4.355-12.177 6.498-19.67 6.498-7.521 0-14.201-2.238-19.915-6.74l-.017-.014-.017-.013c-5.547-4.508-9.654-10.985-12.447-19.202-2.801-8.238-4.155-18.303-4.155-30.112 0-11.809 1.354-21.874 4.155-30.112 2.794-8.22 6.91-14.641 12.491-19l.017-.014.017-.013Zm3.524 4.615c-4.451 3.484-8.016 8.824-10.552 16.281-2.532 7.449-3.846 16.835-3.846 28.243 0 11.408 1.314 20.794 3.846 28.243 2.536 7.46 6.111 12.901 10.595 16.55 4.635 3.647 10.028 5.482 16.304 5.482 6.302 0 11.613-1.773 16.074-5.25 4.482-3.65 8.055-9.089 10.59-16.547l.006-.016.005-.016c2.684-7.602 4.07-16.981 4.07-28.211 0-11.394-1.389-20.763-4.064-28.194l-.008-.024-.009-.024c-2.538-7.467-6.11-12.812-10.568-16.295l-.022-.017-.022-.017c-4.453-3.619-9.83-5.468-16.287-5.468-6.131 0-11.465 1.765-16.112 5.28Z" clip-rule="evenodd"/><path fill="#0EA955" d="M89.01 221.792c-11.742-7.42-20.935-18.167-27.58-32.239-6.647-14.069-9.97-30.857-9.97-50.368 0-19.506 3.323-36.294 9.97-50.367 6.645-14.068 15.838-24.815 27.58-32.24 11.737-7.42 25.118-11.135 40.138-11.135 15.019 0 28.396 3.715 40.138 11.136 11.738 7.424 20.931 18.171 27.579 32.24 6.644 14.072 9.97 30.86 9.97 50.366 0 19.511-3.326 36.299-9.97 50.368-6.648 14.072-15.841 24.819-27.579 32.239-11.742 7.425-25.119 11.135-40.138 11.135-15.02 0-28.401-3.71-40.138-11.135Zm66.163-38.584c6.3-9.492 9.452-24.168 9.452-44.023 0-19.85-3.152-34.526-9.452-44.022-6.304-9.492-14.979-14.243-26.025-14.243-10.877 0-19.467 4.75-25.766 14.243-6.305 9.496-9.453 24.172-9.453 44.022 0 19.855 3.148 34.531 9.453 44.023 6.299 9.496 14.889 14.242 25.766 14.242 11.046 0 19.721-4.746 26.025-14.242Z"/><path fill="#0EA955" d="M129.149 35.326c16.641 0 31.462 4.115 44.471 12.337 13.005 8.226 23.19 20.133 30.556 35.72 7.361 15.592 11.046 34.192 11.046 55.805 0 21.617-3.685 40.216-11.046 55.804-7.366 15.592-17.551 27.498-30.556 35.72-13.01 8.226-27.83 12.338-44.471 12.338s-31.466-4.112-44.471-12.338c-13.01-8.221-23.195-20.128-30.556-35.72-7.366-15.587-11.046-34.187-11.046-55.804 0-21.613 3.68-40.213 11.046-55.805 7.36-15.587 17.546-27.494 30.556-35.72 13.005-8.222 27.83-12.337 44.471-12.337Zm0 168.416c12.239 0 21.85-5.258 28.834-15.78 6.98-10.517 10.473-26.776 10.473-48.774 0-21.994-3.493-38.254-10.473-48.775-6.984-10.517-16.595-15.78-28.834-15.78-12.05 0-21.568 5.263-28.547 15.78-6.985 10.521-10.473 26.781-10.473 48.775 0 21.998 3.488 38.257 10.473 48.774 6.979 10.522 16.496 15.78 28.547 15.78Zm0-169.611c-16.79 0-31.967 4.213-45.11 12.522-13.143 8.31-23.572 20.497-30.998 36.22-7.405 15.676-11.16 34.623-11.16 56.314 0 21.695 3.755 40.642 11.16 56.315 7.425 15.727 17.855 27.913 30.999 36.22 13.135 8.309 28.312 12.522 45.109 12.522 16.792 0 31.969-4.213 45.11-12.522 13.139-8.307 23.568-20.493 30.998-36.22 7.405-15.682 11.16-34.629 11.16-56.315 0-21.681-3.755-40.628-11.16-56.314-7.43-15.723-17.859-27.91-30.998-36.22-13.148-8.309-28.325-12.522-45.11-12.522Zm0 168.416c-11.571 0-20.841-5.129-27.552-15.245-6.817-10.265-10.273-26.452-10.273-48.114 0-21.658 3.456-37.846 10.273-48.115 6.714-10.116 15.984-15.245 27.552-15.245 11.754 0 21.12 5.129 27.839 15.245 6.816 10.275 10.273 26.463 10.273 48.114 0 21.656-3.457 37.844-10.273 48.114-6.716 10.117-16.082 15.246-27.839 15.246Z"/><path fill="#B3B3B3" d="m187.093 187.344-.039-1.949c3.787-.076 14.18-1.198 16.77-5.419 2.264-3.693-.932-6.645-1.068-6.769l1.297-1.453c1.589 1.413 3.932 5.163 1.431 9.241-3.674 5.991-17.792 6.337-18.391 6.349Z"/><path fill="#2E2E2E" d="m204.313 188.281-22.97-8.969a4.532 4.532 0 0 0-5.212 1.425l-15.218 19.402a4.528 4.528 0 0 0-.805 3.99l15.224 55.719a4.529 4.529 0 0 0 5.564 3.176l38.187-10.434a4.529 4.529 0 0 0 3.176-5.564l-15.224-55.719a4.529 4.529 0 0 0-2.722-3.026Zm-22.509 2.968a3.28 3.28 0 1 1-1.73-6.328 3.28 3.28 0 0 1 1.73 6.328Z"/><path fill="#B3B3B3" d="M179.444 188.447c-9.653 0-20.884-2.95-26.025-8.801-2.279-2.594-2.953-5.392-1.897-7.878 1.339-3.159 5.349-5.349 10.214-5.58l.093 1.947c-4.122.196-7.464 1.921-8.513 4.395-.757 1.784-.215 3.8 1.568 5.829 5.524 6.288 19.413 8.99 29.109 7.894l.219 1.936a42.505 42.505 0 0 1-4.768.258Z"/><path fill="url(#b)" d="M188.125 218.635c.091-4.41-3.422-8.071-7.832-8.163-4.409-.091-8.071 3.422-8.162 7.832-.092 4.409 3.422 8.071 7.831 8.162 4.41.092 8.072-3.422 8.163-7.831Zm-11.632-.241a3.639 3.639 0 0 1 3.71-3.559 3.638 3.638 0 0 1 3.56 3.71 3.64 3.64 0 0 1-3.71 3.559 3.639 3.639 0 0 1-3.56-3.71Z"/><path fill="url(#c)" d="M202.486 220.963c-4.41-.092-8.072 3.421-8.163 7.831-.091 4.409 3.422 8.071 7.831 8.163 4.41.091 8.072-3.422 8.163-7.832.092-4.409-3.422-8.071-7.831-8.162Zm-.241 11.631a3.64 3.64 0 0 1-3.56-3.71 3.64 3.64 0 0 1 3.71-3.559 3.639 3.639 0 0 1 3.56 3.71 3.639 3.639 0 0 1-3.71 3.559Z"/><path fill="url(#d)" d="m185.264 237.269 16.569-26.164-5.097-.105-16.569 26.163 5.097.106Z"/><rect width="150.968" height="207.857" x="210.75" y="-1.908" fill="#fff" rx="4.355" transform="rotate(-15.516 210.75 -1.908)"/><rect width="150.968" height="207.857" x="210.75" y="-1.908" stroke="#747474" stroke-width="2.903" rx="4.355" transform="rotate(-15.516 210.75 -1.908)"/><g filter="url(#e)"><rect width="153.871" height="210.76" x="240.548" y="-26.613" fill="#fff" rx="5.806"/><rect width="150.968" height="207.857" x="241.999" y="-25.162" stroke="#747474" stroke-width="2.903" rx="4.355"/><rect width="122.687" height="5.806" x="256.415" y="28.385" fill="#D9D9D9" rx=".726"/><rect width="122.687" height="5.806" x="256.415" y="40.449" fill="#D9D9D9" rx=".726"/><rect width="122.687" height="5.806" x="256.415" y="52.518" fill="#D9D9D9" rx=".726"/><rect width="122.687" height="5.806" x="256.415" y="64.584" fill="#D9D9D9" rx=".726"/><rect width="82.461" height="5.806" x="256.415" y="76.652" fill="#D9D9D9" rx=".726"/><rect width="102.574" height="5.806" x="256.415" y="88.719" fill="#D9D9D9" rx=".726"/><path fill="#000" d="M258.524 132.006c-.359 0-.673-.063-.943-.189a1.5 1.5 0 0 1-.628-.544 1.485 1.485 0 0 1-.224-.817h.733c.005.176.047.339.126.488a.947.947 0 0 0 .356.349c.158.084.352.126.58.126.195 0 .363-.032.502-.098a.753.753 0 0 0 .329-.265.725.725 0 0 0 .111-.398.721.721 0 0 0-.118-.426.888.888 0 0 0-.322-.272 2.347 2.347 0 0 0-.46-.196 38.304 38.304 0 0 1-.545-.181c-.386-.126-.675-.289-.866-.489-.186-.2-.279-.461-.279-.782 0-.275.065-.512.195-.712.131-.205.312-.363.545-.475.237-.116.517-.174.838-.174.316 0 .593.058.831.174.237.116.423.277.558.482.135.205.203.444.203.719h-.74a.773.773 0 0 0-.391-.663.916.916 0 0 0-.482-.119.962.962 0 0 0-.426.077.66.66 0 0 0-.293.244.686.686 0 0 0-.105.384c0 .149.03.27.091.363a.814.814 0 0 0 .279.231c.121.065.261.125.419.181.163.051.342.11.538.175.242.079.456.177.642.293.191.112.34.258.447.44.112.177.167.405.167.684 0 .242-.062.468-.188.677-.126.21-.312.382-.559.517-.246.13-.554.196-.921.196Zm3.756 0c-.275 0-.515-.056-.72-.168a1.136 1.136 0 0 1-.467-.503c-.108-.223-.161-.505-.161-.844v-2.088h.698v2.011c0 .33.072.579.217.747.144.167.351.251.621.251a.919.919 0 0 0 .838-.517c.084-.167.126-.372.126-.614v-1.878h.698v3.519h-.622l-.048-.601a1.19 1.19 0 0 1-.468.503 1.374 1.374 0 0 1-.712.182Zm4.726 0c-.191 0-.365-.028-.524-.084a1.292 1.292 0 0 1-.405-.217 1.371 1.371 0 0 1-.293-.321l-.07.538h-.628v-5.027h.698v2.059c.112-.176.268-.325.468-.446.205-.126.456-.189.754-.189a1.616 1.616 0 0 1 1.48.901c.144.274.217.591.217.949 0 .349-.073.664-.217.943a1.584 1.584 0 0 1-.593.656 1.647 1.647 0 0 1-.887.238Zm-.112-.608c.214 0 .403-.051.566-.153.167-.103.298-.247.391-.433.098-.186.146-.403.146-.65 0-.246-.048-.46-.146-.642a1.04 1.04 0 0 0-.391-.433 1.009 1.009 0 0 0-.566-.161 1.05 1.05 0 0 0-.579.161 1.053 1.053 0 0 0-.384.433c-.093.182-.14.396-.14.642 0 .247.047.464.14.65.093.186.221.33.384.433.167.102.36.153.579.153Zm3.933.524c-.219 0-.41-.035-.573-.105a.764.764 0 0 1-.377-.349c-.088-.163-.132-.384-.132-.663v-1.809h-.608v-.593h.608l.083-.88h.615v.88h.998v.593h-.998v1.816c0 .2.042.337.126.412.083.069.228.104.432.104h.405v.594h-.579Zm2.895.084a1.667 1.667 0 0 1-1.515-.873 2.017 2.017 0 0 1-.224-.964c0-.372.077-.696.231-.97.153-.279.363-.496.628-.65.265-.153.563-.23.894-.23.335 0 .633.077.893.23.261.154.466.368.615.643.153.274.23.598.23.97 0 .373-.077.696-.23.971a1.608 1.608 0 0 1-.622.642 1.758 1.758 0 0 1-.9.231Zm0-.601a.973.973 0 0 0 .893-.551c.098-.187.147-.417.147-.692 0-.274-.046-.502-.14-.684a.972.972 0 0 0-.886-.558 1 1 0 0 0-.517.139 1.024 1.024 0 0 0-.384.419c-.093.182-.14.41-.14.684 0 .275.047.505.14.692.098.181.223.318.377.412a.988.988 0 0 0 .51.139Zm3.883.517c-.219 0-.41-.035-.573-.105a.76.76 0 0 1-.377-.349c-.088-.163-.133-.384-.133-.663v-1.809h-.607v-.593h.607l.084-.88h.615v.88h.998v.593h-.998v1.816c0 .2.041.337.125.412.084.069.228.104.433.104h.405v.594h-.579Zm2.55.084c-.289 0-.528-.049-.719-.147a.996.996 0 0 1-.426-.391 1.093 1.093 0 0 1-.14-.538c0-.232.061-.43.182-.593.121-.168.293-.296.516-.384.224-.089.492-.133.803-.133h.915c0-.205-.03-.374-.091-.509a.612.612 0 0 0-.272-.301.855.855 0 0 0-.447-.104.925.925 0 0 0-.537.153.646.646 0 0 0-.28.44h-.698c.028-.247.112-.456.251-.628.145-.177.329-.312.552-.405.223-.098.461-.147.712-.147.331 0 .608.058.831.175.223.116.391.281.503.495.116.21.174.461.174.754v2.179h-.607l-.056-.594a1.672 1.672 0 0 1-.182.266 1.012 1.012 0 0 1-.251.216 1.1 1.1 0 0 1-.328.14 1.382 1.382 0 0 1-.405.056Zm.133-.566c.149 0 .284-.03.405-.091a.927.927 0 0 0 .307-.244c.088-.107.153-.226.195-.356.047-.135.072-.272.077-.412v-.021h-.831c-.2 0-.363.026-.488.077a.531.531 0 0 0-.266.195.518.518 0 0 0-.084.294c0 .116.026.216.077.3a.567.567 0 0 0 .238.188c.102.047.225.07.37.07Zm2.588.482v-5.027h.698v5.027h-.698Zm58.296.084c-.498 0-.88-.133-1.145-.398-.266-.266-.398-.657-.398-1.173v-.95c.432 0 .777-.012 1.033-.035.256-.023.444-.07.565-.139a.52.52 0 0 0 .245-.336c.042-.149.063-.351.063-.607v-.985h.914v.971c0 .298-.032.559-.097.782-.066.223-.173.41-.322.559-.144.148-.339.26-.586.335-.242.07-.542.104-.901.104v.405c0 .215.044.389.133.524.088.13.247.196.475.196.214 0 .365-.063.454-.189.093-.126.139-.3.139-.524h.901c-.014.461-.144.82-.391 1.076-.247.256-.608.384-1.082.384Zm-1.739-3.142v-.615h3.729v.615h-3.729Zm0-1.159v-.671h3.729v.671h-3.729Zm5.071 4.217v-3.764l-.873.231v-.782l1.292-.573h.587v4.888h-1.006Zm3.953.084c-.447 0-.831-.107-1.152-.322a2.07 2.07 0 0 1-.74-.886c-.172-.382-.258-.822-.258-1.32 0-.498.086-.936.258-1.313.172-.381.419-.679.74-.893.321-.214.705-.321 1.152-.321.447 0 .829.107 1.145.321.321.214.568.512.74.893.173.377.259.815.259 1.313s-.086.938-.259 1.32a2.07 2.07 0 0 1-.74.886c-.316.215-.698.322-1.145.322Zm0-.88a.95.95 0 0 0 .601-.203c.172-.135.307-.323.405-.565.097-.247.146-.54.146-.88 0-.34-.049-.631-.146-.873a1.335 1.335 0 0 0-.405-.572.95.95 0 0 0-.601-.203.944.944 0 0 0-.6.203 1.318 1.318 0 0 0-.405.572 2.324 2.324 0 0 0-.147.873c0 .34.049.633.147.88.097.242.232.43.405.565a.944.944 0 0 0 .6.203Zm2.421 1.655.398-1.795h.936l-.698 1.795h-.636Zm4.057-.775c-.447 0-.831-.107-1.152-.322a2.063 2.063 0 0 1-.74-.886c-.173-.382-.259-.822-.259-1.32 0-.498.086-.936.259-1.313a2.06 2.06 0 0 1 .74-.893c.321-.214.705-.321 1.152-.321.447 0 .828.107 1.145.321.321.214.568.512.74.893.172.377.258.815.258 1.313s-.086.938-.258 1.32a2.07 2.07 0 0 1-.74.886c-.317.215-.698.322-1.145.322Zm0-.88a.944.944 0 0 0 .6-.203c.172-.135.307-.323.405-.565.098-.247.147-.54.147-.88 0-.34-.049-.631-.147-.873a1.335 1.335 0 0 0-.405-.572.944.944 0 0 0-.6-.203.95.95 0 0 0-.601.203 1.335 1.335 0 0 0-.405.572 2.345 2.345 0 0 0-.146.873c0 .34.049.633.146.88.098.242.233.43.405.565a.95.95 0 0 0 .601.203Zm4.93.88c-.447 0-.831-.107-1.152-.322a2.072 2.072 0 0 1-.741-.886c-.172-.382-.258-.822-.258-1.32 0-.498.086-.936.258-1.313.173-.381.419-.679.741-.893.321-.214.705-.321 1.152-.321.446 0 .828.107 1.145.321.321.214.568.512.74.893.172.377.258.815.258 1.313s-.086.938-.258 1.32a2.07 2.07 0 0 1-.74.886c-.317.215-.699.322-1.145.322Zm0-.88a.944.944 0 0 0 .6-.203c.172-.135.307-.323.405-.565.098-.247.147-.54.147-.88 0-.34-.049-.631-.147-.873a1.335 1.335 0 0 0-.405-.572.944.944 0 0 0-.6-.203.947.947 0 0 0-.601.203 1.335 1.335 0 0 0-.405.572 2.325 2.325 0 0 0-.146.873c0 .34.048.633.146.88.098.242.233.43.405.565a.947.947 0 0 0 .601.203Zm4.929.88c-.446 0-.83-.107-1.152-.322a2.07 2.07 0 0 1-.74-.886c-.172-.382-.258-.822-.258-1.32 0-.498.086-.936.258-1.313.172-.381.419-.679.74-.893.322-.214.706-.321 1.152-.321.447 0 .829.107 1.146.321.321.214.567.512.74.893.172.377.258.815.258 1.313s-.086.938-.258 1.32a2.077 2.077 0 0 1-.74.886c-.317.215-.699.322-1.146.322Zm0-.88a.945.945 0 0 0 .601-.203c.172-.135.307-.323.405-.565.098-.247.147-.54.147-.88 0-.34-.049-.631-.147-.873a1.335 1.335 0 0 0-.405-.572.945.945 0 0 0-.601-.203.944.944 0 0 0-.6.203 1.335 1.335 0 0 0-.405.572 2.324 2.324 0 0 0-.147.873c0 .34.049.633.147.88.098.242.233.43.405.565a.944.944 0 0 0 .6.203Zm3.087.831a.6.6 0 0 1-.433-.161.543.543 0 0 1-.168-.398c0-.158.056-.291.168-.398a.6.6 0 0 1 .433-.16.6.6 0 0 1 .433.16c.111.107.167.24.167.398a.546.546 0 0 1-.167.398.6.6 0 0 1-.433.161Zm3.084.049c-.447 0-.831-.107-1.152-.322a2.07 2.07 0 0 1-.74-.886c-.172-.382-.258-.822-.258-1.32 0-.498.086-.936.258-1.313.172-.381.419-.679.74-.893.321-.214.705-.321 1.152-.321.447 0 .829.107 1.145.321.322.214.568.512.741.893.172.377.258.815.258 1.313s-.086.938-.258 1.32a2.072 2.072 0 0 1-.741.886c-.316.215-.698.322-1.145.322Zm0-.88a.947.947 0 0 0 .601-.203c.172-.135.307-.323.405-.565.098-.247.146-.54.146-.88 0-.34-.048-.631-.146-.873a1.335 1.335 0 0 0-.405-.572.947.947 0 0 0-.601-.203.944.944 0 0 0-.6.203 1.335 1.335 0 0 0-.405.572 2.324 2.324 0 0 0-.147.873c0 .34.049.633.147.88.098.242.233.43.405.565a.944.944 0 0 0 .6.203Zm4.93.88c-.447 0-.831-.107-1.152-.322a2.07 2.07 0 0 1-.74-.886c-.172-.382-.258-.822-.258-1.32 0-.498.086-.936.258-1.313.172-.381.419-.679.74-.893.321-.214.705-.321 1.152-.321.447 0 .829.107 1.145.321.321.214.568.512.74.893.173.377.259.815.259 1.313s-.086.938-.259 1.32a2.07 2.07 0 0 1-.74.886c-.316.215-.698.322-1.145.322Zm0-.88a.95.95 0 0 0 .601-.203c.172-.135.307-.323.405-.565.097-.247.146-.54.146-.88 0-.34-.049-.631-.146-.873a1.335 1.335 0 0 0-.405-.572.95.95 0 0 0-.601-.203.944.944 0 0 0-.6.203 1.318 1.318 0 0 0-.405.572 2.324 2.324 0 0 0-.147.873c0 .34.049.633.147.88.097.242.232.43.405.565a.944.944 0 0 0 .6.203ZM259.04 143.183c-.46 0-.863-.104-1.208-.314a2.133 2.133 0 0 1-.803-.88c-.19-.377-.286-.816-.286-1.319 0-.498.096-.938.286-1.32a2.18 2.18 0 0 1 .831-.894c.363-.218.792-.328 1.285-.328.554 0 1.017.135 1.39.405a1.8 1.8 0 0 1 .719 1.11h-.796a1.073 1.073 0 0 0-.44-.635c-.224-.158-.517-.237-.88-.237-.344 0-.645.076-.901.23a1.507 1.507 0 0 0-.579.656c-.135.284-.203.622-.203 1.013 0 .395.068.735.203 1.019.135.284.326.501.572.65.247.148.531.223.852.223.494 0 .864-.142 1.11-.426.252-.284.398-.663.44-1.138h-1.347v-.538h2.053v2.64h-.636l-.063-.747a1.874 1.874 0 0 1-.391.46 1.559 1.559 0 0 1-.509.28c-.196.06-.429.09-.699.09Zm4.816 0c-.359 0-.673-.062-.943-.188a1.496 1.496 0 0 1-.628-.545 1.48 1.48 0 0 1-.224-.817h.734c.004.177.046.34.125.489a.955.955 0 0 0 .356.349c.159.084.352.126.58.126.195 0 .363-.033.503-.098a.755.755 0 0 0 .328-.265.727.727 0 0 0 .111-.398.721.721 0 0 0-.118-.426.867.867 0 0 0-.321-.272 2.358 2.358 0 0 0-.461-.196 38.304 38.304 0 0 1-.545-.181c-.386-.126-.675-.289-.866-.489-.186-.2-.279-.461-.279-.782a1.269 1.269 0 0 1 .74-1.187c.238-.117.517-.175.838-.175.317 0 .594.058.831.175.237.116.423.277.558.482.135.204.203.444.203.719h-.74a.773.773 0 0 0-.391-.664.914.914 0 0 0-.482-.118.962.962 0 0 0-.426.077.653.653 0 0 0-.293.244.686.686 0 0 0-.105.384c0 .149.03.27.091.363a.824.824 0 0 0 .279.23c.121.066.261.126.419.182.163.051.342.109.538.175.242.079.456.176.642.293.191.111.34.258.447.44.112.177.168.405.168.684 0 .242-.063.468-.189.677-.126.21-.312.382-.559.517-.246.13-.553.195-.921.195Zm3.542-.083v-4.315h-1.446v-.573h3.596v.573h-1.452v4.315h-.698Zm5.845 1.012a4.817 4.817 0 0 1-.699-.88 4.674 4.674 0 0 1-.502-1.117 4.76 4.76 0 0 1-.182-1.34c0-.48.061-.924.182-1.334a4.597 4.597 0 0 1 1.201-2.004h.712v.063a5.176 5.176 0 0 0-.74.949c-.21.345-.373.713-.489 1.104a4.238 4.238 0 0 0-.175 1.222c0 .423.058.83.175 1.221.116.391.279.759.489 1.104.214.344.46.661.74.949v.063h-.712Zm3.119-.929c-.433 0-.806-.104-1.118-.314a2.072 2.072 0 0 1-.719-.887c-.167-.381-.251-.823-.251-1.326 0-.503.084-.943.251-1.32a2.02 2.02 0 0 1 .719-.887c.312-.214.685-.321 1.118-.321.432 0 .803.107 1.11.321.312.21.549.505.712.887.167.377.251.817.251 1.32 0 .503-.084.945-.251 1.326-.163.377-.4.673-.712.887-.307.21-.678.314-1.11.314Zm0-.621c.26 0 .493-.077.698-.23.209-.154.372-.373.489-.657.116-.284.174-.624.174-1.019 0-.396-.058-.736-.174-1.02-.117-.284-.28-.5-.489-.649a1.132 1.132 0 0 0-.698-.23c-.266 0-.503.076-.713.23a1.44 1.44 0 0 0-.488.649c-.117.284-.175.624-.175 1.02 0 .395.058.735.175 1.019.116.284.279.503.488.657.21.153.447.23.713.23Zm3.508.538 2.807-4.888h.691l-2.807 4.888h-.691Zm3.204.083c-.214 0-.407-.048-.579-.146a1.094 1.094 0 0 1-.412-.412 1.28 1.28 0 0 1-.154-.636c0-.251.052-.465.154-.642.102-.177.24-.314.412-.412.172-.098.365-.147.579-.147.224 0 .419.049.587.147.172.098.307.235.405.412.102.177.154.391.154.642 0 .242-.052.454-.154.636a1.049 1.049 0 0 1-.405.412 1.165 1.165 0 0 1-.587.146Zm-.006-.516a.54.54 0 0 0 .495-.301.79.79 0 0 0 .084-.384.815.815 0 0 0-.077-.377.533.533 0 0 0-.496-.307.554.554 0 0 0-.495.307.815.815 0 0 0-.077.377c0 .154.026.282.077.384a.605.605 0 0 0 .209.224.555.555 0 0 0 .28.077Zm-2.863-2.137c-.214 0-.408-.049-.58-.146a1.156 1.156 0 0 1-.419-.412 1.293 1.293 0 0 1-.153-.643c0-.247.051-.458.153-.635.107-.177.247-.314.419-.412.177-.098.373-.147.587-.147.214 0 .407.049.579.147.173.098.308.235.405.412.103.177.154.388.154.635s-.051.461-.154.643a1.034 1.034 0 0 1-.412.412 1.158 1.158 0 0 1-.579.146Zm0-.517a.548.548 0 0 0 .489-.3.856.856 0 0 0 .076-.384.862.862 0 0 0-.076-.384.535.535 0 0 0-.482-.307.6.6 0 0 0-.293.077.575.575 0 0 0-.217.23.861.861 0 0 0-.077.384c0 .149.026.275.077.377a.56.56 0 0 0 .503.307Zm5.259 4.099h-.705v-.063c.284-.288.528-.605.733-.949.21-.345.373-.713.489-1.104a4.27 4.27 0 0 0 .175-1.221c0-.424-.059-.831-.175-1.222a4.667 4.667 0 0 0-.489-1.104 4.972 4.972 0 0 0-.733-.949v-.063h.705c.261.242.494.533.699.873.209.34.377.717.502 1.131.126.41.189.854.189 1.334a4.583 4.583 0 0 1-.691 2.457c-.205.34-.438.633-.699.88Z"/><path fill="#0EA955" d="M360.859 143.183c-.498 0-.88-.132-1.145-.398-.265-.265-.398-.656-.398-1.173v-.949c.433 0 .777-.012 1.033-.035.256-.023.445-.07.566-.14a.515.515 0 0 0 .244-.335c.042-.149.063-.351.063-.607v-.985h.915v.971c0 .298-.033.558-.098.782a1.279 1.279 0 0 1-.321.558c-.144.149-.34.261-.587.335-.242.07-.542.105-.9.105v.405c0 .214.044.389.132.524.089.13.247.195.475.195.214 0 .365-.063.454-.188.093-.126.14-.3.14-.524h.9c-.014.461-.144.819-.391 1.075-.246.256-.607.384-1.082.384Zm-1.739-3.142v-.614h3.729v.614h-3.729Zm0-1.159v-.67h3.729v.67h-3.729Zm6.447 4.301c-.447 0-.831-.107-1.152-.321a2.067 2.067 0 0 1-.74-.887c-.172-.381-.259-.821-.259-1.319s.087-.936.259-1.313a2.07 2.07 0 0 1 .74-.894c.321-.214.705-.321 1.152-.321.447 0 .829.107 1.145.321.321.215.568.512.74.894.172.377.259.815.259 1.313s-.087.938-.259 1.319a2.067 2.067 0 0 1-.74.887c-.316.214-.698.321-1.145.321Zm0-.879a.944.944 0 0 0 .6-.203c.173-.135.308-.323.405-.565.098-.247.147-.54.147-.88 0-.34-.049-.631-.147-.873a1.316 1.316 0 0 0-.405-.573.95.95 0 0 0-.6-.202.95.95 0 0 0-.6.202 1.316 1.316 0 0 0-.405.573 2.324 2.324 0 0 0-.147.873c0 .34.049.633.147.88.097.242.232.43.405.565a.944.944 0 0 0 .6.203Zm3.086.831a.6.6 0 0 1-.433-.161.546.546 0 0 1-.167-.398c0-.158.056-.291.167-.398a.6.6 0 0 1 .433-.161.6.6 0 0 1 .433.161c.112.107.168.24.168.398a.543.543 0 0 1-.168.398.6.6 0 0 1-.433.161Zm3.085.048c-.447 0-.831-.107-1.152-.321a2.067 2.067 0 0 1-.74-.887c-.173-.381-.259-.821-.259-1.319s.086-.936.259-1.313a2.07 2.07 0 0 1 .74-.894c.321-.214.705-.321 1.152-.321.447 0 .828.107 1.145.321.321.215.568.512.74.894.172.377.258.815.258 1.313s-.086.938-.258 1.319a2.067 2.067 0 0 1-.74.887c-.317.214-.698.321-1.145.321Zm0-.879a.944.944 0 0 0 .6-.203c.173-.135.308-.323.405-.565.098-.247.147-.54.147-.88 0-.34-.049-.631-.147-.873a1.316 1.316 0 0 0-.405-.573.95.95 0 0 0-.6-.202.954.954 0 0 0-.601.202 1.332 1.332 0 0 0-.405.573 2.345 2.345 0 0 0-.146.873c0 .34.049.633.146.88.098.242.233.43.405.565a.95.95 0 0 0 .601.203Zm4.93.879c-.447 0-.831-.107-1.152-.321a2.06 2.06 0 0 1-.74-.887c-.173-.381-.259-.821-.259-1.319s.086-.936.259-1.313c.172-.382.418-.679.74-.894.321-.214.705-.321 1.152-.321.447 0 .828.107 1.145.321.321.215.568.512.74.894.172.377.258.815.258 1.313s-.086.938-.258 1.319a2.067 2.067 0 0 1-.74.887c-.317.214-.698.321-1.145.321Zm0-.879a.944.944 0 0 0 .6-.203c.172-.135.307-.323.405-.565.098-.247.147-.54.147-.88 0-.34-.049-.631-.147-.873a1.332 1.332 0 0 0-.405-.573.95.95 0 0 0-.6-.202.952.952 0 0 0-.601.202 1.332 1.332 0 0 0-.405.573 2.325 2.325 0 0 0-.146.873c0 .34.048.633.146.88.098.242.233.43.405.565a.947.947 0 0 0 .601.203Z"/><path fill="#000" d="M258.063 154.277v-4.315h-1.445v-.572h3.595v.572h-1.452v4.315h-.698Zm3.801.084a1.76 1.76 0 0 1-.894-.23 1.691 1.691 0 0 1-.621-.643 2.013 2.013 0 0 1-.223-.963c0-.373.076-.696.23-.971.154-.279.363-.495.628-.649.266-.154.564-.231.894-.231.335 0 .633.077.894.231.261.154.465.368.614.642.154.275.231.598.231.971 0 .372-.077.696-.231.97a1.622 1.622 0 0 1-.621.643c-.265.153-.566.23-.901.23Zm0-.6a.98.98 0 0 0 .894-.552c.098-.186.147-.417.147-.691 0-.275-.047-.503-.14-.684a.972.972 0 0 0-.887-.559c-.186 0-.358.047-.517.14a1.018 1.018 0 0 0-.384.419c-.093.181-.139.409-.139.684 0 .274.046.505.139.691.098.182.224.319.377.412.159.093.329.14.51.14Zm3.883.516c-.219 0-.41-.035-.573-.104a.77.77 0 0 1-.377-.35c-.088-.162-.132-.384-.132-.663v-1.808h-.608v-.594h.608l.084-.879h.614v.879h.998v.594h-.998v1.815c0 .2.042.338.126.412.083.07.228.105.433.105h.405v.593h-.58Zm2.55.084c-.288 0-.528-.049-.719-.146a.998.998 0 0 1-.426-.392 1.086 1.086 0 0 1-.139-.537c0-.233.06-.431.181-.594.121-.167.293-.295.517-.384.223-.088.491-.132.803-.132h.915c0-.205-.031-.375-.091-.51a.616.616 0 0 0-.273-.3.854.854 0 0 0-.446-.105.922.922 0 0 0-.538.154.64.64 0 0 0-.279.44h-.699c.028-.247.112-.457.252-.629.144-.177.328-.312.551-.405.224-.098.461-.147.713-.147.33 0 .607.059.83.175.224.116.392.282.503.496.117.209.175.461.175.754v2.178h-.608l-.056-.593a1.657 1.657 0 0 1-.181.265 1.117 1.117 0 0 1-.58.356 1.349 1.349 0 0 1-.405.056Zm.133-.565a.9.9 0 0 0 .712-.336c.089-.107.154-.225.196-.356.046-.135.072-.272.077-.412v-.021h-.831c-.2 0-.363.026-.489.077a.535.535 0 0 0-.265.196.514.514 0 0 0-.084.293c0 .116.025.216.077.3a.573.573 0 0 0 .237.189c.102.046.226.07.37.07Zm2.588.481v-5.027h.698v5.027h-.698Zm70.926.084c-.498 0-.88-.133-1.145-.398s-.398-.656-.398-1.173v-.949c.433 0 .777-.012 1.033-.035.256-.024.445-.07.566-.14a.515.515 0 0 0 .244-.335c.042-.149.063-.352.063-.608v-.984h.915v.97c0 .298-.033.559-.098.782-.065.224-.172.41-.321.559-.144.149-.34.261-.587.335-.242.07-.542.105-.9.105v.405c0 .214.044.389.132.524.089.13.247.195.475.195.214 0 .366-.063.454-.188.093-.126.14-.301.14-.524h.9c-.014.461-.144.819-.391 1.075-.246.256-.607.384-1.082.384Zm-1.738-3.142v-.614h3.728v.614h-3.728Zm0-1.159v-.67h3.728v.67h-3.728Zm5.071 4.217v-3.763l-.873.23v-.782l1.292-.572h.586v4.887h-1.005Zm3.953.084c-.447 0-.831-.107-1.152-.321a2.075 2.075 0 0 1-.741-.887c-.172-.381-.258-.821-.258-1.319 0-.499.086-.936.258-1.313.173-.382.419-.68.741-.894.321-.214.705-.321 1.152-.321.446 0 .828.107 1.145.321.321.214.568.512.74.894.172.377.258.814.258 1.313 0 .498-.086.938-.258 1.319a2.073 2.073 0 0 1-.74.887c-.317.214-.699.321-1.145.321Zm0-.88a.943.943 0 0 0 .6-.202c.172-.135.307-.324.405-.566.098-.246.147-.54.147-.879 0-.34-.049-.631-.147-.873a1.332 1.332 0 0 0-.405-.573.943.943 0 0 0-.6-.202.946.946 0 0 0-.601.202 1.332 1.332 0 0 0-.405.573 2.325 2.325 0 0 0-.146.873c0 .339.048.633.146.879.098.242.233.431.405.566a.946.946 0 0 0 .601.202Zm2.421 1.655.398-1.794h.936l-.699 1.794h-.635Zm4.056-.775c-.447 0-.831-.107-1.152-.321a2.073 2.073 0 0 1-.74-.887c-.172-.381-.258-.821-.258-1.319 0-.499.086-.936.258-1.313.172-.382.419-.68.74-.894.321-.214.705-.321 1.152-.321.447 0 .829.107 1.145.321.322.214.568.512.74.894.173.377.259.814.259 1.313 0 .498-.086.938-.259 1.319a2.066 2.066 0 0 1-.74.887c-.316.214-.698.321-1.145.321Zm0-.88a.946.946 0 0 0 .601-.202c.172-.135.307-.324.405-.566.097-.246.146-.54.146-.879 0-.34-.049-.631-.146-.873a1.332 1.332 0 0 0-.405-.573.946.946 0 0 0-.601-.202.943.943 0 0 0-.6.202 1.332 1.332 0 0 0-.405.573 2.324 2.324 0 0 0-.147.873c0 .339.049.633.147.879.098.242.233.431.405.566a.943.943 0 0 0 .6.202Zm4.93.88c-.447 0-.831-.107-1.152-.321a2.073 2.073 0 0 1-.74-.887c-.172-.381-.258-.821-.258-1.319 0-.499.086-.936.258-1.313.172-.382.419-.68.74-.894.321-.214.705-.321 1.152-.321.447 0 .829.107 1.145.321.321.214.568.512.74.894.173.377.259.814.259 1.313 0 .498-.086.938-.259 1.319a2.073 2.073 0 0 1-.74.887c-.316.214-.698.321-1.145.321Zm0-.88a.948.948 0 0 0 .601-.202c.172-.135.307-.324.405-.566.097-.246.146-.54.146-.879 0-.34-.049-.631-.146-.873a1.332 1.332 0 0 0-.405-.573.948.948 0 0 0-.601-.202.943.943 0 0 0-.6.202 1.316 1.316 0 0 0-.405.573 2.324 2.324 0 0 0-.147.873c0 .339.049.633.147.879.097.242.232.431.405.566a.943.943 0 0 0 .6.202Zm4.93.88c-.447 0-.831-.107-1.152-.321a2.073 2.073 0 0 1-.74-.887c-.172-.381-.259-.821-.259-1.319 0-.499.087-.936.259-1.313.172-.382.419-.68.74-.894.321-.214.705-.321 1.152-.321.447 0 .829.107 1.145.321.321.214.568.512.74.894.172.377.259.814.259 1.313 0 .498-.087.938-.259 1.319a2.073 2.073 0 0 1-.74.887c-.316.214-.698.321-1.145.321Zm0-.88a.943.943 0 0 0 .6-.202c.173-.135.308-.324.405-.566.098-.246.147-.54.147-.879 0-.34-.049-.631-.147-.873a1.316 1.316 0 0 0-.405-.573.943.943 0 0 0-.6-.202.943.943 0 0 0-.6.202 1.316 1.316 0 0 0-.405.573 2.324 2.324 0 0 0-.147.873c0 .339.049.633.147.879.097.242.232.431.405.566a.943.943 0 0 0 .6.202Zm3.086.831a.6.6 0 0 1-.433-.16.547.547 0 0 1-.167-.398.53.53 0 0 1 .167-.398.6.6 0 0 1 .433-.161.6.6 0 0 1 .433.161.527.527 0 0 1 .168.398.544.544 0 0 1-.168.398.6.6 0 0 1-.433.16Zm3.085.049c-.447 0-.831-.107-1.152-.321a2.073 2.073 0 0 1-.74-.887c-.173-.381-.259-.821-.259-1.319 0-.499.086-.936.259-1.313.172-.382.419-.68.74-.894.321-.214.705-.321 1.152-.321.447 0 .828.107 1.145.321.321.214.568.512.74.894.172.377.258.814.258 1.313 0 .498-.086.938-.258 1.319a2.073 2.073 0 0 1-.74.887c-.317.214-.698.321-1.145.321Zm0-.88a.943.943 0 0 0 .6-.202c.173-.135.308-.324.405-.566.098-.246.147-.54.147-.879 0-.34-.049-.631-.147-.873a1.316 1.316 0 0 0-.405-.573.943.943 0 0 0-.6-.202.948.948 0 0 0-.601.202 1.332 1.332 0 0 0-.405.573 2.345 2.345 0 0 0-.146.873c0 .339.049.633.146.879.098.242.233.431.405.566a.948.948 0 0 0 .601.202Zm4.93.88c-.447 0-.831-.107-1.152-.321a2.066 2.066 0 0 1-.74-.887c-.173-.381-.259-.821-.259-1.319 0-.499.086-.936.259-1.313.172-.382.418-.68.74-.894.321-.214.705-.321 1.152-.321.447 0 .828.107 1.145.321.321.214.568.512.74.894.172.377.258.814.258 1.313 0 .498-.086.938-.258 1.319a2.073 2.073 0 0 1-.74.887c-.317.214-.698.321-1.145.321Zm0-.88a.943.943 0 0 0 .6-.202c.172-.135.307-.324.405-.566.098-.246.147-.54.147-.879 0-.34-.049-.631-.147-.873a1.332 1.332 0 0 0-.405-.573.943.943 0 0 0-.6-.202.946.946 0 0 0-.601.202 1.332 1.332 0 0 0-.405.573 2.325 2.325 0 0 0-.146.873c0 .339.048.633.146.879.098.242.233.431.405.566a.946.946 0 0 0 .601.202Z"/></g></g><defs><linearGradient id="b" x1="183.899" x2="173.507" y1="207.415" y2="237.876" gradientUnits="userSpaceOnUse"><stop stop-color="#fff"/><stop offset=".219" stop-color="#FAFAFA"/><stop offset=".484" stop-color="#EBEBEB"/><stop offset=".771" stop-color="#D3D3D3"/><stop offset="1" stop-color="#BABABA"/></linearGradient><linearGradient id="c" x1="206.843" x2="196.45" y1="215.703" y2="246.164" gradientUnits="userSpaceOnUse"><stop stop-color="#fff"/><stop offset=".219" stop-color="#FAFAFA"/><stop offset=".484" stop-color="#EBEBEB"/><stop offset=".771" stop-color="#D3D3D3"/><stop offset="1" stop-color="#BABABA"/></linearGradient><linearGradient id="d" x1="195.268" x2="184.875" y1="211.625" y2="242.086" gradientUnits="userSpaceOnUse"><stop stop-color="#fff"/><stop offset=".219" stop-color="#FAFAFA"/><stop offset=".484" stop-color="#EBEBEB"/><stop offset=".771" stop-color="#D3D3D3"/><stop offset="1" stop-color="#BABABA"/></linearGradient><clipPath id="a"><rect width="431.129" height="275.268" x=".307" y=".688" fill="#fff" rx="8.71"/></clipPath><filter id="e" width="188.71" height="245.598" x="225.306" y="-34.597" color-interpolation-filters="sRGB" filterUnits="userSpaceOnUse"><feFlood flood-opacity="0" result="BackgroundImageFix"/><feColorMatrix in="SourceAlpha" result="hardAlpha" values="0 0 0 0 0 0 0 0 0 0 0 0 0 0 0 0 0 0 127 0"/><feOffset dx="2.177" dy="9.435"/><feGaussianBlur stdDeviation="8.71"/><feComposite in2="hardAlpha" operator="out"/><feColorMatrix values="0 0 0 0 0 0 0 0 0 0 0 0 0 0 0 0 0 0 0.12 0"/><feBlend in2="BackgroundImageFix" result="effect1_dropShadow_812_21368"/><feBlend in="SourceGraphic" in2="effect1_dropShadow_812_21368" result="shape"/></filter></defs></svg>