<svg xmlns="http://www.w3.org/2000/svg" width="432" height="276" fill="none"><rect width="431.129" height="275.268" x=".049" y=".148" fill="#FFFFF6" rx="8.71"/><path stroke="#0EA955" stroke-miterlimit="2.613" stroke-width="8.836" d="M215.614 83.26a60.987 60.987 0 0 1 52.815 30.492m-52.815-13.631c15.764 0 30.33 8.41 38.212 22.06"/><path stroke="#fff" stroke-miterlimit="2.613" stroke-width="1.227" d="M215.615 171.867c15.257 0 27.625-12.368 27.625-27.625s-12.368-27.625-27.625-27.625-27.625 12.368-27.625 27.625 12.368 27.625 27.625 27.625Z"/><path fill="#474747" fill-rule="evenodd" d="M217.277 77.438V87.71h-3.331V77.438h3.331Zm-33.626 8.115 5.137 8.898-2.877 1.667-5.135-8.899 2.875-1.666Zm88.981 93.515-8.896-5.135 1.652-2.877 8.896 5.137-1.652 2.875Zm1.657-66.794-8.896 5.138-1.666-2.877 8.895-5.138 1.667 2.877Zm-60.343 98.756v-10.273h3.331v10.273h-3.331Zm-65.13-68.463h10.273v3.333h-10.273v-3.333Zm101.631-55.355-5.135 8.896-2.877-1.652 5.135-8.898 2.877 1.654Zm-2.877 115.693-5.135-8.896 2.877-1.652 5.135 8.896-2.877 1.652Zm-90.631-26.712 8.896-5.137 1.654 2.877-8.898 5.135-1.652-2.875ZM282.406 145.9h-10.272v-3.333h10.272v3.333Zm-101.63 55.346 5.135-8.896 2.877 1.667-5.137 8.895-2.875-1.666Zm-22.178-91.849 8.896 5.138-1.667 2.877-8.895-5.138 1.666-2.877ZM221.9 68.084v6.409h-12.571v-6.41h-1.495a2.178 2.178 0 0 1-2.172-2.172v-3.75c0-1.196.977-2.173 2.172-2.173h15.561c1.195 0 2.172.977 2.172 2.173v3.75a2.18 2.18 0 0 1-2.172 2.173H221.9Zm52 26.746-4.531 4.533-8.889-8.888 4.532-4.532-1.058-1.058a2.18 2.18 0 0 1 0-3.073l2.653-2.653a2.182 2.182 0 0 1 3.074 0l11.004 11.004a2.182 2.182 0 0 1 0 3.073l-2.654 2.654a2.18 2.18 0 0 1-3.073 0l-1.058-1.06Zm-107.688-8.887 4.531 4.532-8.888 8.888-4.532-4.531-1.058 1.058a2.18 2.18 0 0 1-3.073 0l-2.653-2.654a2.18 2.18 0 0 1 0-3.073l11.004-11.004a2.18 2.18 0 0 1 3.073 0l2.654 2.65a2.182 2.182 0 0 1 0 3.074l-1.058 1.06Z" clip-rule="evenodd"/><path fill="#474747" fill-rule="evenodd" d="M215.614 81.249c-34.785 0-62.984 28.199-62.984 62.984s28.199 62.984 62.984 62.984 62.984-28.199 62.984-62.984c-.002-34.785-28.202-62.984-62.984-62.984Zm0-8.368c39.405 0 71.35 31.945 71.35 71.35 0 39.404-31.945 71.349-71.35 71.349-39.405 0-71.352-31.945-71.352-71.349 0-39.405 31.945-71.35 71.352-71.35Z" clip-rule="evenodd"/><path fill="#474747" d="M208.795 130.33v28.604h-6.048v-22.863h-.167l-6.551 4.106v-5.363l7.081-4.484h5.685Zm18.013 29.232c-2.402-.009-4.469-.6-6.201-1.774-1.723-1.173-3.05-2.872-3.981-5.097-.921-2.226-1.378-4.903-1.368-8.031 0-3.119.461-5.777 1.382-7.975.931-2.197 2.258-3.869 3.981-5.014 1.732-1.154 3.794-1.732 6.187-1.732 2.393 0 4.45.578 6.173 1.732 1.732 1.155 3.063 2.831 3.994 5.028.931 2.188 1.392 4.842 1.383 7.961 0 3.138-.466 5.819-1.397 8.045-.921 2.225-2.244 3.924-3.966 5.097-1.723 1.173-3.785 1.76-6.187 1.76Zm0-5.014c1.639 0 2.947-.824 3.924-2.472.978-1.648 1.462-4.12 1.453-7.416 0-2.169-.224-3.976-.67-5.419-.438-1.443-1.062-2.528-1.872-3.254a4.084 4.084 0 0 0-2.835-1.09c-1.63 0-2.933.815-3.911 2.445-.977 1.629-1.471 4.068-1.48 7.318 0 2.197.219 4.032.656 5.503.447 1.462 1.076 2.56 1.886 3.296a4.131 4.131 0 0 0 2.849 1.089Zm-21.04 22.22v-8.767h.834l3.714 6.101h-.568l3.714-6.101h.833v8.767h-1.187v-6.683l.278.076-2.931 4.813h-.834l-2.931-4.813.266-.076v6.683h-1.188Zm10.597 0v-8.767h1.188v8.767h-1.188Zm3.257 0v-8.767h.834l.354 1.377v7.39h-1.188Zm6.064 0-5.382-7.188.152-1.579 5.394 7.175-.164 1.592Zm0 0-.354-1.302v-7.465h1.188v8.767h-.834Z"/><path fill="#B4B4B4" fill-rule="evenodd" d="M322.654 47.557h54.345c6.425 0 11.682 5.257 11.682 11.681v27.935c0 6.425-5.256 11.682-11.682 11.682h-54.345c-6.425 0-11.682-5.257-11.682-11.682V59.24c0-6.425 5.257-11.682 11.682-11.682Z" clip-rule="evenodd"/><path fill="#B4B4B4" fill-rule="evenodd" d="M344.521 93.904h16.253l-29.821 36.424 13.568-36.424Z" clip-rule="evenodd"/><path fill="#fff" fill-rule="evenodd" d="M330.436 77.515a4.318 4.318 0 0 0 4.309-4.31 4.318 4.318 0 0 0-4.309-4.308 4.318 4.318 0 0 0-4.309 4.309 4.318 4.318 0 0 0 4.309 4.309Zm19.392 0a4.318 4.318 0 0 0 4.309-4.31 4.318 4.318 0 0 0-4.309-4.308 4.317 4.317 0 0 0-4.309 4.309 4.317 4.317 0 0 0 4.309 4.309Zm19.389 0a4.317 4.317 0 0 0 4.309-4.31 4.317 4.317 0 0 0-4.309-4.308 4.318 4.318 0 0 0-4.309 4.309 4.318 4.318 0 0 0 4.309 4.309Z" clip-rule="evenodd"/><path fill="#B4B4B4" fill-rule="evenodd" d="M102.651 96.397H48.306c-6.425 0-11.682 5.256-11.682 11.681v27.935c0 6.425 5.256 11.682 11.682 11.682h54.345c6.425 0 11.682-5.256 11.682-11.682v-27.935c0-6.424-5.256-11.681-11.682-11.681Z" clip-rule="evenodd"/><path fill="#B4B4B4" fill-rule="evenodd" d="M80.785 142.744H64.532l29.82 36.424-13.567-36.424Z" clip-rule="evenodd"/><path fill="#fff" fill-rule="evenodd" d="M66.253 118.029h6.19c0-2.277.879-3.355 2.596-3.355 1.438 0 2.236.639 2.236 2.077 0 3.474-4.632 3.953-4.632 10.025h6.03c0-4.473 6.03-5.432 6.03-11.343 0-4.552-3.354-7.109-8.905-7.109-5.99-.001-9.505 3.594-9.545 9.705Zm9.265 11.342c-2.197 0-3.755 1.518-3.755 3.714 0 2.236 1.558 3.794 3.755 3.794 2.236 0 3.794-1.558 3.794-3.794 0-2.197-1.557-3.714-3.794-3.714Z" clip-rule="evenodd"/></svg>