<svg xmlns="http://www.w3.org/2000/svg" width="510" height="353" fill="none"><g clip-path="url(#a)"><rect width="202.56" height="237.806" x="33.949" y="92.754" fill="#fff" rx="5.758"/><mask id="b" fill="#fff"><path d="M33.95 92.754h202.559v36.031H33.949V92.754Z"/></mask><path fill="#fff" d="M33.95 92.754h202.559v36.031H33.949V92.754Z"/><path fill="#E9E9E9" d="M236.509 127.825H33.949v1.919h202.56v-1.919Z" mask="url(#b)"/><path fill="#000" d="m51.545 115.27 3.87-9.405h1.074l3.842 9.405h-1.666l-3.009-7.618h.564l-3.036 7.618h-1.639Zm1.908-1.814v-1.344h4.984v1.344h-4.984Zm10.433 1.948a2.933 2.933 0 0 1-1.465-.363 2.649 2.649 0 0 1-.994-.994c-.233-.43-.35-.923-.35-1.478v-3.748h1.479v3.681c0 .313.049.582.148.806.107.215.26.381.456.497.206.117.448.175.726.175.43 0 .757-.126.98-.376.233-.26.35-.627.35-1.102v-3.681h1.478v3.748c0 .564-.121 1.062-.363 1.491a2.56 2.56 0 0 1-.98.995c-.422.232-.91.349-1.465.349Zm5.274-.134v-9.136h1.478v9.136H69.16Zm-1.545-5.106v-1.343h4.568v1.343h-4.568Zm8.414 5.24a3.348 3.348 0 0 1-1.706-.443 3.484 3.484 0 0 1-1.223-1.223 3.344 3.344 0 0 1-.443-1.706c0-.627.148-1.191.443-1.693.305-.502.712-.9 1.223-1.196a3.271 3.271 0 0 1 1.706-.456c.636 0 1.209.147 1.72.443.51.295.913.699 1.209 1.209a3.2 3.2 0 0 1 .456 1.693c0 .627-.152 1.195-.457 1.706-.295.51-.698.918-1.209 1.223a3.374 3.374 0 0 1-1.72.443Zm0-1.424c.367 0 .69-.081.967-.242.287-.17.506-.403.658-.699.162-.295.242-.631.242-1.007 0-.376-.08-.708-.242-.994a1.754 1.754 0 0 0-.658-.672c-.278-.17-.6-.255-.967-.255-.358 0-.68.085-.968.255a1.753 1.753 0 0 0-.658.672 2.085 2.085 0 0 0-.228.994c0 .376.076.712.228 1.007.161.296.38.529.658.699.287.161.61.242.968.242Zm4.614 1.29v-6.449h1.478v6.449h-1.478Zm4.286 0v-3.843c0-.43-.134-.761-.403-.994a1.431 1.431 0 0 0-.994-.363c-.269 0-.51.054-.726.162a1.248 1.248 0 0 0-.497.47 1.324 1.324 0 0 0-.188.725l-.578-.322c0-.493.108-.918.323-1.276.215-.359.506-.636.873-.833.367-.206.78-.309 1.236-.309.457 0 .869.098 1.236.295.367.197.658.475.873.833.215.358.323.788.323 1.29v4.165h-1.478Zm4.286 0v-3.843c0-.43-.135-.761-.404-.994a1.431 1.431 0 0 0-.994-.363c-.26 0-.497.054-.712.162a1.228 1.228 0 0 0-.51.47 1.324 1.324 0 0 0-.188.725l-.833-.322c.045-.493.188-.918.43-1.276a2.5 2.5 0 0 1 .927-.833 2.635 2.635 0 0 1 1.263-.309c.465 0 .886.098 1.262.295.377.197.677.475.9.833.224.358.336.788.336 1.29v4.165h-1.477Zm5.7.134c-.582 0-1.11-.148-1.585-.443a3.264 3.264 0 0 1-1.115-1.196 3.607 3.607 0 0 1-.403-1.706c0-.636.134-1.205.403-1.707.278-.51.65-.913 1.115-1.209a2.878 2.878 0 0 1 1.585-.456c.493 0 .927.107 1.303.322.385.206.69.493.914.86.224.367.336.783.336 1.249v1.854c0 .466-.112.882-.336 1.25a2.346 2.346 0 0 1-.9.873 2.748 2.748 0 0 1-1.317.309Zm.242-1.397c.546 0 .985-.184 1.317-.551.34-.367.51-.838.51-1.411a2.2 2.2 0 0 0-.228-1.021 1.645 1.645 0 0 0-.645-.685 1.746 1.746 0 0 0-.954-.255 1.79 1.79 0 0 0-.954.255 1.77 1.77 0 0 0-.645.685 2.2 2.2 0 0 0-.228 1.021c0 .385.076.726.228 1.021.162.296.376.529.645.699.278.161.596.242.954.242Zm1.733 1.263v-1.734l.255-1.571-.255-1.559v-1.585h1.478v6.449H96.89Zm4.099 0v-9.136h1.478v9.136h-1.478Zm-1.545-5.106v-1.343h4.568v1.343h-4.568Zm8.454 5.24a3.553 3.553 0 0 1-1.747-.43 3.372 3.372 0 0 1-1.222-1.209 3.368 3.368 0 0 1-.444-1.72c0-.636.148-1.204.444-1.706.295-.51.694-.914 1.195-1.209a3.315 3.315 0 0 1 1.693-.443c.6 0 1.129.138 1.585.416.466.278.829.658 1.089 1.142.268.484.403 1.034.403 1.652 0 .108-.009.22-.027.336a3.204 3.204 0 0 1-.054.363h-5.293v-1.209h4.527l-.551.484c-.018-.395-.094-.726-.228-.995a1.434 1.434 0 0 0-.578-.618c-.242-.143-.542-.215-.9-.215-.376 0-.703.081-.981.242-.277.161-.492.39-.644.685-.153.287-.229.632-.229 1.035 0 .403.081.757.242 1.061.161.305.39.542.685.712a2.09 2.09 0 0 0 1.021.242c.332 0 .636-.058.914-.175.286-.116.528-.286.725-.51l.941.954a3.02 3.02 0 0 1-1.142.833 3.644 3.644 0 0 1-1.424.282Zm9.226-.134v-9.136h1.545v9.136h-1.545Zm-3.063-7.994v-1.411h7.671v1.411h-7.671Zm9.849 8.128a2.941 2.941 0 0 1-1.585-.443 3.257 3.257 0 0 1-1.115-1.196 3.603 3.603 0 0 1-.403-1.706c0-.636.134-1.205.403-1.707.277-.51.649-.913 1.115-1.209a2.876 2.876 0 0 1 1.585-.456c.493 0 .927.107 1.303.322.385.206.69.493.914.86.224.367.336.783.336 1.249v1.854c0 .466-.112.882-.336 1.25a2.346 2.346 0 0 1-.9.873 2.75 2.75 0 0 1-1.317.309Zm.242-1.397c.546 0 .985-.184 1.316-.551.341-.367.511-.838.511-1.411 0-.385-.076-.725-.229-1.021a1.646 1.646 0 0 0-.644-.685 1.748 1.748 0 0 0-.954-.255c-.358 0-.676.085-.954.255-.269.161-.484.39-.645.685a2.203 2.203 0 0 0-.228 1.021c0 .385.076.726.228 1.021.161.296.376.529.645.699.278.161.596.242.954.242Zm1.733 1.263v-1.734l.255-1.571-.255-1.559v-1.585h1.478v6.449h-1.478Zm7.202 0-1.854-2.728-.269-.242-2.499-3.479h1.787l1.653 2.391.255.229 2.7 3.829h-1.773Zm-4.743 0 2.607-3.614.86 1.061-1.747 2.553h-1.72Zm3.95-2.996-.873-1.048 1.612-2.405h1.706l-2.445 3.453Zm7.497-.551v-1.344h2.351c.322 0 .604-.062.846-.188.251-.134.448-.318.591-.551a1.63 1.63 0 0 0 .215-.846c0-.322-.072-.6-.215-.833a1.403 1.403 0 0 0-.591-.551 1.718 1.718 0 0 0-.846-.201h-2.351v-1.344h2.431c.591 0 1.12.121 1.585.363.475.242.847.582 1.116 1.021.277.439.416.954.416 1.545s-.139 1.106-.416 1.545a2.735 2.735 0 0 1-1.116 1.021c-.465.242-.994.363-1.585.363h-2.431Zm-1.062 3.547v-9.405h1.545v9.405h-1.545Zm10.279.134a2.941 2.941 0 0 1-1.585-.443 3.257 3.257 0 0 1-1.115-1.196 3.603 3.603 0 0 1-.403-1.706c0-.636.134-1.205.403-1.707.277-.51.649-.913 1.115-1.209a2.876 2.876 0 0 1 1.585-.456c.493 0 .927.107 1.303.322.385.206.69.493.914.86.224.367.336.783.336 1.249v1.854c0 .466-.112.882-.336 1.25a2.346 2.346 0 0 1-.9.873 2.748 2.748 0 0 1-1.317.309Zm.242-1.397c.546 0 .985-.184 1.316-.551.341-.367.511-.838.511-1.411 0-.385-.076-.725-.228-1.021a1.654 1.654 0 0 0-.645-.685 1.748 1.748 0 0 0-.954-.255c-.358 0-.676.085-.954.255-.269.161-.484.39-.645.685a2.203 2.203 0 0 0-.228 1.021c0 .385.076.726.228 1.021.161.296.376.529.645.699.278.161.596.242.954.242Zm1.733 1.263v-1.734l.255-1.571-.255-1.559v-1.585h1.478v6.449h-1.478Zm5.2.067-2.754-6.516h1.626l1.881 4.783h-.471l1.989-4.783h1.639l-2.996 6.516h-.914Zm-1.921 2.619 2.002-4.124.833 1.505-1.196 2.619h-1.639Zm6.635-2.686v-6.449h1.478v6.449h-1.478Zm4.286 0v-3.843c0-.43-.135-.761-.404-.994-.268-.242-.6-.363-.994-.363-.268 0-.51.054-.725.162a1.246 1.246 0 0 0-.497.47c-.126.197-.188.439-.188.725l-.578-.322c0-.493.107-.918.322-1.276.215-.359.506-.636.874-.833a2.481 2.481 0 0 1 1.236-.309c.456 0 .868.098 1.236.295.367.197.658.475.873.833.215.358.322.788.322 1.29v4.165h-1.477Zm4.285 0v-3.843c0-.43-.134-.761-.403-.994a1.431 1.431 0 0 0-.994-.363c-.26 0-.497.054-.712.162a1.232 1.232 0 0 0-.511.47 1.328 1.328 0 0 0-.188.725l-.833-.322c.045-.493.188-.918.43-1.276.242-.359.551-.636.927-.833a2.635 2.635 0 0 1 1.263-.309c.466 0 .887.098 1.263.295.376.197.676.475.9.833.224.358.336.788.336 1.29v4.165h-1.478Zm5.996.134a3.55 3.55 0 0 1-1.746-.43 3.375 3.375 0 0 1-1.223-1.209 3.377 3.377 0 0 1-.443-1.72c0-.636.148-1.204.443-1.706.296-.51.695-.914 1.196-1.209a3.315 3.315 0 0 1 1.693-.443c.6 0 1.128.138 1.585.416.466.278.829.658 1.088 1.142.269.484.403 1.034.403 1.652 0 .108-.009.22-.027.336a2.975 2.975 0 0 1-.053.363h-5.293v-1.209h4.527l-.551.484c-.018-.395-.094-.726-.228-.995a1.44 1.44 0 0 0-.578-.618c-.242-.143-.542-.215-.9-.215-.376 0-.703.081-.981.242-.277.161-.492.39-.645.685-.152.287-.228.632-.228 1.035 0 .403.081.757.242 1.061.161.305.389.542.685.712a2.09 2.09 0 0 0 1.021.242c.331 0 .636-.058.914-.175.286-.116.528-.286.725-.51l.94.954a3.017 3.017 0 0 1-1.141.833 3.645 3.645 0 0 1-1.425.282Zm8.601-.134v-3.722c0-.43-.139-.784-.416-1.061-.269-.278-.618-.417-1.048-.417-.287 0-.542.063-.766.188a1.34 1.34 0 0 0-.524.524c-.125.224-.188.48-.188.766l-.578-.322c0-.493.108-.927.323-1.303.215-.386.51-.686.886-.901a2.527 2.527 0 0 1 1.29-.335c.484 0 .914.125 1.29.376.376.242.671.56.886.954.215.385.323.788.323 1.209v4.044h-1.478Zm-4.42 0v-6.449h1.478v6.449h-1.478Zm8.302 0v-9.136h1.477v9.136h-1.477Zm-1.545-5.106v-1.343h4.567v1.343h-4.567Zm7.619 5.24c-.358 0-.703-.045-1.034-.134a3.812 3.812 0 0 1-.914-.404 3.146 3.146 0 0 1-.725-.644l.94-.941c.224.26.479.457.766.591.296.126.627.188.994.188.332 0 .582-.049.752-.147a.47.47 0 0 0 .256-.43.518.518 0 0 0-.242-.457 2.186 2.186 0 0 0-.632-.269c-.25-.08-.519-.161-.806-.242a4.459 4.459 0 0 1-.806-.322 1.827 1.827 0 0 1-.618-.578c-.161-.242-.242-.555-.242-.94 0-.412.095-.766.283-1.061.197-.296.47-.524.819-.686.358-.161.784-.241 1.276-.241.52 0 .977.094 1.371.282.403.179.739.452 1.007.819l-.94.941a1.866 1.866 0 0 0-.645-.524 1.889 1.889 0 0 0-.833-.175c-.295 0-.524.045-.685.134-.161.09-.242.22-.242.39 0 .179.081.318.242.416.161.099.367.184.618.256.26.071.528.152.806.242.287.08.555.197.806.349.26.143.47.34.632.591.161.242.241.56.241.954 0 .627-.219 1.124-.658 1.491-.439.367-1.034.551-1.787.551Z"/><path fill="#fff" d="M33.95 128.785h202.56v27.354H33.95z"/><path fill="#06AA52" d="m56.3 143.492-1.115-1.114a.344.344 0 0 0-.251-.102.336.336 0 0 0-.255.102.342.342 0 0 0-.105.252c0 .099.035.184.105.253l1.316 1.317c.087.087.189.13.304.13a.415.415 0 0 0 .304-.13l2.67-2.669a.35.35 0 0 0 .101-.251.338.338 0 0 0-.102-.255.343.343 0 0 0-.253-.104.342.342 0 0 0-.253.104l-2.467 2.467Zm.68 3.529c-.63 0-1.222-.12-1.777-.359a4.618 4.618 0 0 1-1.448-.974 4.619 4.619 0 0 1-.974-1.447 4.438 4.438 0 0 1-.36-1.778c0-.63.12-1.223.36-1.777a4.597 4.597 0 0 1 .974-1.448 4.62 4.62 0 0 1 1.447-.975 4.442 4.442 0 0 1 1.777-.359c.63 0 1.223.12 1.778.359a4.601 4.601 0 0 1 1.448.974c.41.41.735.893.974 1.447.24.555.36 1.147.36 1.778 0 .63-.12 1.223-.36 1.777a4.597 4.597 0 0 1-.974 1.448c-.41.41-.892.735-1.447.975a4.442 4.442 0 0 1-1.777.359Z"/><path fill="#494949" d="M71.617 146.578c-.637 0-1.179-.115-1.624-.345a3.72 3.72 0 0 1-1.197-1.014l.898-.898c.222.322.487.576.794.76.307.177.699.265 1.175.265.445 0 .798-.092 1.06-.276a.875.875 0 0 0 .402-.76c0-.269-.069-.488-.207-.657a1.534 1.534 0 0 0-.553-.414 4.453 4.453 0 0 0-.748-.3 22.01 22.01 0 0 1-.818-.299 3.763 3.763 0 0 1-.748-.426 1.899 1.899 0 0 1-.542-.657c-.138-.268-.207-.61-.207-1.025 0-.476.115-.879.346-1.209a2.26 2.26 0 0 1 .955-.771 3.26 3.26 0 0 1 1.336-.265c.53 0 1.002.104 1.417.311a2.99 2.99 0 0 1 1.025.794l-.899.899a2.353 2.353 0 0 0-.725-.576 1.784 1.784 0 0 0-.852-.196c-.4 0-.714.081-.945.242a.79.79 0 0 0-.334.679c0 .246.07.446.208.599.138.146.318.273.54.38.231.1.48.196.75.288.276.092.548.196.817.311.276.115.526.265.748.449.23.177.415.407.553.691.138.284.208.641.208 1.071 0 .722-.258 1.293-.772 1.716-.507.422-1.194.633-2.061.633Zm6.227 0c-.499 0-.952-.127-1.358-.38a2.787 2.787 0 0 1-.956-1.025 3.089 3.089 0 0 1-.346-1.462c0-.545.115-1.033.346-1.463.238-.437.556-.783.956-1.036.406-.261.86-.392 1.358-.392.423 0 .795.092 1.117.277.33.176.591.422.783.737.192.314.288.671.288 1.071v1.589c0 .399-.096.756-.288 1.071a2.011 2.011 0 0 1-.771.748 2.35 2.35 0 0 1-1.129.265Zm.208-1.198c.468 0 .844-.157 1.128-.472.292-.314.438-.717.438-1.209 0-.33-.066-.622-.196-.875a1.409 1.409 0 0 0-.553-.587 1.494 1.494 0 0 0-.817-.219 1.512 1.512 0 0 0-1.37.806 1.877 1.877 0 0 0-.196.875c0 .33.065.622.195.875.139.254.323.453.553.599a1.6 1.6 0 0 0 .818.207Zm1.485 1.083v-1.486l.219-1.347-.219-1.336v-1.359h1.267v5.528h-1.267Zm2.673 0v-8.291h1.266v8.291H82.21Zm5.244.115a3.053 3.053 0 0 1-1.497-.368 2.889 2.889 0 0 1-1.048-1.037 2.886 2.886 0 0 1-.38-1.474c0-.545.127-1.032.38-1.462a2.827 2.827 0 0 1 1.025-1.037c.438-.253.921-.38 1.45-.38.515 0 .968.119 1.36.357.399.238.71.565.932.979.23.415.346.887.346 1.417 0 .092-.008.188-.023.287a2.76 2.76 0 0 1-.046.311h-4.537v-1.036h3.88l-.472.414a2.118 2.118 0 0 0-.195-.852 1.22 1.22 0 0 0-.496-.529c-.207-.123-.464-.185-.771-.185a1.63 1.63 0 0 0-.84.208 1.409 1.409 0 0 0-.553.587c-.131.246-.196.541-.196.887 0 .345.069.648.207.909.138.261.334.465.587.611a1.8 1.8 0 0 0 .875.207c.285 0 .546-.05.784-.15.245-.1.452-.245.621-.437l.806.817a2.581 2.581 0 0 1-.978.714 3.126 3.126 0 0 1-1.221.242Zm5.391 0c-.307 0-.602-.038-.886-.115a3.296 3.296 0 0 1-.784-.346 2.66 2.66 0 0 1-.621-.552l.806-.806c.192.222.41.391.656.506.253.108.537.162.852.162.284 0 .5-.043.645-.127a.403.403 0 0 0 .219-.369.443.443 0 0 0-.207-.391 1.871 1.871 0 0 0-.542-.23 17.99 17.99 0 0 0-.69-.208 3.819 3.819 0 0 1-.691-.276 1.56 1.56 0 0 1-.53-.495c-.138-.208-.207-.476-.207-.806 0-.354.08-.657.241-.91.17-.253.404-.449.703-.587.307-.139.672-.208 1.094-.208a2.7 2.7 0 0 1 1.174.242c.346.154.634.388.864.703l-.806.806c-.161-.2-.346-.35-.553-.449-.207-.1-.445-.15-.714-.15-.253 0-.449.038-.587.115-.138.077-.207.188-.207.334 0 .154.069.273.207.357a2.2 2.2 0 0 0 .53.219c.222.061.453.13.69.207.246.069.477.169.691.299.223.123.404.292.542.507.138.207.207.48.207.818 0 .537-.188.963-.564 1.278-.376.315-.887.472-1.532.472Zm7.465-.115v-7.831h1.324v7.831h-1.324Zm-2.625-6.852v-1.209h6.575v1.209h-6.575Zm8.442 6.967c-.499 0-.952-.127-1.359-.38a2.79 2.79 0 0 1-.956-1.025 3.092 3.092 0 0 1-.345-1.462c0-.545.115-1.033.345-1.463a2.77 2.77 0 0 1 .956-1.036c.407-.261.86-.392 1.359-.392.422 0 .794.092 1.117.277.33.176.591.422.783.737.192.314.288.671.288 1.071v1.589c0 .399-.096.756-.288 1.071a2.012 2.012 0 0 1-.772.748c-.33.177-.706.265-1.128.265Zm.207-1.198c.468 0 .845-.157 1.129-.472.291-.314.437-.717.437-1.209 0-.33-.065-.622-.196-.875a1.404 1.404 0 0 0-.552-.587 1.497 1.497 0 0 0-.818-.219 1.506 1.506 0 0 0-1.37.806 1.877 1.877 0 0 0-.196.875c0 .33.065.622.196.875.138.254.322.453.553.599.237.138.51.207.817.207Zm1.486 1.083v-1.486l.218-1.347-.218-1.336v-1.359h1.266v5.528h-1.266Zm6.173 0-1.589-2.338-.231-.207-2.142-2.983h1.532l1.416 2.05.219.196 2.315 3.282h-1.52Zm-4.065 0 2.234-3.098.737.91-1.497 2.188h-1.474Zm3.385-2.568-.748-.898 1.382-2.062h1.462l-2.096 2.96Zm7.082 3.938a5.213 5.213 0 0 1-1.059-1.324 7.229 7.229 0 0 1-.68-1.716 7.69 7.69 0 0 1-.242-1.934c0-.668.081-1.313.242-1.935a7.229 7.229 0 0 1 .68-1.716 5.213 5.213 0 0 1 1.059-1.324l.726.645c-.507.468-.902 1.075-1.186 1.819-.277.737-.415 1.574-.415 2.511 0 .928.138 1.765.415 2.51.284.745.679 1.351 1.186 1.819l-.726.645Zm4.984-1.255a3.232 3.232 0 0 1-1.635-.415 3.114 3.114 0 0 1-1.151-1.128 3.232 3.232 0 0 1-.415-1.635v-4.998h1.324v4.986c0 .392.081.733.242 1.025.169.284.396.507.68.668.284.154.602.23.955.23.361 0 .68-.076.956-.23.276-.161.495-.384.656-.668.162-.292.242-.629.242-1.013v-4.998h1.325v5.009c0 .607-.139 1.148-.415 1.624a3.06 3.06 0 0 1-1.128 1.128c-.476.277-1.022.415-1.636.415Zm6.997 0c-.637 0-1.178-.115-1.623-.345a3.713 3.713 0 0 1-1.198-1.014l.898-.898c.223.322.488.576.795.76.307.177.698.265 1.174.265.446 0 .799-.092 1.06-.276a.876.876 0 0 0 .403-.76c0-.269-.069-.488-.207-.657a1.544 1.544 0 0 0-.553-.414 4.445 4.445 0 0 0-.749-.3 22.254 22.254 0 0 1-.817-.299 3.75 3.75 0 0 1-.749-.426 1.904 1.904 0 0 1-.541-.657c-.138-.268-.207-.61-.207-1.025 0-.476.115-.879.345-1.209.238-.337.557-.595.956-.771a3.258 3.258 0 0 1 1.336-.265c.529 0 1.002.104 1.416.311a2.99 2.99 0 0 1 1.025.794l-.898.899a2.355 2.355 0 0 0-.726-.576 1.78 1.78 0 0 0-.852-.196c-.399 0-.714.081-.944.242a.79.79 0 0 0-.334.679c0 .246.069.446.207.599.138.146.319.273.541.38.231.1.48.196.749.288.276.092.549.196.818.311.276.115.525.265.748.449.23.177.415.407.553.691.138.284.207.641.207 1.071 0 .722-.257 1.293-.771 1.716-.507.422-1.194.633-2.062.633Zm4.28 1.255-.725-.645c.506-.468.898-1.074 1.174-1.819.284-.745.426-1.582.426-2.51 0-.937-.142-1.774-.426-2.511-.276-.744-.668-1.351-1.174-1.819l.725-.645c.407.361.756.802 1.048 1.324.299.522.53 1.094.691 1.716.161.622.242 1.267.242 1.935a7.69 7.69 0 0 1-.242 1.934 6.927 6.927 0 0 1-.691 1.716 5.032 5.032 0 0 1-1.048 1.324Z"/><rect width="42.223" height="7.677" x="177.014" y="138.623" fill="#D9D9D9" rx="3.838"/><path fill="#fff" d="M33.95 160.938h202.56v27.354H33.95z"/><path fill="#06AA52" d="m56.3 175.645-1.115-1.115a.352.352 0 0 0-.251-.102.336.336 0 0 0-.255.102.344.344 0 0 0-.105.253c0 .099.035.183.105.253l1.316 1.316c.087.087.189.13.304.13a.415.415 0 0 0 .304-.13l2.67-2.669a.35.35 0 0 0 .101-.251.34.34 0 0 0-.102-.255.346.346 0 0 0-.253-.104.346.346 0 0 0-.253.104l-2.467 2.468Zm.68 3.528c-.63 0-1.222-.12-1.777-.359a4.601 4.601 0 0 1-1.448-.974 4.607 4.607 0 0 1-.974-1.447 4.437 4.437 0 0 1-.36-1.777c0-.631.12-1.223.36-1.778a4.609 4.609 0 0 1 .974-1.448 4.6 4.6 0 0 1 1.447-.974 4.425 4.425 0 0 1 1.777-.359c.63 0 1.223.119 1.778.359a4.601 4.601 0 0 1 1.448.974c.41.41.735.892.974 1.447.24.554.36 1.147.36 1.777 0 .63-.12 1.223-.36 1.778a4.593 4.593 0 0 1-.974 1.447c-.41.411-.892.736-1.447.975a4.442 4.442 0 0 1-1.777.359Z"/><path fill="#494949" d="m72.031 178.615-3.259-8.061h1.44l2.545 6.53h-.507l2.568-6.53h1.416l-3.281 8.061h-.922Zm3.68 0 3.316-8.061h.922l3.293 8.061h-1.428l-2.58-6.529h.484l-2.602 6.529H75.71Zm1.635-1.554v-1.152h4.272v1.152h-4.272Zm7.963 1.554v-7.83h1.324v7.83h-1.324Zm-2.626-6.851v-1.21h6.575v1.21h-6.575Zm13.562 6.966a4.03 4.03 0 0 1-1.612-.322 4.175 4.175 0 0 1-1.313-.887 4.312 4.312 0 0 1-.887-1.324 4.248 4.248 0 0 1-.31-1.624c0-.575.103-1.113.31-1.612.215-.499.507-.936.876-1.313a4.03 4.03 0 0 1 2.913-1.209c.576 0 1.11.108 1.6.323.5.207.937.503 1.313.886.376.377.668.818.876 1.325.214.499.322 1.036.322 1.612 0 .576-.108 1.117-.322 1.624-.208.499-.5.936-.876 1.312a4.041 4.041 0 0 1-1.3.887 3.92 3.92 0 0 1-1.59.322Zm-.023-1.266c.545 0 1.021-.123 1.428-.369.414-.245.737-.583.967-1.013.238-.438.357-.941.357-1.509 0-.422-.069-.806-.207-1.151a2.565 2.565 0 0 0-.564-.91 2.47 2.47 0 0 0-.876-.599 2.84 2.84 0 0 0-1.105-.207c-.537 0-1.013.123-1.428.368-.407.238-.73.572-.967 1.002-.23.43-.346.929-.346 1.497 0 .423.066.814.196 1.175.138.353.326.656.564.91.246.253.538.453.876.598.337.139.706.208 1.105.208Zm7.489 1.266c-.637 0-1.178-.115-1.623-.345a3.708 3.708 0 0 1-1.198-1.013l.898-.899c.223.323.488.576.795.76.307.177.699.265 1.175.265.445 0 .798-.092 1.059-.276a.873.873 0 0 0 .403-.76c0-.269-.069-.488-.207-.657a1.547 1.547 0 0 0-.553-.414 4.445 4.445 0 0 0-.749-.299 22.299 22.299 0 0 1-.817-.3 3.778 3.778 0 0 1-.749-.426 1.91 1.91 0 0 1-.541-.656c-.138-.269-.207-.611-.207-1.025 0-.476.115-.879.345-1.209.238-.338.557-.595.956-.772a3.278 3.278 0 0 1 1.336-.265c.53 0 1.002.104 1.416.311a2.97 2.97 0 0 1 1.025.795l-.898.898a2.343 2.343 0 0 0-.726-.576 1.791 1.791 0 0 0-.852-.196c-.399 0-.714.081-.944.242a.79.79 0 0 0-.334.68c0 .245.069.445.207.598.139.146.319.273.542.38.23.1.479.196.748.288.277.092.549.196.818.311.276.115.526.265.748.449.231.177.415.407.553.691.138.284.207.641.207 1.071 0 .722-.257 1.294-.771 1.716-.507.422-1.194.633-2.062.633Zm6.197 0c-.637 0-1.179-.115-1.624-.345a3.718 3.718 0 0 1-1.198-1.013l.899-.899c.222.323.487.576.794.76.307.177.699.265 1.175.265.445 0 .798-.092 1.059-.276a.873.873 0 0 0 .403-.76c0-.269-.069-.488-.207-.657a1.538 1.538 0 0 0-.553-.414 4.433 4.433 0 0 0-.748-.299 22.337 22.337 0 0 1-.818-.3 3.742 3.742 0 0 1-.748-.426 1.912 1.912 0 0 1-.542-.656c-.138-.269-.207-.611-.207-1.025 0-.476.115-.879.346-1.209.238-.338.556-.595.955-.772.4-.176.845-.265 1.336-.265a3.131 3.131 0 0 1 2.441 1.106l-.898.898a2.352 2.352 0 0 0-.725-.576 1.797 1.797 0 0 0-.852-.196c-.4 0-.714.081-.945.242a.792.792 0 0 0-.334.68c0 .245.07.445.208.598.138.146.318.273.541.38.23.1.48.196.748.288.277.092.549.196.818.311.276.115.526.265.749.449.23.177.414.407.552.691.138.284.208.641.208 1.071 0 .722-.258 1.294-.772 1.716-.507.422-1.194.633-2.061.633Z"/><rect width="42.223" height="7.677" x="177.014" y="170.775" fill="#D9D9D9" rx="3.838"/><path fill="#fff" d="M33.95 193.09h202.56v27.354H33.95z"/><path fill="#06AA52" d="m56.3 207.797-1.115-1.115a.352.352 0 0 0-.251-.102.343.343 0 0 0-.255.102.346.346 0 0 0-.105.253c0 .099.035.183.105.253l1.316 1.317a.42.42 0 0 0 .608 0l2.67-2.67c.066-.066.1-.15.101-.25a.338.338 0 0 0-.102-.255.343.343 0 0 0-.253-.105.343.343 0 0 0-.253.105l-2.467 2.467Zm.68 3.528c-.63 0-1.222-.119-1.777-.359a4.601 4.601 0 0 1-1.448-.974 4.596 4.596 0 0 1-.974-1.447 4.434 4.434 0 0 1-.36-1.777c0-.63.12-1.223.36-1.778a4.593 4.593 0 0 1 .974-1.447c.41-.411.892-.736 1.447-.975a4.442 4.442 0 0 1 1.777-.359c.63 0 1.223.12 1.778.359a4.601 4.601 0 0 1 1.448.974c.41.41.735.892.974 1.447.24.554.36 1.147.36 1.777a4.44 4.44 0 0 1-.36 1.778 4.609 4.609 0 0 1-.974 1.448 4.6 4.6 0 0 1-1.447.974 4.425 4.425 0 0 1-1.777.359Z"/><path fill="#494949" d="M73.01 210.883a3.865 3.865 0 0 1-1.566-.323 4.073 4.073 0 0 1-1.29-.886 4.426 4.426 0 0 1-.875-1.325 4.245 4.245 0 0 1-.31-1.623c0-.576.103-1.113.31-1.612a4.28 4.28 0 0 1 .875-1.313c.377-.384.814-.68 1.313-.887a4.142 4.142 0 0 1 1.635-.322 4.26 4.26 0 0 1 1.774.368 3.702 3.702 0 0 1 1.37 1.048l-.898.898a2.254 2.254 0 0 0-.956-.771 3.03 3.03 0 0 0-1.29-.277c-.553 0-1.04.123-1.462.369a2.48 2.48 0 0 0-.968 1.002c-.23.43-.345.929-.345 1.497 0 .568.115 1.071.346 1.508.237.43.556.768.955 1.014.4.245.852.368 1.36.368.537 0 .997-.096 1.381-.288.391-.199.69-.491.898-.875.207-.392.311-.871.311-1.439l.83.598h-3.444v-1.209h3.984v.184c0 .96-.172 1.759-.518 2.396-.338.637-.802 1.113-1.393 1.428-.591.314-1.267.472-2.027.472Zm7.344 0c-.637 0-1.178-.115-1.623-.346a3.704 3.704 0 0 1-1.198-1.013l.898-.898c.223.322.488.575.795.76.307.176.699.265 1.175.265.445 0 .798-.093 1.059-.277a.872.872 0 0 0 .403-.76c0-.268-.069-.487-.207-.656a1.547 1.547 0 0 0-.553-.415 4.446 4.446 0 0 0-.748-.299 20.441 20.441 0 0 1-.818-.3 3.763 3.763 0 0 1-.749-.426 1.896 1.896 0 0 1-.54-.656c-.139-.269-.208-.61-.208-1.025 0-.476.115-.879.345-1.209.238-.338.557-.595.956-.772.4-.176.845-.264 1.336-.264.53 0 1.002.103 1.416.311a2.98 2.98 0 0 1 1.025.794l-.898.898a2.334 2.334 0 0 0-.725-.575 1.784 1.784 0 0 0-.853-.196c-.399 0-.713.08-.944.242a.789.789 0 0 0-.334.679c0 .246.07.445.207.599.139.146.32.272.542.38.23.1.48.196.748.288.277.092.55.195.818.311.276.115.526.264.748.449a1.9 1.9 0 0 1 .553.691c.138.284.207.641.207 1.071 0 .721-.257 1.293-.771 1.715-.507.423-1.194.634-2.061.634Zm5.832-.115v-7.831h1.324v7.831h-1.324Zm-2.626-6.852v-1.209h6.576v1.209H83.56Z"/><rect width="42.223" height="7.677" x="177.014" y="202.928" fill="#D9D9D9" rx="3.838"/><path fill="#fff" d="M33.95 225.24h202.56v27.354H33.95z"/><path fill="#06AA52" d="m56.3 239.947-1.115-1.114a.344.344 0 0 0-.251-.102.336.336 0 0 0-.255.102.342.342 0 0 0-.105.252c0 .099.035.184.105.253l1.316 1.317c.087.087.189.13.304.13a.415.415 0 0 0 .304-.13l2.67-2.669a.35.35 0 0 0 .101-.251.34.34 0 0 0-.102-.255.343.343 0 0 0-.253-.104.342.342 0 0 0-.253.104l-2.467 2.467Zm.68 3.529c-.63 0-1.222-.12-1.777-.359a4.601 4.601 0 0 1-1.448-.974 4.607 4.607 0 0 1-.974-1.447 4.438 4.438 0 0 1-.36-1.778c0-.63.12-1.223.36-1.777a4.597 4.597 0 0 1 .974-1.448 4.62 4.62 0 0 1 1.447-.975 4.442 4.442 0 0 1 1.777-.359c.63 0 1.223.12 1.778.359.555.24 1.037.564 1.448.974.41.411.735.893.974 1.447.24.555.36 1.147.36 1.778 0 .63-.12 1.223-.36 1.778a4.604 4.604 0 0 1-.974 1.447c-.41.41-.892.735-1.447.975a4.442 4.442 0 0 1-1.777.359Z"/><path fill="#494949" d="M69.371 242.918v-8.061h1.325v8.061H69.37Zm6.732.115a4.196 4.196 0 0 1-1.623-.311 4.073 4.073 0 0 1-1.29-.886 4.088 4.088 0 0 1-.852-1.325c-.2-.506-.3-1.048-.3-1.623 0-.576.1-1.114.3-1.613.2-.506.483-.948.852-1.324a4.076 4.076 0 0 1 1.29-.887 4.076 4.076 0 0 1 1.623-.322c.653 0 1.217.108 1.693.322.476.215.898.507 1.267.876l-.899.898a2.45 2.45 0 0 0-.875-.61c-.338-.146-.733-.219-1.186-.219a2.81 2.81 0 0 0-1.094.207c-.33.138-.618.338-.863.599a2.644 2.644 0 0 0-.553.91 3.34 3.34 0 0 0-.196 1.163c0 .422.065.809.196 1.163.13.353.315.66.553.921.245.253.533.449.863.587.33.138.695.207 1.094.207.492 0 .906-.073 1.244-.218.345-.154.637-.361.875-.622l.898.898a4.04 4.04 0 0 1-1.301.887c-.499.215-1.07.322-1.716.322Zm4.199-.115v-8.061h.921l3.351 5.516h-.599l3.351-5.516h.922v8.061h-1.325v-5.735l.3.081-2.488 4.088h-.92l-2.488-4.088.3-.081v5.735h-1.325Zm11.782.115c-.638 0-1.179-.115-1.624-.345a3.71 3.71 0 0 1-1.198-1.014l.898-.898c.223.323.488.576.795.76.307.177.699.265 1.175.265.445 0 .798-.092 1.06-.276a.874.874 0 0 0 .402-.76c0-.269-.069-.488-.207-.657a1.533 1.533 0 0 0-.553-.414 4.532 4.532 0 0 0-.748-.3 22.077 22.077 0 0 1-.818-.299 3.763 3.763 0 0 1-.749-.426 1.9 1.9 0 0 1-.54-.657c-.139-.268-.208-.61-.208-1.024 0-.476.115-.879.346-1.21a2.26 2.26 0 0 1 .955-.771 3.26 3.26 0 0 1 1.336-.265c.53 0 1.002.104 1.416.311a2.97 2.97 0 0 1 1.025.795l-.898.898a2.352 2.352 0 0 0-.725-.576 1.783 1.783 0 0 0-.853-.196c-.399 0-.713.081-.944.242a.79.79 0 0 0-.334.679c0 .246.07.446.208.599.138.146.318.273.54.38.231.1.48.196.75.288.276.092.548.196.817.311.276.115.526.265.748.449.23.177.415.407.553.691.138.284.207.641.207 1.071 0 .722-.257 1.294-.771 1.716-.507.422-1.194.633-2.061.633Z"/><rect width="42.223" height="7.677" x="177.014" y="235.078" fill="#D9D9D9" rx="3.838"/><path fill="#fff" d="M33.95 252.594h202.56v77.965H33.95z"/><path fill="#000" d="M53.14 281.551a5.926 5.926 0 0 1 5.927-5.926h152.322a5.927 5.927 0 0 1 5.927 5.926v23.89a5.927 5.927 0 0 1-5.927 5.926H59.067a5.926 5.926 0 0 1-5.926-5.926v-23.89Z"/><path fill="#fff" d="m88.063 294.554-1.147-1.147a.361.361 0 0 0-.258-.105.346.346 0 0 0-.263.105.354.354 0 0 0-.107.26c0 .102.036.189.107.261l1.356 1.355a.43.43 0 0 0 .624 0l2.748-2.748a.358.358 0 0 0 .105-.258.348.348 0 0 0-.105-.262.354.354 0 0 0-.26-.108.353.353 0 0 0-.26.108l-2.54 2.539Zm.702 3.632a4.575 4.575 0 0 1-1.83-.369 4.756 4.756 0 0 1-1.49-1.003 4.743 4.743 0 0 1-1.003-1.489 4.569 4.569 0 0 1-.37-1.83c0-.649.123-1.259.37-1.83a4.746 4.746 0 0 1 1.002-1.49 4.754 4.754 0 0 1 1.49-1.003 4.572 4.572 0 0 1 1.83-.369c.648 0 1.258.123 1.829.369a4.738 4.738 0 0 1 1.49 1.003 4.73 4.73 0 0 1 1.003 1.489 4.57 4.57 0 0 1 .37 1.83 4.57 4.57 0 0 1-.37 1.829 4.735 4.735 0 0 1-1.002 1.49 4.738 4.738 0 0 1-1.49 1.004c-.57.246-1.18.369-1.83.369Zm12.137-.19 3.413-8.297h.948l3.39 8.297h-1.469l-2.655-6.72h.497l-2.678 6.72h-1.446Zm1.683-1.6v-1.185h4.397v1.185h-4.397Zm9.204 1.719c-.482 0-.913-.107-1.292-.32a2.344 2.344 0 0 1-.877-.877 2.701 2.701 0 0 1-.308-1.304v-3.307h1.304v3.247c0 .277.043.514.13.712.095.189.229.335.403.438.182.103.395.154.64.154.379 0 .668-.11.865-.332.206-.229.309-.553.309-.972v-3.247h1.303v3.307c0 .498-.106.936-.32 1.315a2.244 2.244 0 0 1-.865.877c-.371.206-.802.309-1.292.309Zm4.654-.119v-8.06h1.303v8.06h-1.303Zm-1.364-4.504v-1.185h4.03v1.185h-4.03Zm7.423 4.623a2.946 2.946 0 0 1-1.505-.392 3.07 3.07 0 0 1-1.079-1.078 2.958 2.958 0 0 1-.391-1.505c0-.554.131-1.051.391-1.494a3.014 3.014 0 0 1 1.079-1.055c.45-.268.952-.403 1.505-.403.561 0 1.067.131 1.517.391.451.261.806.617 1.067 1.067.269.443.403.94.403 1.494a2.88 2.88 0 0 1-.403 1.505c-.261.45-.616.81-1.067 1.078a2.97 2.97 0 0 1-1.517.392Zm0-1.257c.324 0 .609-.071.854-.213.253-.15.446-.356.58-.616.143-.261.214-.558.214-.889 0-.332-.071-.625-.214-.877a1.545 1.545 0 0 0-.58-.593 1.603 1.603 0 0 0-.854-.225c-.316 0-.6.075-.853.225-.245.142-.439.34-.581.593a1.842 1.842 0 0 0-.201.877c0 .331.067.628.201.889.142.26.336.466.581.616.253.142.537.213.853.213Zm4.28-1.268v-1.233h4.018v1.233h-4.018Zm6.577-.723v-1.185h2.074c.285 0 .534-.056.747-.166.221-.119.395-.281.522-.486.126-.214.189-.462.189-.747 0-.284-.063-.529-.189-.735a1.248 1.248 0 0 0-.522-.486 1.517 1.517 0 0 0-.747-.177h-2.074v-1.186h2.146c.521 0 .987.107 1.398.32.419.214.747.514.984.901.245.387.367.842.367 1.363 0 .522-.122.976-.367 1.363a2.409 2.409 0 0 1-.984.901c-.411.213-.877.32-1.398.32h-2.146Zm-.936 3.129v-8.297h1.363v8.297h-1.363Zm9.068.119c-.513 0-.98-.131-1.398-.392a2.868 2.868 0 0 1-.984-1.054 3.188 3.188 0 0 1-.356-1.506c0-.561.119-1.062.356-1.505.245-.45.573-.806.984-1.067a2.54 2.54 0 0 1 1.398-.403c.435 0 .818.095 1.15.285.34.182.608.434.806.758.198.324.296.692.296 1.103v1.635c0 .411-.098.779-.296 1.103a2.07 2.07 0 0 1-.794.77c-.34.182-.727.273-1.162.273Zm.214-1.233c.482 0 .869-.162 1.161-.486.3-.324.451-.739.451-1.245 0-.339-.068-.64-.202-.9a1.446 1.446 0 0 0-.569-.605 1.538 1.538 0 0 0-.841-.225 1.553 1.553 0 0 0-1.411.83 1.94 1.94 0 0 0-.201.9c0 .34.067.641.201.901.142.261.332.466.569.617.245.142.526.213.842.213Zm1.529 1.114v-1.529l.225-1.387-.225-1.375v-1.398h1.303v5.689h-1.303Zm2.762 0v-5.689h1.304v5.689h-1.304Zm.652-6.732a.757.757 0 0 1-.557-.225.781.781 0 0 1-.213-.557c0-.222.071-.407.213-.558a.757.757 0 0 1 .557-.225c.229 0 .415.075.557.225a.783.783 0 0 1 .214.558.782.782 0 0 1-.214.557.732.732 0 0 1-.557.225Zm4.497 6.851c-.514 0-.98-.131-1.399-.392a2.868 2.868 0 0 1-.984-1.054 3.187 3.187 0 0 1-.355-1.506c0-.561.118-1.062.355-1.505.245-.45.573-.806.984-1.067a2.542 2.542 0 0 1 1.399-.403c.434 0 .818.095 1.149.285.34.182.609.434.806.758.198.324.297.692.297 1.103v1.635c0 .411-.099.779-.297 1.103-.189.324-.454.58-.794.77a2.419 2.419 0 0 1-1.161.273Zm.213-1.233c.324 0 .605-.071.842-.213a1.54 1.54 0 0 0 .569-.617c.134-.26.201-.561.201-.901 0-.339-.067-.64-.201-.9a1.452 1.452 0 0 0-.569-.605 1.542 1.542 0 0 0-.842-.225 1.546 1.546 0 0 0-1.41.83c-.135.26-.202.561-.202.9 0 .34.067.641.202.901.142.261.331.466.569.617.244.142.525.213.841.213Zm2.833 1.114h-1.304v-1.529l.225-1.387-.225-1.375v-4.243h1.304v8.534Zm5.898 0v-8.06h1.363v8.06h-1.363Zm-2.702-7.052v-1.245h6.768v1.245h-6.768Zm8.689 7.171c-.513 0-.98-.131-1.398-.392a2.868 2.868 0 0 1-.984-1.054 3.188 3.188 0 0 1-.356-1.506c0-.561.119-1.062.356-1.505.245-.45.573-.806.984-1.067a2.54 2.54 0 0 1 1.398-.403c.435 0 .818.095 1.15.285.34.182.608.434.806.758.198.324.296.692.296 1.103v1.635c0 .411-.098.779-.296 1.103a2.07 2.07 0 0 1-.794.77c-.34.182-.727.273-1.162.273Zm.214-1.233c.482 0 .869-.162 1.161-.486.3-.324.451-.739.451-1.245 0-.339-.068-.64-.202-.9a1.446 1.446 0 0 0-.569-.605 1.538 1.538 0 0 0-.841-.225 1.553 1.553 0 0 0-1.411.83 1.94 1.94 0 0 0-.201.9c0 .34.067.641.201.901.142.261.332.466.569.617.245.142.526.213.842.213Zm1.529 1.114v-1.529l.225-1.387-.225-1.375v-1.398h1.303v5.689h-1.303Zm6.354 0-1.636-2.406-.237-.213-2.205-3.07h1.577l1.458 2.11.225.201 2.382 3.378h-1.564Zm-4.184 0 2.299-3.188.759.936-1.541 2.252h-1.517Zm3.484-2.643-.77-.925 1.422-2.121h1.505l-2.157 3.046Zm5.608 2.762a3.134 3.134 0 0 1-1.541-.38c-.45-.26-.81-.616-1.078-1.066a2.975 2.975 0 0 1-.392-1.518c0-.561.131-1.062.392-1.505.26-.45.612-.806 1.054-1.067.451-.26.949-.391 1.494-.391.529 0 .995.123 1.398.368.411.245.731.581.961 1.007.237.427.355.913.355 1.458 0 .095-.008.194-.024.296a2.785 2.785 0 0 1-.047.32h-4.67v-1.066h3.994l-.486.426a2.172 2.172 0 0 0-.201-.877 1.263 1.263 0 0 0-.51-.545c-.213-.126-.478-.19-.794-.19-.332 0-.62.072-.865.214a1.444 1.444 0 0 0-.569.604c-.134.253-.202.557-.202.913 0 .355.072.668.214.936.142.269.344.478.604.628.261.143.561.214.901.214.292 0 .561-.052.806-.154.253-.103.466-.253.64-.451l.83.842a2.668 2.668 0 0 1-1.008.735 3.21 3.21 0 0 1-1.256.249Zm5.549 0c-.316 0-.62-.04-.913-.119a3.389 3.389 0 0 1-.806-.355 2.81 2.81 0 0 1-.64-.569l.83-.83c.198.229.423.403.676.521.26.111.553.166.877.166.292 0 .513-.043.664-.13a.414.414 0 0 0 .225-.379.455.455 0 0 0-.214-.403 1.922 1.922 0 0 0-.557-.237 19.909 19.909 0 0 0-.711-.214 3.95 3.95 0 0 1-.711-.284 1.602 1.602 0 0 1-.545-.51c-.142-.213-.214-.49-.214-.83 0-.363.083-.675.249-.936.174-.261.415-.462.723-.604.316-.143.692-.214 1.126-.214.459 0 .862.083 1.209.249.356.158.652.399.889.723l-.829.83a1.642 1.642 0 0 0-.569-.462 1.675 1.675 0 0 0-.735-.154c-.261 0-.462.039-.605.118-.142.079-.213.194-.213.344 0 .158.071.28.213.367.143.087.324.162.546.225.229.064.466.135.711.214.253.071.49.174.711.308.229.126.415.3.557.521.142.214.213.494.213.842 0 .553-.193.992-.58 1.316-.388.324-.913.486-1.577.486Z"/></g><rect width="223.282" height="250.451" x="252.768" y="21.768" fill="#fff" rx="5.617"/><path fill="#404040" d="M265.526 41.407v-.983h1.72c.236 0 .442-.046.619-.138.184-.098.328-.232.433-.403a1.19 1.19 0 0 0 .157-.62 1.14 1.14 0 0 0-.157-.609 1.026 1.026 0 0 0-.433-.403 1.253 1.253 0 0 0-.619-.147h-1.72v-.983h1.779c.432 0 .819.088 1.16.265.347.177.619.426.816.747.203.322.304.698.304 1.13 0 .433-.101.81-.304 1.131-.197.321-.469.57-.816.747a2.482 2.482 0 0 1-1.16.266h-1.779Zm-.777 2.595v-6.881h1.13v6.881h-1.13Zm7.708.098a2.45 2.45 0 0 1-1.249-.324 2.547 2.547 0 0 1-.894-.895 2.45 2.45 0 0 1-.325-1.248c0-.459.109-.872.325-1.239.223-.367.521-.658.894-.874.374-.223.79-.335 1.249-.335.465 0 .884.108 1.258.325.374.216.668.51.885.884.223.367.334.78.334 1.239 0 .459-.111.875-.334 1.248a2.467 2.467 0 0 1-.885.895 2.467 2.467 0 0 1-1.258.324Zm0-1.042c.268 0 .504-.059.708-.177a1.25 1.25 0 0 0 .481-.51 1.52 1.52 0 0 0 .177-.738c0-.275-.059-.518-.177-.727a1.332 1.332 0 0 0-1.189-.678c-.262 0-.498.061-.708.186a1.288 1.288 0 0 0-.482.492c-.111.21-.167.452-.167.727 0 .275.056.52.167.737.118.216.279.387.482.511.21.118.446.177.708.177Zm4.919 1.042a2.86 2.86 0 0 1-.756-.098 2.792 2.792 0 0 1-.669-.295 2.296 2.296 0 0 1-.531-.472l.688-.688c.164.19.351.334.561.433.216.091.458.137.727.137.243 0 .426-.036.551-.108a.344.344 0 0 0 .186-.314.379.379 0 0 0-.177-.335 1.608 1.608 0 0 0-.462-.196c-.183-.06-.38-.118-.589-.177a3.236 3.236 0 0 1-.59-.236 1.325 1.325 0 0 1-.452-.423c-.118-.177-.177-.406-.177-.688 0-.301.069-.56.206-.776a1.41 1.41 0 0 1 .6-.502 2.26 2.26 0 0 1 .934-.177c.38 0 .714.069 1.002.207.295.13.541.33.738.6l-.689.687a1.362 1.362 0 0 0-.471-.383 1.389 1.389 0 0 0-.61-.128c-.216 0-.383.033-.501.099-.118.065-.177.16-.177.285 0 .13.059.232.177.304.118.072.268.135.452.187.19.053.387.111.59.177.21.059.406.144.59.256.19.105.344.249.462.432.118.177.177.41.177.698 0 .459-.161.822-.482 1.091-.321.269-.757.403-1.308.403Zm3.399-.098v-6.684h1.081v6.684h-1.081Zm-1.131-3.736v-.983h3.342v.983h-3.342Zm5.97 3.834a2.15 2.15 0 0 1-1.16-.324 2.38 2.38 0 0 1-.816-.875 2.634 2.634 0 0 1-.295-1.248c0-.466.098-.882.295-1.249a2.37 2.37 0 0 1 .816-.885 2.102 2.102 0 0 1 1.16-.334c.36 0 .678.079.953.236a1.707 1.707 0 0 1 .914 1.544v1.356c0 .34-.082.646-.246.914a1.71 1.71 0 0 1-.658.64c-.282.15-.603.225-.963.225Zm.176-1.022c.4 0 .721-.134.964-.403.249-.269.373-.613.373-1.032a1.6 1.6 0 0 0-.167-.747 1.195 1.195 0 0 0-.472-.502 1.275 1.275 0 0 0-.698-.186 1.288 1.288 0 0 0-1.169.688 1.601 1.601 0 0 0-.167.747c0 .282.055.53.167.747.118.216.275.386.472.511.203.118.435.177.697.177Zm1.269.924v-1.268l.186-1.15-.186-1.14v-1.16h1.081v4.718h-1.081Zm2.281 0v-7.078h1.081v7.078h-1.081Zm7.526.098c-.498 0-.96-.088-1.386-.265a3.463 3.463 0 0 1-1.101-.757 3.49 3.49 0 0 1-.728-1.13 3.755 3.755 0 0 1-.255-1.387c0-.491.085-.95.255-1.376.171-.432.413-.81.728-1.13a3.463 3.463 0 0 1 1.101-.757 3.466 3.466 0 0 1 1.386-.275c.557 0 1.039.091 1.445.275.406.183.767.432 1.081.747l-.767.767a2.1 2.1 0 0 0-.747-.521 2.533 2.533 0 0 0-1.012-.187c-.341 0-.652.059-.934.177a2.131 2.131 0 0 0-.737.511 2.264 2.264 0 0 0-.472.777 2.853 2.853 0 0 0-.167.992c0 .36.056.692.167.993.111.302.269.564.472.787.21.216.455.383.737.501s.593.177.934.177c.419 0 .773-.062 1.062-.187a2.23 2.23 0 0 0 .747-.53l.766.766a3.436 3.436 0 0 1-1.11.757c-.426.183-.915.275-1.465.275Zm5.455 0c-.458 0-.875-.108-1.248-.324a2.542 2.542 0 0 1-.895-.895 2.448 2.448 0 0 1-.324-1.248c0-.459.108-.872.324-1.239.223-.367.521-.658.895-.874.373-.223.79-.335 1.248-.335.466 0 .885.108 1.259.325.373.216.668.51.884.884.223.367.334.78.334 1.239 0 .459-.111.875-.334 1.248a2.464 2.464 0 0 1-.884.895 2.468 2.468 0 0 1-1.259.324Zm0-1.042c.269 0 .505-.059.708-.177.21-.124.37-.295.482-.51a1.52 1.52 0 0 0 .177-.738c0-.275-.059-.518-.177-.727a1.288 1.288 0 0 0-.482-.492 1.327 1.327 0 0 0-.708-.187 1.36 1.36 0 0 0-.707.187 1.281 1.281 0 0 0-.482.492 1.52 1.52 0 0 0-.167.727c0 .275.055.52.167.737.118.216.278.387.482.511.209.118.445.177.707.177Zm5.352 1.042a2.15 2.15 0 0 1-1.159-.324 2.38 2.38 0 0 1-.816-.875 2.634 2.634 0 0 1-.295-1.248c0-.466.098-.882.295-1.249a2.37 2.37 0 0 1 .816-.885 2.101 2.101 0 0 1 1.159-.334c.361 0 .679.079.954.236a1.707 1.707 0 0 1 .914 1.544v1.356c0 .34-.082.646-.246.914a1.71 1.71 0 0 1-.658.64 2.02 2.02 0 0 1-.964.225Zm.177-1.022c.269 0 .502-.06.698-.177a1.26 1.26 0 0 0 .472-.511c.112-.216.167-.465.167-.747s-.055-.531-.167-.747a1.195 1.195 0 0 0-.472-.502 1.275 1.275 0 0 0-.698-.186c-.262 0-.494.062-.698.186a1.293 1.293 0 0 0-.471.502 1.601 1.601 0 0 0-.167.747c0 .282.055.53.167.747.118.216.275.386.471.511.204.118.436.177.698.177Zm2.35.924h-1.081v-1.268l.186-1.15-.186-1.14v-3.52h1.081v7.078Zm3.392.098a2.6 2.6 0 0 1-1.278-.314 2.453 2.453 0 0 1-.894-.885 2.459 2.459 0 0 1-.325-1.258c0-.465.108-.882.325-1.249.216-.373.507-.668.874-.884a2.431 2.431 0 0 1 1.239-.325c.439 0 .826.102 1.16.305.341.203.606.482.796.835.197.354.295.757.295 1.21 0 .078-.007.16-.02.245a2.177 2.177 0 0 1-.039.266h-3.873v-.885h3.313l-.403.354a1.807 1.807 0 0 0-.167-.727 1.053 1.053 0 0 0-.423-.453 1.274 1.274 0 0 0-.659-.157c-.275 0-.514.059-.717.177a1.202 1.202 0 0 0-.472.501c-.112.21-.167.462-.167.757s.059.554.177.777c.118.223.285.396.501.52.216.119.465.178.747.178.243 0 .465-.043.669-.128.209-.085.386-.21.53-.374l.688.698a2.2 2.2 0 0 1-.835.61 2.665 2.665 0 0 1-1.042.206Z" opacity=".8"/><rect width="200.111" height="33.958" x="264.353" y="53.97" stroke="#CCC" stroke-width=".702" rx="2.458"/><path fill="#000" d="m272.798 73.809 2.876-3.033c.293-.3.521-.558.686-.776.165-.224.281-.43.348-.618.075-.187.112-.381.112-.584 0-.397-.127-.707-.382-.932-.254-.225-.584-.337-.988-.337-.397 0-.745.097-1.045.292-.3.187-.565.48-.798.876l-.741-.618c.307-.509.678-.89 1.112-1.145.434-.263.936-.394 1.505-.394.48 0 .895.094 1.247.281.36.187.637.45.832.787.195.337.292.73.292 1.18 0 .321-.041.61-.124.864a2.514 2.514 0 0 1-.415.787c-.195.262-.468.576-.82.943l-2.326 2.393-1.371.034Zm0 .64v-.64l.899-.303h4.337v.943h-5.236Zm9.415.113c-.584 0-1.12-.165-1.607-.495-.479-.33-.861-.794-1.145-1.393-.285-.607-.427-1.318-.427-2.134 0-.817.138-1.524.415-2.124.285-.599.667-1.06 1.146-1.381a2.738 2.738 0 0 1 1.584-.495 2.77 2.77 0 0 1 1.607.495c.479.322.857.782 1.134 1.381.285.6.427 1.311.427 2.135 0 .816-.142 1.528-.427 2.134-.277.6-.655 1.064-1.134 1.394a2.729 2.729 0 0 1-1.573.483Zm-.022-1c.411 0 .771-.113 1.078-.337.315-.232.562-.573.741-1.023.18-.449.27-1.003.27-1.662 0-.66-.09-1.21-.27-1.652-.179-.45-.426-.786-.741-1.01a1.788 1.788 0 0 0-1.09-.35c-.404 0-.764.117-1.078.35-.315.224-.562.56-.742 1.01-.172.442-.258.993-.258 1.652 0 .659.086 1.213.258 1.662.18.45.427.79.742 1.023a1.83 1.83 0 0 0 1.09.337Zm7.395 1c-.585 0-1.12-.165-1.607-.495-.479-.33-.861-.794-1.146-1.393-.284-.607-.427-1.318-.427-2.134 0-.817.139-1.524.416-2.124.284-.599.666-1.06 1.146-1.381a2.734 2.734 0 0 1 1.584-.495c.592 0 1.127.165 1.606.495.48.322.858.782 1.135 1.381.285.6.427 1.311.427 2.135 0 .816-.142 1.528-.427 2.134-.277.6-.655 1.064-1.135 1.394a2.728 2.728 0 0 1-1.572.483Zm-.023-1a1.78 1.78 0 0 0 1.079-.337c.314-.232.561-.573.741-1.023.18-.449.27-1.003.27-1.662 0-.66-.09-1.21-.27-1.652-.18-.45-.427-.786-.741-1.01a1.788 1.788 0 0 0-1.09-.35 1.77 1.77 0 0 0-1.079.35c-.314.224-.561.56-.741 1.01-.172.442-.259.993-.259 1.652 0 .659.087 1.213.259 1.662.18.45.427.79.741 1.023.315.224.678.337 1.09.337Zm7.395 1a2.8 2.8 0 0 1-1.606-.495c-.48-.33-.862-.794-1.146-1.393-.285-.607-.427-1.318-.427-2.134 0-.817.138-1.524.415-2.124.285-.599.667-1.06 1.146-1.381a2.738 2.738 0 0 1 1.584-.495 2.77 2.77 0 0 1 1.607.495c.479.322.857.782 1.135 1.381.284.6.426 1.311.426 2.135 0 .816-.142 1.528-.426 2.134-.278.6-.656 1.064-1.135 1.394a2.729 2.729 0 0 1-1.573.483Zm-.022-1a1.78 1.78 0 0 0 1.078-.337c.315-.232.562-.573.742-1.023.179-.449.269-1.003.269-1.662 0-.66-.09-1.21-.269-1.652-.18-.45-.427-.786-.742-1.01a1.786 1.786 0 0 0-1.09-.35c-.404 0-.764.117-1.078.35-.315.224-.562.56-.742 1.01-.172.442-.258.993-.258 1.652 0 .659.086 1.213.258 1.662.18.45.427.79.742 1.023a1.83 1.83 0 0 0 1.09.337Zm5.631.887v-7.796h1.045v7.796h-1.045Zm-1.595-6.853v-.943h2.527v.943h-2.527Z" opacity=".8"/><path fill="#404040" d="M267.875 113.421c-.498 0-.96-.089-1.386-.266a3.48 3.48 0 0 1-1.101-.757 3.462 3.462 0 0 1-.727-1.13 3.739 3.739 0 0 1-.256-1.386c0-.492.085-.95.256-1.376.17-.433.412-.81.727-1.131a3.496 3.496 0 0 1 1.101-.757 3.474 3.474 0 0 1 1.386-.275c.557 0 1.039.092 1.445.275.406.184.767.433 1.081.747l-.766.767a2.116 2.116 0 0 0-.748-.521 2.542 2.542 0 0 0-1.012-.187c-.341 0-.652.059-.934.177a2.143 2.143 0 0 0-.737.511 2.266 2.266 0 0 0-.472.777 2.85 2.85 0 0 0-.167.993c0 .36.056.691.167.993.111.301.269.563.472.786.21.216.455.383.737.501s.593.177.934.177c.419 0 .773-.062 1.062-.187.295-.131.544-.308.747-.53l.766.766a3.415 3.415 0 0 1-1.11.757c-.426.184-.915.276-1.465.276Zm5.455 0c-.458 0-.875-.109-1.248-.325a2.546 2.546 0 0 1-.895-.894 2.451 2.451 0 0 1-.324-1.249c0-.459.108-.871.324-1.238.223-.367.521-.659.895-.875.373-.223.79-.334 1.248-.334.466 0 .885.108 1.259.324.373.216.668.511.884.885.223.367.335.779.335 1.238 0 .459-.112.875-.335 1.249a2.468 2.468 0 0 1-.884.894 2.47 2.47 0 0 1-1.259.325Zm0-1.042c.269 0 .505-.059.708-.177.21-.125.37-.295.482-.512.118-.216.177-.462.177-.737 0-.275-.059-.517-.177-.727a1.33 1.33 0 0 0-1.19-.678 1.36 1.36 0 0 0-.707.186 1.28 1.28 0 0 0-.482.492c-.111.21-.167.452-.167.727 0 .275.056.521.167.737.118.217.278.387.482.512.209.118.445.177.707.177Zm5.313 1.042c-.4 0-.757-.089-1.071-.266a1.94 1.94 0 0 1-.728-.727 2.24 2.24 0 0 1-.255-1.082v-2.742h1.081v2.693c0 .23.036.426.108.59a.86.86 0 0 0 .334.364c.151.085.328.128.531.128.315 0 .554-.092.718-.276.17-.19.255-.458.255-.806v-2.693h1.082v2.742c0 .413-.089.777-.266 1.092-.17.308-.409.55-.717.727-.308.17-.665.256-1.072.256Zm6.376-.099v-2.723c0-.314-.102-.573-.305-.776-.196-.203-.452-.305-.766-.305-.21 0-.397.046-.561.138a.973.973 0 0 0-.383.383 1.126 1.126 0 0 0-.138.56l-.422-.236c0-.36.078-.678.235-.953.158-.282.374-.501.649-.659.282-.164.597-.245.944-.245.354 0 .668.091.944.275.275.177.491.409.648.698.158.282.236.576.236.884v2.959h-1.081Zm-3.234 0v-4.718h1.081v4.718h-1.081Zm6.074 0v-6.684h1.081v6.684h-1.081Zm-1.13-3.735v-.983h3.342v.983h-3.342Zm4.128 3.735v-4.718h1.081v4.718h-1.081Zm1.081-2.624-.374-.187c0-.596.131-1.078.394-1.445.268-.374.671-.56 1.209-.56.236 0 .449.042.639.127.19.086.367.223.53.413l-.707.728a.753.753 0 0 0-.285-.197 1.04 1.04 0 0 0-.364-.059 1.03 1.03 0 0 0-.747.285c-.197.19-.295.488-.295.895Zm4.378 2.673-2.015-4.767h1.189l1.377 3.499h-.344l1.454-3.499h1.2l-2.192 4.767h-.669Zm-1.406 1.917 1.465-3.018.61 1.101-.875 1.917h-1.2Z" opacity=".8"/><rect width="200.111" height="33.958" x="264.353" y="123.291" stroke="#CCC" stroke-width=".702" rx="2.458"/><g fill-rule="evenodd" clip-path="url(#c)" clip-rule="evenodd"><path fill="#BD3D44" d="M272.428 133.248h26.681v1.083h-26.681v-1.083Zm0 2.162h26.681v1.083h-26.681v-1.083Zm0 2.159h26.681v1.083h-26.681v-1.083Zm0 2.159h26.681v1.083h-26.681v-1.083Zm0 2.165h26.681v1.077h-26.681v-1.077Zm0 2.156h26.681v1.083h-26.681v-1.083Zm0 2.159h26.681v1.083h-26.681v-1.083Z"/><path fill="#fff" d="M272.428 134.33h26.681v1.08h-26.681v-1.08Zm0 2.159h26.681v1.08h-26.681v-1.08Zm0 2.159h26.681v1.083h-26.681v-1.083Zm0 2.162h26.681v1.083h-26.681v-1.083Zm0 2.159h26.681v1.083h-26.681v-1.083Zm0 2.159h26.681v1.083h-26.681v-1.083Z"/><path fill="#192F5D" d="M272.428 133.248H283.1v7.563h-10.672v-7.563Z"/><path fill="#fff" d="m273.317 133.57.099.302h.31l-.251.184.096.301-.254-.187-.252.184.094-.298-.255-.184h.319l.094-.302Zm1.779 0 .096.302h.316l-.254.184.093.301-.251-.187-.255.184.097-.298-.252-.184h.31l.1-.302Zm1.778 0 .097.302h.313l-.252.184.097.301-.255-.187-.254.184.096-.298-.254-.184h.316l.096-.302Zm1.779 0 .097.302h.316l-.255.184.097.301-.255-.187-.254.184.099-.298-.257-.184h.313l.099-.302Zm1.779 0 .096.302h.313l-.251.184.096.301-.254-.187-.255.184.097-.298-.252-.184h.313l.097-.302Zm1.779 0 .096.302h.316l-.257.184.099.301-.254-.187-.255.184.1-.298-.258-.184h.316l.097-.302Zm-8.005.761.097.298h.319l-.255.182.094.301-.249-.184-.254.184.09-.301-.246-.182h.313l.091-.298Zm1.779 0 .099.298h.313l-.257.182.099.301-.254-.184-.255.184.097-.301-.255-.182h.316l.097-.298Zm1.779 0 .096.298h.316l-.254.182.096.301-.254-.184-.255.184.097-.301-.252-.182h.31l.1-.298Zm1.778 0 .1.298h.313l-.257.182.099.301-.255-.184-.251.184.094-.301-.255-.182h.319l.093-.298Zm1.779 0 .097.298h.316l-.255.182.097.301-.255-.184-.254.184.096-.301-.251-.182h.313l.096-.298Zm-8.004.749.099.304h.31l-.251.185.096.298-.254-.184-.252.184.094-.298-.255-.185h.319l.094-.304Zm1.779 0 .096.304h.316l-.254.185.093.298-.251-.184-.255.184.097-.301-.252-.185h.31l.1-.301Zm1.778 0 .097.301h.313l-.252.185.097.298-.255-.184-.254.184.096-.301-.254-.185h.316l.096-.298Zm1.779 0 .097.301h.316l-.255.185.097.298-.255-.184-.254.184.099-.301-.257-.185h.313l.099-.298Zm1.779 0 .096.301h.313l-.251.185.096.298-.254-.184-.255.184.097-.301-.252-.185h.313l.097-.298Zm1.779 0 .096.301h.316l-.257.185.099.298-.254-.184-.255.184.1-.301-.258-.185h.316l.097-.298Zm-8.005.761.097.298h.319l-.255.184.097.302-.255-.188-.254.185.096-.299-.251-.184h.313l.093-.298Zm1.779 0 .099.298h.313l-.257.184.099.302-.254-.188-.255.185.097-.299-.255-.184h.316l.097-.298Zm1.779 0 .096.298h.316l-.254.184.096.302-.254-.188-.255.185.097-.299-.252-.184h.31l.1-.298Zm1.778 0 .1.298h.313l-.255.184.097.302-.255-.188-.251.185.094-.299-.255-.184h.319l.093-.298Zm1.779 0 .097.298h.316l-.255.184.097.302-.255-.188-.254.185.096-.299-.251-.184h.313l.096-.298Zm-8.004.757.099.299h.31l-.251.184.096.301-.254-.187-.252.184.094-.298-.255-.184h.319l.094-.299Zm1.779 0 .096.299h.316l-.254.184.093.298-.251-.184-.255.184.097-.298-.252-.184h.31l.1-.299Zm1.778 0 .097.299h.313l-.252.184.097.301-.255-.187-.254.184.096-.298-.254-.184h.316l.096-.299Zm1.779 0 .097.299h.316l-.255.184.097.301-.255-.187-.254.184.099-.298-.257-.184h.313l.099-.299Zm1.779 0 .096.299h.313l-.251.184.096.301-.254-.187-.255.184.097-.298-.252-.184h.313l.097-.299Zm1.779 0 .096.299h.316l-.257.184.099.301-.254-.187-.255.184.097-.298-.258-.184h.316l.1-.299Zm-8.005.755.097.301h.319l-.255.182.097.301-.255-.187-.254.187.096-.301-.251-.184h.313l.093-.299Zm1.779 0 .099.301h.313l-.257.182.099.301-.254-.187-.255.187.097-.301-.255-.184h.316l.097-.299Zm1.779 0 .096.301h.316l-.254.182.096.301-.254-.187-.255.187.097-.301-.252-.184h.31l.1-.299Zm1.778 0 .1.301h.313l-.255.182.097.301-.255-.187-.251.187.094-.301-.255-.184h.319l.093-.299Zm1.779 0 .097.301h.316l-.255.182.097.301-.255-.187-.254.187.096-.301-.251-.184h.313l.096-.299Zm-8.004.755.099.301h.31l-.251.185.096.295-.254-.181-.252.181.094-.298-.255-.185h.319l.094-.298Zm1.779 0 .096.301h.316l-.254.185.096.295-.254-.181-.255.181.1-.298-.255-.185h.31l.1-.298Zm1.778 0 .097.301h.313l-.252.185.097.295-.255-.181-.254.181.096-.298-.254-.185h.316l.096-.298Zm1.779 0 .097.301h.316l-.255.185.097.295-.255-.181-.254.181.099-.298-.257-.185h.313l.099-.298Zm1.779 0 .096.301h.313l-.251.185.096.295-.254-.181-.255.181.097-.298-.252-.185h.313l.097-.298Zm1.779 0 .096.301h.316l-.257.185.099.295-.254-.181-.255.181.1-.298-.258-.185h.316l.097-.298Zm-8.005.758.097.298h.319l-.255.184.097.302-.255-.188-.254.185.096-.299-.251-.184h.313l.093-.298Zm1.779 0 .099.298h.313l-.257.184.099.302-.254-.188-.255.185.097-.299-.255-.184h.316l.097-.298Zm1.779 0 .096.298h.316l-.254.184.096.302-.254-.188-.255.185.097-.299-.252-.184h.31l.1-.298Zm1.778 0 .1.298h.313l-.255.184.097.302-.255-.188-.251.185.094-.299-.255-.184h.319l.093-.298Zm1.779 0 .097.298h.316l-.255.184.097.302-.255-.188-.254.185.096-.299-.251-.184h.313l.096-.298Zm-8.004.757.099.299h.31l-.251.184.096.299-.254-.185-.252.185.094-.302-.255-.184h.319l.094-.296Zm1.779 0 .096.299h.316l-.254.184.096.299-.254-.185-.255.185.1-.302-.255-.184h.31l.1-.296Zm1.778 0 .097.299h.313l-.246.184.097.299-.255-.185-.254.185.096-.302-.254-.184h.316l.09-.296Zm1.779 0 .097.299h.316l-.255.184.097.299-.255-.185-.254.185.099-.302-.257-.184h.313l.099-.296Zm1.779 0 .096.299h.313l-.251.184.096.299-.254-.185-.255.185.097-.302-.252-.184h.313l.097-.296Zm1.779 0 .096.299h.316l-.257.184.099.299-.254-.185-.255.185.1-.302-.258-.184h.316l.097-.296Z"/></g><path fill="#000" d="M306.274 143.882a3.15 3.15 0 0 1-1.595-.405 3.037 3.037 0 0 1-1.124-1.101 3.15 3.15 0 0 1-.404-1.595v-4.875h1.292v4.864c0 .382.078.715.236 1 .164.277.385.494.662.651.277.15.588.225.933.225.352 0 .663-.075.932-.225.27-.157.483-.374.641-.651.157-.285.236-.614.236-.989v-4.875h1.291v4.886c0 .592-.134 1.12-.404 1.584-.27.465-.637.832-1.101 1.101-.464.27-.996.405-1.595.405Zm8.251-.112v-3.112c0-.36-.116-.656-.349-.888-.224-.232-.516-.348-.876-.348-.24 0-.453.052-.64.157a1.112 1.112 0 0 0-.438.438 1.29 1.29 0 0 0-.158.641l-.483-.27c0-.412.09-.775.27-1.09.18-.322.427-.573.741-.752a2.1 2.1 0 0 1 1.079-.281c.404 0 .764.105 1.078.314.315.202.562.468.742.798.18.322.269.659.269 1.011v3.382h-1.235Zm-3.696 0v-5.393h1.235v5.393h-1.235Zm6.198 0v-5.393h1.236v5.393h-1.236Zm.618-6.382a.72.72 0 0 1-.528-.213.736.736 0 0 1-.202-.528c0-.21.067-.386.202-.528a.72.72 0 0 1 .528-.213c.217 0 .394.071.528.213a.737.737 0 0 1 .203.528c0 .21-.068.386-.203.528a.694.694 0 0 1-.528.213Zm2.824 6.382v-7.64h1.236v7.64h-1.236Zm-1.292-4.27v-1.123h3.82v1.123h-3.82Zm7.07 4.382a2.97 2.97 0 0 1-1.461-.36 2.814 2.814 0 0 1-1.022-1.011 2.819 2.819 0 0 1-.371-1.438c0-.531.124-1.007.371-1.426.247-.427.58-.764 1-1.012.427-.247.898-.37 1.415-.37.502 0 .944.116 1.326.348.389.232.693.55.91.955.225.404.337.865.337 1.382 0 .09-.008.183-.023.281a2.7 2.7 0 0 1-.044.303h-4.427v-1.011h3.786l-.46.404a2.069 2.069 0 0 0-.191-.831 1.2 1.2 0 0 0-.484-.517c-.202-.12-.453-.18-.752-.18a1.6 1.6 0 0 0-.82.203 1.372 1.372 0 0 0-.54.573 1.824 1.824 0 0 0-.191.865c0 .337.068.632.203.887.134.255.325.453.573.596.247.134.531.202.853.202.278 0 .532-.049.764-.146.24-.098.442-.24.607-.427l.786.797a2.52 2.52 0 0 1-.954.697 3.053 3.053 0 0 1-1.191.236Zm5.754 0a2.46 2.46 0 0 1-1.326-.371c-.389-.247-.7-.58-.932-1a3.01 3.01 0 0 1-.337-1.426c0-.532.112-1.008.337-1.427.232-.427.543-.764.932-1.011a2.402 2.402 0 0 1 1.326-.382c.412 0 .775.09 1.089.269.322.173.577.412.764.719.188.307.281.656.281 1.045v1.55c0 .39-.093.738-.281 1.045-.179.307-.43.551-.752.73a2.29 2.29 0 0 1-1.101.259Zm.202-1.168c.307 0 .573-.068.798-.203.232-.142.411-.337.539-.584.127-.247.191-.532.191-.854 0-.322-.064-.606-.191-.854a1.373 1.373 0 0 0-.539-.572 1.456 1.456 0 0 0-.798-.214 1.473 1.473 0 0 0-1.337.786 1.846 1.846 0 0 0-.191.854c0 .322.064.607.191.854.135.247.315.442.539.584.232.135.498.203.798.203Zm2.685 1.056h-1.236v-1.45l.214-1.314-.214-1.303v-4.022h1.236v8.089Zm5.98.112c-.622 0-1.15-.112-1.584-.337a3.615 3.615 0 0 1-1.169-.989l.876-.876c.218.315.476.562.776.741.299.173.681.259 1.146.259.434 0 .778-.09 1.033-.27a.852.852 0 0 0 .393-.741c0-.262-.067-.476-.202-.641a1.511 1.511 0 0 0-.539-.404 4.372 4.372 0 0 0-.73-.292c-.263-.09-.528-.187-.798-.292a3.69 3.69 0 0 1-.73-.416 1.859 1.859 0 0 1-.528-.64c-.135-.262-.202-.596-.202-1 0-.464.112-.858.337-1.18.232-.329.543-.58.932-.752a3.174 3.174 0 0 1 1.303-.259c.517 0 .978.101 1.382.303.412.203.745.461 1 .776l-.876.876a2.296 2.296 0 0 0-.708-.562 1.752 1.752 0 0 0-.832-.191c-.389 0-.696.079-.921.236a.771.771 0 0 0-.326.663c0 .24.068.434.203.584.134.142.31.266.528.371.224.097.468.191.73.281.27.09.535.191.798.303.269.112.513.258.73.438.224.172.404.397.539.674s.202.626.202 1.045c0 .704-.251 1.262-.752 1.674-.495.412-1.165.618-2.011.618Zm4.703-.112v-7.64h1.236v7.64h-1.236Zm-1.292-4.27v-1.123h3.82v1.123h-3.82Zm6.822 4.382c-.487 0-.928-.124-1.325-.371a2.713 2.713 0 0 1-.933-1 3.01 3.01 0 0 1-.337-1.426c0-.532.112-1.008.337-1.427.232-.427.543-.764.933-1.011a2.398 2.398 0 0 1 1.325-.382c.412 0 .775.09 1.09.269.322.173.577.412.764.719.187.307.281.656.281 1.045v1.55c0 .39-.094.738-.281 1.045-.18.307-.431.551-.753.73a2.29 2.29 0 0 1-1.101.259Zm.202-1.168c.457 0 .824-.154 1.101-.461.285-.307.427-.7.427-1.18 0-.322-.063-.606-.191-.854a1.367 1.367 0 0 0-.539-.572 1.456 1.456 0 0 0-.798-.214c-.299 0-.565.071-.797.214a1.46 1.46 0 0 0-.539.572 1.833 1.833 0 0 0-.191.854c0 .322.063.607.191.854.134.247.314.442.539.584.232.135.498.203.797.203Zm1.45 1.056v-1.45l.213-1.314-.213-1.303v-1.326h1.235v5.393h-1.235Zm3.427 0v-7.64h1.236v7.64h-1.236Zm-1.292-4.27v-1.123h3.82v1.123h-3.82Zm7.069 4.382c-.539 0-1.026-.12-1.46-.36a2.806 2.806 0 0 1-1.022-1.011 2.809 2.809 0 0 1-.371-1.438c0-.531.123-1.007.371-1.426.247-.427.58-.764.999-1.012.427-.247.899-.37 1.416-.37.502 0 .944.116 1.326.348.389.232.692.55.91.955.224.404.337.865.337 1.382 0 .09-.008.183-.023.281a2.506 2.506 0 0 1-.045.303h-4.426v-1.011h3.786l-.461.404c-.015-.329-.078-.606-.191-.831a1.191 1.191 0 0 0-.483-.517c-.202-.12-.453-.18-.753-.18-.314 0-.587.068-.82.203a1.363 1.363 0 0 0-.539.573 1.824 1.824 0 0 0-.191.865c0 .337.068.632.202.887.135.255.326.453.573.596.247.134.532.202.854.202.277 0 .532-.049.764-.146.24-.098.442-.24.607-.427l.786.797c-.262.307-.58.54-.955.697a3.046 3.046 0 0 1-1.191.236Zm5.26 0c-.3 0-.588-.038-.865-.112a3.234 3.234 0 0 1-.764-.337 2.634 2.634 0 0 1-.607-.54l.787-.786c.187.217.4.382.64.494.247.105.524.157.831.157.278 0 .487-.041.63-.123a.394.394 0 0 0 .213-.36.433.433 0 0 0-.202-.382 1.865 1.865 0 0 0-.528-.224c-.21-.068-.435-.135-.674-.203a3.716 3.716 0 0 1-.674-.269 1.522 1.522 0 0 1-.517-.483c-.135-.202-.202-.465-.202-.787 0-.344.078-.64.236-.887.164-.247.393-.438.685-.573.3-.135.655-.202 1.067-.202.435 0 .817.078 1.146.236.337.149.618.378.843.685l-.787.786a1.581 1.581 0 0 0-.539-.438 1.59 1.59 0 0 0-.697-.146c-.247 0-.438.038-.572.112-.135.075-.203.184-.203.326 0 .15.068.266.203.349.134.082.307.153.516.213.218.06.442.127.674.202.24.068.465.165.674.292.218.12.394.285.528.495.135.202.203.468.203.797 0 .525-.184.94-.551 1.247-.367.307-.865.461-1.494.461Z" opacity=".8"/><path fill="#000" d="M449.368 141.836a.491.491 0 0 1-.37-.15l-2.629-2.63a.425.425 0 0 1-.125-.305.41.41 0 0 1 .125-.311.417.417 0 0 1 .308-.128c.121 0 .223.043.308.128l2.383 2.383 2.384-2.383a.425.425 0 0 1 .305-.125.41.41 0 0 1 .311.125.417.417 0 0 1 .127.308.418.418 0 0 1-.127.308l-2.629 2.63a.491.491 0 0 1-.371.15Z"/><path fill="#4F4F4F" d="M267.091 186.968c-.614 0-1.138-.113-1.572-.337a3.558 3.558 0 0 1-1.158-.978l.719-.719c.248.345.532.607.854.787.322.172.719.258 1.191.258.464 0 .835-.101 1.112-.303a.964.964 0 0 0 .427-.831c0-.293-.067-.528-.202-.708a1.465 1.465 0 0 0-.551-.438 4.743 4.743 0 0 0-.741-.315c-.27-.097-.539-.198-.809-.303a3.903 3.903 0 0 1-.741-.405 1.909 1.909 0 0 1-.551-.64c-.135-.262-.202-.592-.202-.989 0-.442.105-.816.315-1.123.217-.315.509-.554.876-.719a2.978 2.978 0 0 1 1.258-.258c.509 0 .966.101 1.371.303.404.195.734.453.988.775l-.719.719a2.446 2.446 0 0 0-.752-.607 1.977 1.977 0 0 0-.91-.202c-.42 0-.753.094-1 .281-.247.18-.371.434-.371.764 0 .262.067.476.202.64.143.158.326.292.551.405.224.112.472.217.741.314.277.09.551.191.82.304.27.112.517.254.742.427.224.172.404.396.539.674.142.269.213.61.213 1.022 0 .689-.239 1.228-.719 1.618-.471.389-1.112.584-1.921.584Zm6.03 0c-.435 0-.828-.098-1.18-.292a2.163 2.163 0 0 1-.809-.832 2.495 2.495 0 0 1-.292-1.224v-3.101h1.011v3.056c0 .292.049.547.146.764.105.21.255.371.45.483.194.112.423.168.685.168.397 0 .708-.123.932-.37.225-.255.337-.603.337-1.045v-3.056h1.012v3.101c0 .464-.098.872-.293 1.224-.194.352-.464.63-.808.832-.337.194-.734.292-1.191.292Zm6.455 0a2.44 2.44 0 0 1-1.101-.247 2.089 2.089 0 0 1-.775-.708c-.195-.3-.303-.64-.326-1.022v-1.607c.023-.389.131-.73.326-1.022.202-.3.464-.532.787-.697a2.314 2.314 0 0 1 1.089-.258c.487 0 .925.123 1.315.371.397.247.707.58.932.999.225.42.337.892.337 1.416 0 .524-.112.996-.337 1.415a2.6 2.6 0 0 1-.932 1c-.39.24-.828.36-1.315.36Zm-2.808-.113v-8.021h1.011v3.988l-.191 1.292.191 1.303v1.438h-1.011Zm2.64-.842c.337 0 .633-.079.887-.236a1.72 1.72 0 0 0 .607-.64c.15-.277.225-.596.225-.955 0-.352-.075-.667-.225-.944a1.61 1.61 0 0 0-.607-.64 1.626 1.626 0 0 0-.876-.236 1.65 1.65 0 0 0-.888.236 1.536 1.536 0 0 0-.595.64 2.064 2.064 0 0 0-.213.955c0 .352.067.667.202.944.142.269.341.483.595.64.262.157.558.236.888.236Zm4.554.842v-7.571h1.011v7.571h-1.011Zm-1.314-4.415v-.921h3.639v.921h-3.639Zm6.903 4.528c-.524 0-.996-.124-1.415-.371a2.77 2.77 0 0 1-1-1 2.797 2.797 0 0 1-.371-1.427c0-.516.124-.981.371-1.393.247-.419.58-.752 1-.999a2.725 2.725 0 0 1 1.415-.371c.517 0 .985.123 1.404.371.427.239.764.569 1.012.988.247.42.37.888.37 1.404 0 .525-.123 1-.37 1.427-.248.42-.585.753-1.012 1a2.713 2.713 0 0 1-1.404.371Zm0-.978c.337 0 .637-.078.899-.235.262-.158.468-.371.618-.641a1.95 1.95 0 0 0 .224-.944c0-.344-.078-.651-.235-.921a1.618 1.618 0 0 0-.618-.629 1.66 1.66 0 0 0-.888-.236c-.337 0-.636.079-.899.236-.262.15-.468.36-.617.629-.15.27-.225.577-.225.921 0 .352.075.667.225.944.149.27.355.483.617.641.263.157.562.235.899.235Zm4.581.865v-7.571h1.011v7.571h-1.011Zm-1.314-4.415v-.921h3.64v.921h-3.64Zm6.735 4.528c-.487 0-.929-.12-1.326-.36a2.693 2.693 0 0 1-.944-1 2.955 2.955 0 0 1-.337-1.415c0-.524.113-.996.337-1.416.233-.419.543-.752.933-.999a2.47 2.47 0 0 1 1.337-.371c.404 0 .764.086 1.078.258.322.165.581.397.775.697.195.292.304.633.326 1.022v1.607a2.057 2.057 0 0 1-.326 1.022 1.995 1.995 0 0 1-.763.708 2.326 2.326 0 0 1-1.09.247Zm.168-.955c.502 0 .907-.169 1.214-.506.307-.344.46-.782.46-1.314 0-.367-.071-.685-.213-.955a1.469 1.469 0 0 0-.584-.64 1.65 1.65 0 0 0-.888-.236c-.337 0-.637.078-.899.236a1.692 1.692 0 0 0-.606.651c-.143.27-.214.581-.214.933 0 .359.071.678.214.955a1.681 1.681 0 0 0 1.516.876Zm1.607.842v-1.438l.191-1.303-.191-1.292v-1.303h1.022v5.336h-1.022Zm2.494 0v-8.021h1.011v8.021h-1.011Z"/><path fill="#000" d="M425.441 186.968c-.569 0-1.067-.113-1.494-.337a3.535 3.535 0 0 1-1.124-.978l.708-.707c.24.337.517.603.831.797.315.195.686.292 1.113.292.457 0 .824-.104 1.101-.314.284-.21.427-.502.427-.876 0-.293-.068-.528-.203-.708a1.479 1.479 0 0 0-.539-.438 4.826 4.826 0 0 0-.741-.315c-.27-.097-.54-.198-.809-.303a4.03 4.03 0 0 1-.73-.405 1.795 1.795 0 0 1-.54-.64c-.135-.262-.202-.592-.202-.989 0-.442.105-.816.315-1.123.217-.315.509-.554.876-.719a2.878 2.878 0 0 1 1.236-.258c.472 0 .902.101 1.292.303.389.195.711.453.966.775l-.708.708a2.932 2.932 0 0 0-.73-.629 1.632 1.632 0 0 0-.843-.225c-.434 0-.775.094-1.022.281-.247.187-.371.46-.371.82 0 .262.068.476.202.64.143.158.326.292.551.405.232.112.479.217.741.314.27.09.54.191.809.304.277.112.528.254.753.427.225.172.404.396.539.674.142.269.214.61.214 1.022 0 .689-.236 1.228-.708 1.618-.472.389-1.109.584-1.91.584Zm-.157 1.011v-10.044h.741v10.044h-.741Zm5.447-1.124v-7.796h1.045v7.796h-1.045Zm-1.595-6.852v-.944h2.528v.944h-2.528Zm7.254 6.965c-.585 0-1.12-.165-1.607-.494-.479-.33-.861-.794-1.146-1.394-.284-.606-.427-1.318-.427-2.134 0-.816.139-1.524.416-2.123.285-.6.667-1.06 1.146-1.382a2.73 2.73 0 0 1 1.584-.494c.592 0 1.127.164 1.606.494.48.322.858.782 1.135 1.382.285.599.427 1.31.427 2.134 0 .817-.142 1.528-.427 2.135-.277.599-.655 1.063-1.135 1.393a2.726 2.726 0 0 1-1.572.483Zm-.023-1c.412 0 .772-.112 1.079-.337.314-.232.561-.573.741-1.022.18-.45.27-1.004.27-1.663s-.09-1.21-.27-1.652c-.18-.449-.427-.786-.741-1.011a1.789 1.789 0 0 0-1.09-.348c-.405 0-.764.116-1.079.348-.314.225-.561.562-.741 1.011-.172.442-.258.993-.258 1.652 0 .659.086 1.213.258 1.663.18.449.427.79.741 1.022.315.225.678.337 1.09.337Zm7.395 1c-.584 0-1.12-.165-1.606-.494-.48-.33-.862-.794-1.146-1.394-.285-.606-.427-1.318-.427-2.134 0-.816.138-1.524.415-2.123.285-.6.667-1.06 1.146-1.382a2.735 2.735 0 0 1 1.584-.494c.592 0 1.128.164 1.607.494.479.322.857.782 1.135 1.382.284.599.427 1.31.427 2.134 0 .817-.143 1.528-.427 2.135-.278.599-.656 1.063-1.135 1.393a2.729 2.729 0 0 1-1.573.483Zm-.022-1c.412 0 .771-.112 1.078-.337.315-.232.562-.573.742-1.022.179-.45.269-1.004.269-1.663s-.09-1.21-.269-1.652c-.18-.449-.427-.786-.742-1.011a1.787 1.787 0 0 0-1.09-.348 1.77 1.77 0 0 0-1.078.348c-.315.225-.562.562-.742 1.011-.172.442-.258.993-.258 1.652 0 .659.086 1.213.258 1.663.18.449.427.79.742 1.022.315.225.678.337 1.09.337Zm5.009 1a.714.714 0 0 1-.528-.214.76.76 0 0 1-.202-.528.714.714 0 0 1 .73-.73c.21 0 .382.071.517.214a.68.68 0 0 1 .213.516.74.74 0 0 1-.213.528.679.679 0 0 1-.517.214Zm5.03 0c-.585 0-1.12-.165-1.607-.494-.479-.33-.861-.794-1.146-1.394-.284-.606-.427-1.318-.427-2.134 0-.816.139-1.524.416-2.123.285-.6.667-1.06 1.146-1.382a2.73 2.73 0 0 1 1.584-.494c.592 0 1.127.164 1.606.494.48.322.858.782 1.135 1.382.285.599.427 1.31.427 2.134 0 .817-.142 1.528-.427 2.135-.277.599-.655 1.063-1.135 1.393a2.726 2.726 0 0 1-1.572.483Zm-.023-1c.412 0 .772-.112 1.079-.337.314-.232.561-.573.741-1.022.18-.45.27-1.004.27-1.663s-.09-1.21-.27-1.652c-.18-.449-.427-.786-.741-1.011a1.789 1.789 0 0 0-1.09-.348c-.404 0-.764.116-1.079.348-.314.225-.561.562-.741 1.011-.172.442-.258.993-.258 1.652 0 .659.086 1.213.258 1.663.18.449.427.79.741 1.022.315.225.678.337 1.09.337Zm7.395 1a2.808 2.808 0 0 1-1.606-.494c-.48-.33-.862-.794-1.146-1.394-.285-.606-.427-1.318-.427-2.134 0-.816.138-1.524.416-2.123.284-.6.666-1.06 1.145-1.382a2.736 2.736 0 0 1 1.585-.494c.591 0 1.127.164 1.606.494.479.322.858.782 1.135 1.382.284.599.427 1.31.427 2.134 0 .817-.143 1.528-.427 2.135-.277.599-.656 1.063-1.135 1.393a2.729 2.729 0 0 1-1.573.483Zm-.022-1c.412 0 .771-.112 1.078-.337.315-.232.562-.573.742-1.022.179-.45.269-1.004.269-1.663s-.09-1.21-.269-1.652c-.18-.449-.427-.786-.742-1.011a1.786 1.786 0 0 0-1.089-.348c-.405 0-.764.116-1.079.348-.315.225-.562.562-.741 1.011-.173.442-.259.993-.259 1.652 0 .659.086 1.213.259 1.663.179.449.426.79.741 1.022.315.225.678.337 1.09.337Z"/><path fill="#4F4F4F" d="M266.99 205.068v-7.572h1.056v7.572h-1.056Zm-2.651-6.83v-.966h6.347v.966h-6.347Zm8.214 6.943c-.487 0-.929-.12-1.326-.36a2.69 2.69 0 0 1-.943-1 2.944 2.944 0 0 1-.337-1.415c0-.524.112-.996.337-1.416.232-.419.543-.752.932-1a2.48 2.48 0 0 1 1.337-.37c.405 0 .764.086 1.079.258a2.016 2.016 0 0 1 1.101 1.719v1.606a2.07 2.07 0 0 1-.326 1.023 1.998 1.998 0 0 1-.764.708 2.326 2.326 0 0 1-1.09.247Zm.169-.955c.501 0 .906-.169 1.213-.506.307-.344.461-.782.461-1.314 0-.367-.072-.685-.214-.955a1.463 1.463 0 0 0-.584-.64 1.65 1.65 0 0 0-.888-.236c-.337 0-.636.078-.898.236a1.694 1.694 0 0 0-.607.651c-.142.27-.213.581-.213.933 0 .359.071.677.213.955.15.269.356.483.618.64.262.157.562.236.899.236Zm1.606.842v-1.438l.191-1.303-.191-1.292v-1.303h1.022v5.336h-1.022Zm6 0-1.663-2.336-.191-.18-2.101-2.82h1.225l1.516 2.078.191.158 2.247 3.1h-1.224Zm-4.056 0 2.202-2.966.573.742-1.584 2.224h-1.191Zm3.112-2.527-.584-.719 1.471-2.09h1.18l-2.067 2.809Zm5.407 2.64a2.88 2.88 0 0 1-1.438-.36 2.758 2.758 0 0 1-1.012-1 2.756 2.756 0 0 1-.37-1.426c0-.525.12-.997.359-1.416a2.726 2.726 0 0 1 2.393-1.359c.494 0 .929.112 1.303.337.382.224.678.535.888.932.217.397.326.847.326 1.348a2.784 2.784 0 0 1-.057.54h-4.505v-.843h3.966l-.371.326c0-.36-.063-.663-.191-.91a1.352 1.352 0 0 0-.539-.584c-.232-.143-.513-.214-.842-.214-.345 0-.648.075-.91.225-.262.15-.465.359-.607.629-.142.27-.213.588-.213.955 0 .374.074.704.224.989.15.277.364.494.641.651.277.15.595.225.955.225.299 0 .572-.053.82-.157.254-.105.471-.263.651-.472l.652.662c-.255.3-.569.529-.944.686-.367.157-.76.236-1.179.236Zm5.247 0c-.299 0-.584-.038-.853-.113a3.06 3.06 0 0 1-.731-.337 2.61 2.61 0 0 1-.584-.528l.652-.651c.195.239.419.419.674.539a2.1 2.1 0 0 0 .854.168c.314 0 .558-.052.73-.157a.523.523 0 0 0 .258-.46.526.526 0 0 0-.213-.45 1.522 1.522 0 0 0-.528-.269c-.217-.075-.45-.146-.697-.214a4.208 4.208 0 0 1-.685-.281 1.528 1.528 0 0 1-.539-.46c-.135-.195-.202-.453-.202-.775 0-.323.078-.6.235-.832.158-.239.375-.423.652-.55.285-.128.625-.191 1.022-.191.42 0 .791.075 1.113.224.329.143.599.36.808.652l-.651.652a1.497 1.497 0 0 0-.562-.45 1.68 1.68 0 0 0-.741-.157c-.292 0-.517.052-.674.157a.468.468 0 0 0-.225.416c0 .18.067.318.202.416.135.097.311.179.528.247.225.067.457.138.697.213.239.068.468.161.685.281.217.12.393.281.528.483.142.202.213.468.213.798 0 .502-.179.898-.539 1.191-.352.292-.827.438-1.427.438Zm7.177 1.191a4.7 4.7 0 0 1-1.056-1.281 6.58 6.58 0 0 1-.675-1.652 7.322 7.322 0 0 1-.235-1.865c0-.644.078-1.265.235-1.864.158-.6.382-1.15.675-1.652a4.7 4.7 0 0 1 1.056-1.281l.584.528c-.532.465-.944 1.064-1.236 1.798-.285.734-.427 1.558-.427 2.471 0 .907.142 1.727.427 2.461.292.734.704 1.337 1.236 1.809l-.584.528Zm3.704-1.191a3.471 3.471 0 0 1-1.427-.281 2.853 2.853 0 0 1-1.045-.843l.719-.719c.173.262.409.472.708.629.307.15.648.225 1.022.225.352 0 .66-.067.922-.202.269-.135.479-.322.629-.562.157-.247.236-.539.236-.876 0-.345-.075-.637-.225-.876a1.41 1.41 0 0 0-.607-.54 1.766 1.766 0 0 0-.82-.191c-.307 0-.588.038-.842.113a2.115 2.115 0 0 0-.708.382l.011-.674c.127-.158.274-.285.438-.382.165-.098.352-.173.562-.225a3.05 3.05 0 0 1 .73-.079c.539 0 .996.113 1.371.337.374.225.659.528.854.91.202.382.303.809.303 1.281 0 .494-.124.936-.371 1.326a2.53 2.53 0 0 1-1 .921c-.427.217-.913.326-1.46.326Zm-1.438-3.741-.573-.573.348-3.595h.966l-.393 3.696-.348.472Zm-.011-3.225-.214-.943h4.101v.943h-3.887Zm5.437 6.853 5-7.796h1.022l-4.999 7.796h-1.023Zm4.573.113a1.53 1.53 0 0 1-.798-.214 1.638 1.638 0 0 1-.573-.561 1.56 1.56 0 0 1-.213-.809c0-.292.071-.555.213-.787.142-.239.333-.43.573-.573.24-.142.506-.213.798-.213.292 0 .558.071.797.213.247.143.442.334.584.573.143.232.214.495.214.787 0 .299-.071.569-.214.809a1.644 1.644 0 0 1-.572.561 1.55 1.55 0 0 1-.809.214Zm0-.798a.745.745 0 0 0 .55-.213.8.8 0 0 0 .214-.573.725.725 0 0 0-.225-.551.71.71 0 0 0-.539-.225.713.713 0 0 0-.54.225.746.746 0 0 0-.213.551.8.8 0 0 0 .213.573.733.733 0 0 0 .54.213Zm-3.135-4.067c-.284 0-.546-.071-.786-.213a1.613 1.613 0 0 1-.573-.573 1.539 1.539 0 0 1-.214-.798c0-.299.068-.565.203-.797.142-.233.333-.42.573-.562.239-.142.505-.214.797-.214.3 0 .569.072.809.214.24.142.431.329.573.562.142.232.214.498.214.797 0 .292-.072.558-.214.798-.142.24-.333.43-.573.573a1.52 1.52 0 0 1-.809.213Zm0-.797a.748.748 0 0 0 .551-.214.8.8 0 0 0 .213-.573.743.743 0 0 0-.764-.775.731.731 0 0 0-.539.213c-.135.143-.202.33-.202.562 0 .232.067.423.202.573a.732.732 0 0 0 .539.214Zm6.203 6.853-.584-.528c.532-.472.94-1.075 1.225-1.809.284-.734.427-1.554.427-2.461 0-.913-.143-1.737-.427-2.471-.285-.734-.693-1.333-1.225-1.798l.584-.528a4.7 4.7 0 0 1 1.056 1.281c.292.502.517 1.052.674 1.652.158.599.236 1.22.236 1.864 0 .645-.078 1.266-.236 1.865-.157.6-.382 1.15-.674 1.652a4.7 4.7 0 0 1-1.056 1.281Z"/><path fill="#000" d="M438.014 205.181c-.569 0-1.067-.113-1.494-.337a3.535 3.535 0 0 1-1.124-.978l.708-.707c.24.337.517.602.831.797.315.195.686.292 1.112.292.457 0 .824-.105 1.101-.314.285-.21.427-.502.427-.877 0-.292-.067-.528-.202-.707a1.487 1.487 0 0 0-.539-.438 4.797 4.797 0 0 0-.742-.315 37.873 37.873 0 0 1-.808-.303 4.101 4.101 0 0 1-.731-.405 1.812 1.812 0 0 1-.539-.64c-.135-.262-.202-.592-.202-.989 0-.442.105-.816.314-1.123.218-.315.51-.554.877-.719a2.877 2.877 0 0 1 1.235-.259c.472 0 .903.102 1.292.304.39.194.712.453.967.775l-.708.708a2.932 2.932 0 0 0-.73-.629 1.632 1.632 0 0 0-.843-.225c-.434 0-.775.093-1.022.281-.247.187-.371.46-.371.82 0 .262.067.475.202.64.142.157.326.292.551.405.232.112.479.217.741.314.27.09.539.191.809.303.277.113.528.255.753.427.224.173.404.397.539.674.142.27.213.611.213 1.023 0 .689-.236 1.228-.707 1.618-.472.389-1.109.584-1.91.584Zm-.158 1.011v-10.044h.742v10.044h-.742Zm6.29-1.011a3.466 3.466 0 0 1-1.426-.281 2.853 2.853 0 0 1-1.045-.843l.719-.719c.172.262.408.472.708.629.307.15.648.225 1.022.225.352 0 .659-.067.921-.202.27-.135.48-.322.629-.562a1.59 1.59 0 0 0 .236-.876c0-.345-.075-.637-.224-.876a1.41 1.41 0 0 0-.607-.54 1.769 1.769 0 0 0-.82-.191 2.98 2.98 0 0 0-.843.113 2.115 2.115 0 0 0-.708.382l.012-.674a1.6 1.6 0 0 1 .438-.382c.165-.098.352-.173.562-.225.209-.052.453-.079.73-.079.539 0 .996.113 1.37.337.375.225.659.528.854.91.202.382.304.809.304 1.281 0 .494-.124.936-.371 1.326-.24.389-.573.696-1 .921-.427.217-.914.326-1.461.326Zm-1.438-3.741-.572-.573.348-3.595h.966l-.393 3.696-.349.472Zm-.011-3.225-.213-.943h4.1v.943h-3.887Zm6.052 6.966a.714.714 0 0 1-.528-.214.763.763 0 0 1-.202-.528.7.7 0 0 1 .202-.517.717.717 0 0 1 .528-.213c.21 0 .382.071.517.213a.683.683 0 0 1 .213.517.743.743 0 0 1-.213.528.679.679 0 0 1-.517.214Zm5.03 0c-.585 0-1.12-.165-1.607-.495-.479-.329-.861-.793-1.146-1.393-.284-.606-.427-1.318-.427-2.134 0-.817.139-1.524.416-2.123.285-.6.667-1.06 1.146-1.382a2.732 2.732 0 0 1 1.584-.495c.592 0 1.127.165 1.606.495.48.322.858.782 1.135 1.382.285.599.427 1.31.427 2.134 0 .816-.142 1.528-.427 2.135-.277.599-.655 1.063-1.135 1.393a2.726 2.726 0 0 1-1.572.483Zm-.023-1c.412 0 .772-.112 1.079-.337.314-.232.561-.573.741-1.023.18-.449.27-1.003.27-1.662s-.09-1.21-.27-1.652c-.18-.449-.427-.786-.741-1.011a1.789 1.789 0 0 0-1.09-.348c-.404 0-.764.116-1.079.348-.314.225-.561.562-.741 1.011-.172.442-.258.993-.258 1.652 0 .659.086 1.213.258 1.662.18.45.427.791.741 1.023.315.225.678.337 1.09.337Zm7.395 1a2.802 2.802 0 0 1-1.606-.495c-.48-.329-.862-.793-1.146-1.393-.285-.606-.427-1.318-.427-2.134 0-.817.138-1.524.416-2.123.284-.6.666-1.06 1.145-1.382a2.737 2.737 0 0 1 1.585-.495c.591 0 1.127.165 1.606.495.479.322.858.782 1.135 1.382.284.599.427 1.31.427 2.134 0 .816-.143 1.528-.427 2.135-.277.599-.656 1.063-1.135 1.393a2.729 2.729 0 0 1-1.573.483Zm-.022-1c.412 0 .771-.112 1.078-.337.315-.232.562-.573.742-1.023.179-.449.269-1.003.269-1.662s-.09-1.21-.269-1.652c-.18-.449-.427-.786-.742-1.011a1.786 1.786 0 0 0-1.089-.348c-.405 0-.764.116-1.079.348-.315.225-.562.562-.741 1.011-.173.442-.259.993-.259 1.652 0 .659.086 1.213.259 1.662.179.45.426.791.741 1.023.315.225.678.337 1.09.337Zm-197.127 27.76a5.617 5.617 0 0 1 5.617-5.617h189.579a5.617 5.617 0 0 1 5.618 5.617v23.426a5.617 5.617 0 0 1-5.618 5.617H269.619a5.617 5.617 0 0 1-5.617-5.617v-23.426Z"/><path fill="#fff" d="M345.65 244.188v-1.123h1.966c.269 0 .505-.052.707-.157a1.28 1.28 0 0 0 .495-.461 1.37 1.37 0 0 0 .179-.708c0-.269-.06-.501-.179-.696a1.177 1.177 0 0 0-.495-.461 1.435 1.435 0 0 0-.707-.168h-1.966v-1.124h2.033c.494 0 .936.101 1.326.304.397.202.707.486.932.853.232.367.348.798.348 1.292 0 .495-.116.925-.348 1.292a2.284 2.284 0 0 1-.932.854 2.84 2.84 0 0 1-1.326.303h-2.033Zm-.888 2.966v-7.864h1.292v7.864h-1.292Zm8.595.113c-.486 0-.928-.124-1.325-.371a2.72 2.72 0 0 1-.933-1 3.023 3.023 0 0 1-.337-1.427c0-.531.113-1.007.337-1.426.232-.427.543-.764.933-1.012a2.41 2.41 0 0 1 1.325-.382c.412 0 .776.09 1.09.27.322.172.577.412.764.719.187.307.281.655.281 1.045v1.55c0 .39-.094.738-.281 1.045-.18.307-.431.551-.753.73a2.29 2.29 0 0 1-1.101.259Zm.203-1.169c.456 0 .823-.153 1.101-.46.284-.307.426-.701.426-1.18 0-.322-.063-.607-.19-.854a1.384 1.384 0 0 0-.54-.573 1.458 1.458 0 0 0-.797-.213c-.3 0-.566.071-.798.213a1.476 1.476 0 0 0-.539.573 1.83 1.83 0 0 0-.191.854c0 .322.063.607.191.854.135.247.314.442.539.584.232.135.498.202.798.202Zm1.449 1.056v-1.449l.213-1.314-.213-1.304v-1.325h1.236v5.392h-1.236Zm4.348.056-2.303-5.448h1.36l1.573 3.999h-.394l1.663-3.999h1.371l-2.506 5.448h-.764Zm-1.606 2.191 1.674-3.449.696 1.258-1 2.191h-1.37Zm10.423-2.134c-.569 0-1.067-.113-1.494-.337a3.708 3.708 0 0 1-1.146-.989l.865-.865c.217.315.472.569.764.764.292.195.644.292 1.056.292.434 0 .779-.094 1.033-.281.262-.187.394-.453.394-.798 0-.262-.068-.475-.203-.64a1.5 1.5 0 0 0-.539-.404 4.288 4.288 0 0 0-.73-.292c-.262-.09-.528-.188-.798-.292a3.718 3.718 0 0 1-.73-.416 1.853 1.853 0 0 1-.528-.641c-.135-.262-.202-.595-.202-.999 0-.465.112-.858.337-1.18.232-.33.543-.58.932-.753.39-.172.824-.258 1.303-.258.465 0 .895.101 1.292.303.397.202.723.461.978.775l-.865.865a2.96 2.96 0 0 0-.697-.595 1.396 1.396 0 0 0-.741-.213c-.42 0-.742.082-.966.247-.225.157-.338.397-.338.719a.84.84 0 0 0 .203.584c.142.142.326.266.55.371.225.097.468.191.73.281.27.089.54.191.809.303.27.112.517.258.742.438.224.172.404.397.539.674.142.277.213.625.213 1.045 0 .704-.25 1.262-.752 1.674-.495.412-1.165.618-2.011.618Zm-.18 1.011v-10.111h.899v10.111h-.899Zm5.1-1.124 2.303-3.224.461-.281a1.59 1.59 0 0 1-.292.438 1.058 1.058 0 0 1-.45.292 2.133 2.133 0 0 1-.719.102 2.48 2.48 0 0 1-1.235-.315 2.46 2.46 0 0 1-.899-.899c-.225-.382-.337-.824-.337-1.325 0-.51.123-.974.371-1.393.254-.42.591-.753 1.011-1a2.713 2.713 0 0 1 1.404-.371c.524 0 .996.124 1.416.371.419.239.748.565.988.977.247.404.371.861.371 1.371 0 .719-.251 1.445-.753 2.179l-2.146 3.078h-1.494Zm1.618-3.685a1.431 1.431 0 0 0 1.292-.752 1.59 1.59 0 0 0 .191-.775c0-.3-.064-.566-.191-.798a1.434 1.434 0 0 0-1.292-.753 1.463 1.463 0 0 0-1.303.753 1.635 1.635 0 0 0-.191.798c0 .292.064.554.191.786a1.492 1.492 0 0 0 1.303.741Zm5.926 3.798c-.546 0-1.033-.094-1.46-.281a2.907 2.907 0 0 1-1.079-.843l.877-.876c.157.24.378.431.663.573.292.142.617.213.977.213.329 0 .618-.06.865-.179.247-.12.442-.293.584-.517.142-.225.214-.491.214-.798 0-.322-.072-.588-.214-.797a1.23 1.23 0 0 0-.55-.484 1.616 1.616 0 0 0-.731-.168c-.299 0-.569.034-.808.101a2.065 2.065 0 0 0-.686.36l.034-.809c.12-.158.258-.285.416-.382.157-.105.34-.184.55-.236.21-.053.457-.079.742-.079.554 0 1.018.116 1.393.348.382.233.67.543.865.933.194.382.292.809.292 1.281 0 .509-.128.962-.382 1.359a2.633 2.633 0 0 1-1.034.944c-.442.224-.951.337-1.528.337Zm-1.348-3.696-.707-.708.348-3.573h1.179l-.404 3.719-.416.562Zm-.135-3.124-.224-1.157h4.213v1.157h-3.989Z"/><defs><clipPath id="a"><rect width="202.56" height="237.806" x="33.949" y="92.754" fill="#fff" rx="5.758"/></clipPath><clipPath id="c"><path fill="#fff" d="M272.428 133.248h18.724v14.043h-18.724z"/></clipPath></defs></svg>