<svg xmlns="http://www.w3.org/2000/svg" width="509" height="353" fill="none"><rect width="491.568" height="257.613" x="8.717" y="47.82" fill="#fff" rx="17.525"/><rect width="95.985" height="28.04" x="33.252" y="69.043" fill="#E6E6E6" rx="14.02"/><rect width="55.203" height="21.515" x="36.758" y="72.305" fill="#fff" rx="10.757"/><path fill="#000" d="M48.8 86.563h-.957v-6.174h3.854v.825h-2.896v1.956h2.652v.808h-2.652v2.585Zm5.349-3.838c-.646 0-1.1.492-1.147 1.172h2.25c-.02-.689-.457-1.172-1.103-1.172Zm1.1 2.515h.877c-.129.822-.907 1.408-1.938 1.408-1.323 0-2.123-.894-2.123-2.315 0-1.412.813-2.353 2.084-2.353 1.25 0 2.028.882 2.028 2.246v.317h-3.179v.056c0 .783.47 1.3 1.21 1.3.527 0 .916-.265 1.04-.659Zm3.337 1.4c-1.138 0-1.891-.907-1.891-2.328 0-1.42.753-2.323 1.882-2.323.646 0 1.16.325 1.412.821h.017v-2.42h.929v6.174h-.899v-.766h-.017c-.265.513-.779.843-1.433.843Zm.244-3.873c-.732 0-1.19.6-1.19 1.545 0 .95.458 1.544 1.19 1.544.71 0 1.185-.603 1.185-1.544 0-.933-.475-1.544-1.185-1.544Zm8.467-.86-1.33 4.656h-.908l-1.664-6.174h.997l1.142 4.834h.034l1.305-4.834h.89l1.31 4.834h.034l1.142-4.834h.997l-1.669 6.174h-.903l-1.334-4.656h-.043Zm4.63 4.656V82.06h.923v4.501h-.924Zm.461-5.16a.53.53 0 0 1-.535-.527c0-.295.24-.53.535-.53.3 0 .54.235.54.53 0 .291-.24.527-.54.527Zm1.408 5.16V82.06h.881v.766h.022c.15-.526.552-.838 1.082-.838.133 0 .248.021.317.034v.86a1.323 1.323 0 0 0-.415-.051c-.595 0-.963.398-.963 1.035v2.695h-.924Zm4.56-3.838c-.645 0-1.099.492-1.146 1.172h2.25c-.02-.689-.457-1.172-1.103-1.172Zm1.1 2.515h.877c-.128.822-.907 1.408-1.938 1.408-1.322 0-2.122-.894-2.122-2.315 0-1.412.813-2.353 2.084-2.353 1.249 0 2.028.882 2.028 2.246v.317h-3.18v.056c0 .783.471 1.3 1.212 1.3.526 0 .915-.265 1.04-.659Z"/><path fill="#414141" d="m105.313 86.563-.564-1.67h-2.353l-.565 1.67h-.997l2.229-6.174h1.035l2.229 6.174h-1.014Zm-1.754-5.148-.92 2.709h1.866l-.92-2.709h-.026Zm5.832 5.25c-1.733 0-2.828-1.224-2.828-3.192 0-1.955 1.104-3.187 2.828-3.187 1.399 0 2.456.86 2.618 2.148h-.95c-.171-.792-.83-1.31-1.668-1.31-1.121 0-1.848.92-1.848 2.35 0 1.441.718 2.353 1.852 2.353.86 0 1.472-.441 1.664-1.186h.955c-.236 1.275-1.203 2.024-2.623 2.024Zm8.574-.103h-.958V83.83h-3.171v2.734h-.958V80.39h.958V83h3.171v-2.61h.958v6.174Z"/><rect width="65.04" height="29.02" x="239.594" y="68.553" fill="#E6E6E6" rx="14.51"/><path fill="#414141" d="M255.446 79.154v4.708c0 1.058.668 1.802 1.848 1.802 1.181 0 1.854-.744 1.854-1.802v-4.708h1.145v4.806c0 1.596-1.14 2.726-2.999 2.726-1.858 0-2.998-1.13-2.998-2.727v-4.805h1.15Zm5.884 5.345h1.135c.082.734.795 1.216 1.771 1.216.934 0 1.607-.482 1.607-1.145 0-.575-.406-.919-1.366-1.155l-.96-.23c-1.36-.33-1.992-.966-1.992-1.998 0-1.278 1.114-2.156 2.696-2.156 1.565 0 2.638.878 2.674 2.156h-1.119c-.067-.74-.678-1.186-1.571-1.186-.893 0-1.504.452-1.504 1.109 0 .524.39.832 1.345 1.068l.816.2c1.52.36 2.152.97 2.152 2.054 0 1.386-1.104 2.254-2.86 2.254-1.643 0-2.752-.847-2.824-2.187Zm6.715-5.345h2.614c2.202 0 3.506 1.355 3.506 3.691 0 2.341-1.298 3.718-3.506 3.718h-2.614v-7.41Zm1.151.99v5.422h1.355c1.571 0 2.439-.96 2.439-2.71 0-1.746-.873-2.711-2.439-2.711h-1.355Zm8.481 3.507c0-1.797.473-3.244 1.484-4.497h.976c-.74.862-1.32 2.803-1.32 4.492 0 1.69.58 3.635 1.32 4.498h-.976c-1.011-1.258-1.484-2.706-1.484-4.493Zm6.284 3.615h-.703v-.678c-1.463-.097-2.403-.898-2.408-2.084h1.089c.051.631.544 1.068 1.319 1.155V83.23l-.457-.118c-1.15-.287-1.781-.975-1.781-1.971 0-1.17.847-1.951 2.238-2.08v-.713h.703v.713c1.341.113 2.213.925 2.244 2.06h-1.073c-.02-.58-.488-1.038-1.171-1.125v2.295l.478.108c1.273.318 1.894.96 1.894 2.028 0 1.247-.867 2.033-2.372 2.156v.683Zm1.284-2.737c0-.61-.4-.98-1.284-1.165v2.31c.817-.046 1.284-.467 1.284-1.145Zm-3.127-3.465c0 .554.401.924 1.14 1.078v-2.146c-.657.036-1.14.477-1.14 1.068Zm7.388 2.587c0 2.244-.729 3.558-1.483 4.493h-.976c.514-.596 1.32-2.28 1.32-4.498 0-2.218-.812-3.902-1.32-4.492h.976c.754.93 1.483 2.243 1.483 4.497Z"/><rect width="115.04" height="29.02" x="311.643" y="68.553" fill="#E6E6E6" rx="14.51"/><path fill="#414141" d="M329.318 86.563h-2.973v-7.41h2.957c1.315 0 2.177.73 2.177 1.85 0 .785-.58 1.488-1.319 1.611v.041c1.006.113 1.684.827 1.684 1.813 0 1.304-.95 2.094-2.526 2.094Zm-1.823-6.47v2.213h1.289c.996 0 1.545-.41 1.545-1.145 0-.688-.472-1.068-1.304-1.068h-1.53Zm0 5.53h1.586c1.038 0 1.587-.426 1.587-1.227 0-.801-.565-1.212-1.653-1.212h-1.52v2.439Zm9.837-4.462v5.401h-1.063v-.913h-.025c-.298.647-.847 1.011-1.674 1.011-1.176 0-1.895-.765-1.895-2.002V81.16h1.109v3.281c0 .822.391 1.263 1.156 1.263.801 0 1.283-.554 1.283-1.396V81.16h1.109Zm1.001 1.53c0-.965.853-1.627 2.116-1.627 1.201 0 2.043.672 2.079 1.633h-1.042c-.052-.488-.447-.791-1.068-.791-.601 0-1.001.292-1.001.719 0 .333.267.56.826.698l.909.21c1.088.262 1.499.673 1.499 1.469 0 .986-.919 1.663-2.243 1.663-1.279 0-2.126-.662-2.213-1.653h1.098c.088.519.488.806 1.166.806.667 0 1.078-.277 1.078-.714 0-.344-.205-.534-.77-.677l-.965-.237c-.976-.236-1.469-.744-1.469-1.499Zm5.217 3.871v-5.4h1.109v5.4h-1.109Zm.554-6.191a.637.637 0 0 1-.642-.632c0-.354.288-.636.642-.636.36 0 .647.282.647.636 0 .35-.287.632-.647.632Zm1.689 6.192V81.16h1.058v.904h.026c.292-.616.867-.996 1.699-.996 1.191 0 1.874.76 1.874 1.997v3.496h-1.114v-3.28c0-.811-.38-1.258-1.15-1.258-.781 0-1.284.554-1.284 1.391v3.147h-1.109Zm7.989-4.606c-.775 0-1.319.59-1.376 1.407h2.701c-.026-.827-.55-1.407-1.325-1.407Zm1.32 3.019h1.052c-.154.986-1.088 1.69-2.326 1.69-1.586 0-2.546-1.074-2.546-2.778 0-1.695.975-2.824 2.5-2.824 1.499 0 2.434 1.057 2.434 2.695v.38h-3.815v.067c0 .94.565 1.56 1.453 1.56.631 0 1.099-.318 1.248-.79Zm1.879-2.285c0-.965.852-1.627 2.115-1.627 1.201 0 2.043.672 2.079 1.633h-1.042c-.051-.488-.447-.791-1.068-.791-.601 0-1.001.292-1.001.719 0 .333.267.56.827.698l.908.21c1.089.262 1.5.673 1.5 1.469 0 .986-.919 1.663-2.244 1.663-1.279 0-2.126-.662-2.213-1.653h1.099c.087.519.488.806 1.165.806.668 0 1.078-.277 1.078-.714 0-.344-.205-.534-.77-.677l-.965-.237c-.975-.236-1.468-.744-1.468-1.499Zm5.083 0c0-.965.852-1.627 2.115-1.627 1.201 0 2.043.672 2.079 1.633h-1.042c-.051-.488-.447-.791-1.068-.791-.601 0-1.001.292-1.001.719 0 .333.267.56.826.698l.909.21c1.089.262 1.499.673 1.499 1.469 0 .986-.919 1.663-2.243 1.663-1.279 0-2.126-.662-2.213-1.653h1.099c.087.519.487.806 1.165.806.668 0 1.078-.277 1.078-.714 0-.344-.205-.534-.77-.677l-.965-.237c-.976-.236-1.468-.744-1.468-1.499Zm10.576 3.995c-2.079 0-3.394-1.469-3.394-3.83 0-2.347 1.325-3.825 3.394-3.825 1.679 0 2.947 1.032 3.142 2.577h-1.14c-.205-.95-.996-1.571-2.002-1.571-1.345 0-2.218 1.104-2.218 2.819 0 1.73.863 2.823 2.223 2.823 1.032 0 1.766-.528 1.997-1.422h1.145c-.282 1.53-1.442 2.429-3.147 2.429Zm4.092-.124v-7.408h1.099v2.91h.025c.298-.63.889-.995 1.71-.995 1.186 0 1.895.79 1.895 2.013v3.48h-1.115v-3.265c0-.796-.4-1.273-1.18-1.273-.822 0-1.325.565-1.325 1.417v3.121h-1.109Zm8.061-4.605c-.776 0-1.32.59-1.376 1.407h2.7c-.025-.827-.549-1.407-1.324-1.407Zm1.319 3.019h1.053c-.154.986-1.089 1.69-2.326 1.69-1.587 0-2.547-1.074-2.547-2.778 0-1.695.976-2.824 2.501-2.824 1.499 0 2.433 1.057 2.433 2.695v.38h-3.814v.067c0 .94.564 1.56 1.452 1.56.632 0 1.099-.318 1.248-.79Zm6.613-1.956h-1.058c-.113-.575-.544-1.032-1.268-1.032-.857 0-1.422.714-1.422 1.874 0 1.186.57 1.874 1.432 1.874.683 0 1.13-.375 1.258-1.001h1.068c-.118 1.15-1.037 1.93-2.336 1.93-1.545 0-2.552-1.058-2.552-2.803 0-1.715 1.007-2.798 2.542-2.798 1.391 0 2.238.893 2.336 1.956Zm1.956.457 2.182-2.316h1.304l-2.238 2.326 2.325 3.076h-1.288l-1.833-2.398-.462.457v1.94h-1.109v-7.408h1.109v4.323h.01Zm4.184 3.085v-5.4h1.109v5.4h-1.109Zm.555-6.191a.637.637 0 0 1-.642-.632c0-.354.288-.636.642-.636a.64.64 0 0 1 .647.636c0 .35-.288.632-.647.632Zm1.689 6.192V81.16h1.058v.904h.025c.293-.616.868-.996 1.7-.996 1.191 0 1.874.76 1.874 1.997v3.496h-1.114v-3.28c0-.811-.38-1.258-1.15-1.258-.781 0-1.284.554-1.284 1.391v3.147h-1.109Zm8.03-.899c.868 0 1.438-.703 1.438-1.817 0-1.11-.57-1.838-1.438-1.838-.852 0-1.407.713-1.407 1.838 0 1.129.555 1.817 1.407 1.817Zm.01 2.932c-1.273 0-2.218-.678-2.356-1.612h1.114c.159.451.652.75 1.283.75.868 0 1.381-.494 1.381-1.233v-.888h-.02c-.303.585-.94.97-1.71.97-1.355 0-2.243-1.058-2.243-2.742 0-1.699.883-2.767 2.269-2.767.765 0 1.391.385 1.72 1.011h.02v-.924h1.079v5.304c0 1.289-.997 2.13-2.537 2.13Z"/><rect width="42.059" height="28.04" x="433.693" y="69.043" fill="#E6E6E6" rx="14.02"/><path fill="#414141" d="M453.005 86.276c-.295 0-.545-.102-.749-.307a1.017 1.017 0 0 1-.307-.749v-6.65c0-.295.102-.545.307-.75a1.02 1.02 0 0 1 .749-.306h4.898c.295 0 .545.102.749.306.205.205.307.455.307.75v6.65c0 .295-.102.545-.307.75a1.018 1.018 0 0 1-.749.306h-4.898Zm0-.876h4.898a.17.17 0 0 0 .123-.056.17.17 0 0 0 .056-.124v-6.65a.17.17 0 0 0-.056-.124.17.17 0 0 0-.123-.056h-4.898a.173.173 0 0 0-.124.056.173.173 0 0 0-.056.124v6.65c0 .045.019.086.056.124a.173.173 0 0 0 .124.056Zm-2.045 2.92a1.02 1.02 0 0 1-.749-.306 1.021 1.021 0 0 1-.307-.75v-7.088c0-.124.042-.228.126-.312a.424.424 0 0 1 .312-.126c.125 0 .229.042.313.126a.424.424 0 0 1 .126.312v7.089a.17.17 0 0 0 .056.123.17.17 0 0 0 .123.056h5.336a.427.427 0 0 1 .438.438.426.426 0 0 1-.438.439h-5.336Z"/><path fill="#868686" d="M36.769 118.088H33.97v-7.409h2.808c1.268 0 2.126.74 2.126 1.849 0 .77-.565 1.488-1.279 1.617v.041c1.007.128 1.654.837 1.654 1.823 0 1.304-.935 2.079-2.511 2.079Zm-1.874-6.592v2.377h1.386c1.094 0 1.69-.437 1.69-1.238 0-.734-.504-1.139-1.402-1.139h-1.674Zm0 5.776h1.735c1.114 0 1.7-.452 1.7-1.31 0-.857-.606-1.293-1.787-1.293h-1.648v2.603Zm7.434-3.841c-.837 0-1.422.642-1.478 1.53h2.9c-.02-.893-.58-1.53-1.422-1.53Zm1.402 3.127h.878c-.154.934-1.058 1.622-2.223 1.622-1.53 0-2.46-1.062-2.46-2.741 0-1.659.945-2.783 2.419-2.783 1.442 0 2.33 1.047 2.33 2.665v.338h-3.83v.052c0 1.021.601 1.694 1.561 1.694.678 0 1.176-.344 1.325-.847Zm1.848 1.53v-5.34h.842v.853h.02c.298-.575.868-.945 1.695-.945 1.17 0 1.848.755 1.848 1.966v3.466h-.893v-3.307c0-.862-.406-1.334-1.227-1.334-.842 0-1.392.595-1.392 1.499v3.142h-.893Zm7.686-4.657c-.837 0-1.422.642-1.479 1.53h2.901c-.02-.893-.58-1.53-1.422-1.53Zm1.402 3.127h.878c-.154.934-1.058 1.622-2.224 1.622-1.53 0-2.459-1.062-2.459-2.741 0-1.659.945-2.783 2.418-2.783 1.443 0 2.331 1.047 2.331 2.665v.338h-3.83v.052c0 1.021.601 1.694 1.561 1.694.678 0 1.176-.344 1.325-.847Zm2.136 1.53v-4.605h-.745v-.735h.745v-.595c0-1.027.477-1.515 1.463-1.515.2 0 .416.021.544.041v.724a3.038 3.038 0 0 0-.406-.031c-.482 0-.713.257-.713.786v.59h1.093v.735h-1.088v4.605h-.893Zm2.952 0v-5.34h.893v5.34h-.893Zm.446-6.238a.56.56 0 0 1-.554-.555.556.556 0 0 1 1.114 0 .56.56 0 0 1-.56.555Zm6.09 2.649h-.873c-.129-.58-.58-1.058-1.366-1.058-.924 0-1.55.765-1.55 1.977 0 1.243.636 1.977 1.56 1.977.73 0 1.207-.385 1.36-1.027h.879c-.139 1.063-1.032 1.812-2.244 1.812-1.479 0-2.464-1.042-2.464-2.762 0-1.684.98-2.762 2.454-2.762 1.335 0 2.13.883 2.243 1.843Zm.877 3.589v-5.34h.894v5.34h-.894Zm.447-6.238a.56.56 0 0 1-.554-.555.556.556 0 0 1 1.114 0 .56.56 0 0 1-.56.555Zm3.414 5.57c.842 0 1.49-.59 1.49-1.36v-.437l-1.428.088c-.719.046-1.13.364-1.13.867 0 .509.427.842 1.068.842Zm-.2.76c-1.063 0-1.776-.641-1.776-1.602 0-.913.703-1.488 1.935-1.56l1.53-.088v-.446c0-.652-.431-1.043-1.17-1.043-.688 0-1.12.324-1.233.848h-.862c.061-.925.852-1.633 2.115-1.633 1.253 0 2.044.678 2.044 1.74v3.692h-.848v-.919h-.02c-.318.611-.996 1.011-1.715 1.011Zm3.717-.092v-5.34h.842v.873h.02a1.31 1.31 0 0 1 1.295-.965c.154 0 .287.026.359.036v.868a1.777 1.777 0 0 0-.477-.052c-.694 0-1.145.498-1.145 1.253v3.327h-.894Zm3.687 1.997c-.108 0-.288-.01-.385-.031v-.749c.097.02.236.025.349.025.498 0 .775-.241.98-.862l.123-.375-1.971-5.345h.955l1.479 4.447h.015l1.479-4.447h.94l-2.1 5.715c-.458 1.247-.9 1.622-1.864 1.622Zm7.88-1.997H85.2v-7.409h.898l4.056 5.817h.046v-5.817h.914v7.409h-.898l-4.056-5.797h-.046v5.797Zm7.907-.668c.842 0 1.49-.59 1.49-1.36v-.437l-1.428.088c-.719.046-1.13.364-1.13.867 0 .509.427.842 1.068.842Zm-.2.76c-1.063 0-1.776-.641-1.776-1.602 0-.913.703-1.488 1.935-1.56l1.53-.088v-.446c0-.652-.431-1.043-1.17-1.043-.688 0-1.12.324-1.233.848h-.862c.061-.925.852-1.633 2.115-1.633 1.253 0 2.044.678 2.044 1.74v3.692h-.848v-.919h-.02c-.319.611-.996 1.011-1.715 1.011Zm3.717-.092v-5.34h.842v.853h.02c.252-.565.796-.945 1.515-.945.729 0 1.268.37 1.5 1.016h.02c.298-.636.924-1.016 1.674-1.016 1.057 0 1.74.688 1.74 1.746v3.686h-.893v-3.481c0-.729-.406-1.16-1.109-1.16-.709 0-1.207.523-1.207 1.247v3.394h-.893v-3.579c0-.641-.431-1.062-1.093-1.062-.709 0-1.223.554-1.223 1.293v3.348h-.893Zm10.592-4.657c-.837 0-1.422.642-1.479 1.53h2.901c-.02-.893-.58-1.53-1.422-1.53Zm1.402 3.127h.878c-.154.934-1.058 1.622-2.223 1.622-1.53 0-2.46-1.062-2.46-2.741 0-1.659.945-2.783 2.418-2.783 1.443 0 2.331 1.047 2.331 2.665v.338h-3.83v.052c0 1.021.601 1.694 1.561 1.694.678 0 1.176-.344 1.325-.847Z"/><path fill="#000" d="M35.955 139.594h-1.679v-11.113h1.564l5.76 8.194h.062v-8.194h1.679v11.113h-1.556l-5.76-8.187h-.07v8.187Zm12.63-6.908c-1.163 0-1.979.885-2.064 2.11h4.051c-.038-1.24-.824-2.11-1.987-2.11Zm1.98 4.528h1.578c-.23 1.479-1.633 2.534-3.489 2.534-2.38 0-3.82-1.61-3.82-4.167 0-2.541 1.464-4.235 3.751-4.235 2.249 0 3.65 1.586 3.65 4.043v.57h-5.721v.1c0 1.409.847 2.341 2.179 2.341.947 0 1.648-.477 1.872-1.186Zm5.86-.601h-.038l-1.795 2.981H52.79l2.672-4.043-2.633-4.059h1.863l1.772 2.934h.03l1.749-2.934h1.832l-2.656 4.005 2.626 4.097h-1.833l-1.787-2.981Zm5.183-7.039h1.671v1.918h1.54v1.317h-1.54v4.467c0 .7.308 1.016.986 1.016.17 0 .439-.015.547-.038v1.317c-.185.046-.555.077-.924.077-1.64 0-2.28-.624-2.28-2.188v-4.651H60.43v-1.317h1.178v-1.918Zm17.559 5.399c0 3.011-1.779 4.806-4.79 4.806-3.18 0-5.183-2.226-5.183-5.792 0-3.504 1.995-5.691 5.16-5.691 2.472 0 4.343 1.463 4.728 3.681h-1.771c-.416-1.378-1.502-2.172-2.95-2.172-2.125 0-3.404 1.556-3.404 4.167 0 2.657 1.317 4.297 3.435 4.297 1.802 0 3.05-1.155 3.073-2.842v-.192h-2.873v-1.394h4.575v1.132Zm4.875-2.287c-1.163 0-1.98.885-2.064 2.11h4.05c-.038-1.24-.823-2.11-1.986-2.11Zm1.98 4.528H87.6c-.231 1.479-1.633 2.534-3.489 2.534-2.38 0-3.82-1.61-3.82-4.167 0-2.541 1.464-4.235 3.751-4.235 2.249 0 3.65 1.586 3.65 4.043v.57H81.97v.1c0 1.409.847 2.341 2.18 2.341.947 0 1.648-.477 1.871-1.186Zm2.964 2.38v-8.102h1.587v1.355h.038c.44-.924 1.302-1.494 2.55-1.494 1.786 0 2.81 1.14 2.81 2.996v5.245h-1.67v-4.921c0-1.217-.57-1.887-1.726-1.887-1.17 0-1.925.832-1.925 2.087v4.721h-1.664Zm11.983-6.908c-1.162 0-1.979.885-2.064 2.11h4.051c-.038-1.24-.824-2.11-1.987-2.11Zm1.98 4.528h1.578c-.231 1.479-1.632 2.534-3.488 2.534-2.38 0-3.82-1.61-3.82-4.167 0-2.541 1.463-4.235 3.75-4.235 2.249 0 3.651 1.586 3.651 4.043v.57h-5.722v.1c0 1.409.847 2.341 2.179 2.341.947 0 1.648-.477 1.872-1.186Zm2.965 2.38v-8.102h1.586v1.379h.039c.269-.948.993-1.51 1.948-1.51.239 0 .447.039.57.062v1.548c-.131-.054-.424-.093-.747-.093-1.071 0-1.733.716-1.733 1.864v4.852h-1.663Zm7.84-1.179c1.162 0 2.071-.8 2.071-1.856v-.639l-1.994.123c-.994.07-1.556.509-1.556 1.202 0 .708.585 1.17 1.479 1.17Zm-.463 1.317c-1.586 0-2.695-.985-2.695-2.441 0-1.417 1.086-2.287 3.011-2.395l2.218-.131v-.624c0-.901-.608-1.44-1.625-1.44-.962 0-1.563.462-1.709 1.186h-1.572c.093-1.463 1.34-2.541 3.343-2.541 1.964 0 3.219 1.039 3.219 2.664v5.584h-1.594v-1.333h-.039c-.469.901-1.494 1.471-2.557 1.471Zm6.292-10.158h1.672v1.918h1.54v1.317h-1.54v4.467c0 .7.308 1.016.985 1.016.17 0 .439-.015.547-.038v1.317c-.185.046-.554.077-.924.077-1.64 0-2.28-.624-2.28-2.188v-4.651h-1.178v-1.317h1.178v-1.918Zm4.637 10.02v-8.102h1.663v8.102h-1.663Zm.831-9.288a.955.955 0 0 1-.962-.947c0-.532.431-.955.962-.955.539 0 .971.423.971.955a.957.957 0 0 1-.971.947Zm6.015 9.442c-2.318 0-3.843-1.594-3.843-4.205 0-2.603 1.533-4.197 3.843-4.197s3.843 1.594 3.843 4.197c0 2.611-1.525 4.205-3.843 4.205Zm0-1.371c1.309 0 2.149-1.032 2.149-2.834 0-1.795-.847-2.827-2.149-2.827-1.301 0-2.149 1.032-2.149 2.827 0 1.802.848 2.834 2.149 2.834Zm5.129 1.217v-8.102h1.587v1.355h.038c.439-.924 1.302-1.494 2.549-1.494 1.787 0 2.811 1.14 2.811 2.996v5.245h-1.671v-4.921c0-1.217-.57-1.887-1.725-1.887-1.171 0-1.925.832-1.925 2.087v4.721h-1.664Zm13.724 0h-1.725v-11.113h6.939v1.486h-5.214v3.52h4.775v1.455h-4.775v4.652Zm6.569 0v-8.102h1.663v8.102h-1.663Zm.832-9.288a.955.955 0 0 1-.963-.947c0-.532.431-.955.963-.955.539 0 .97.423.97.955a.957.957 0 0 1-.97.947Zm2.533 9.288v-8.102h1.587v1.355h.038c.439-.924 1.302-1.494 2.55-1.494 1.786 0 2.811 1.14 2.811 2.996v5.245h-1.672v-4.921c0-1.217-.57-1.887-1.725-1.887-1.17 0-1.925.832-1.925 2.087v4.721h-1.664Zm11.429-1.179c1.163 0 2.072-.8 2.072-1.856v-.639l-1.995.123c-.993.07-1.555.509-1.555 1.202 0 .708.585 1.17 1.478 1.17Zm-.462 1.317c-1.586 0-2.695-.985-2.695-2.441 0-1.417 1.086-2.287 3.011-2.395l2.218-.131v-.624c0-.901-.609-1.44-1.625-1.44-.963 0-1.564.462-1.71 1.186h-1.571c.093-1.463 1.34-2.541 3.342-2.541 1.964 0 3.22 1.039 3.22 2.664v5.584h-1.595v-1.333h-.038c-.47.901-1.494 1.471-2.557 1.471Zm5.807-.138v-8.102h1.586v1.355h.039c.439-.924 1.301-1.494 2.549-1.494 1.787 0 2.811 1.14 2.811 2.996v5.245h-1.671v-4.921c0-1.217-.57-1.887-1.725-1.887-1.171 0-1.926.832-1.926 2.087v4.721h-1.663Zm15.549-5.314h-1.587c-.169-.863-.816-1.548-1.902-1.548-1.286 0-2.133 1.07-2.133 2.811 0 1.779.855 2.811 2.148 2.811 1.025 0 1.695-.562 1.887-1.502h1.602c-.177 1.725-1.555 2.896-3.504 2.896-2.318 0-3.827-1.587-3.827-4.205 0-2.572 1.509-4.197 3.812-4.197 2.087 0 3.357 1.34 3.504 2.934Zm1.247 5.314v-8.102h1.664v8.102h-1.664Zm.832-9.288a.956.956 0 0 1-.963-.947c0-.532.432-.955.963-.955.539 0 .97.423.97.955a.957.957 0 0 1-.97.947Zm5.368 8.109c1.163 0 2.072-.8 2.072-1.856v-.639l-1.995.123c-.994.07-1.556.509-1.556 1.202 0 .708.586 1.17 1.479 1.17Zm-.462 1.317c-1.587 0-2.696-.985-2.696-2.441 0-1.417 1.086-2.287 3.012-2.395l2.218-.131v-.624c0-.901-.609-1.44-1.625-1.44-.963 0-1.564.462-1.71 1.186h-1.571c.092-1.463 1.34-2.541 3.342-2.541 1.964 0 3.219 1.039 3.219 2.664v5.584h-1.594v-1.333h-.038c-.47.901-1.494 1.471-2.557 1.471Zm5.868-.138v-11.113h1.664v11.113h-1.664Zm11.259 0h-1.725v-9.627h-3.404v-1.486h8.526v1.486h-3.397v9.627Zm6.008-6.908c-1.163 0-1.98.885-2.064 2.11h4.05c-.038-1.24-.824-2.11-1.986-2.11Zm1.979 4.528h1.579c-.232 1.479-1.633 2.534-3.489 2.534-2.38 0-3.82-1.61-3.82-4.167 0-2.541 1.463-4.235 3.751-4.235 2.248 0 3.65 1.586 3.65 4.043v.57h-5.722v.1c0 1.409.847 2.341 2.179 2.341.948 0 1.648-.477 1.872-1.186Zm9.919-2.934h-1.586c-.17-.863-.817-1.548-1.903-1.548-1.286 0-2.133 1.07-2.133 2.811 0 1.779.855 2.811 2.149 2.811 1.024 0 1.694-.562 1.887-1.502h1.601c-.177 1.725-1.555 2.896-3.504 2.896-2.318 0-3.827-1.587-3.827-4.205 0-2.572 1.509-4.197 3.812-4.197 2.087 0 3.358 1.34 3.504 2.934Zm1.255 5.314v-11.113h1.648v4.366h.039c.447-.947 1.332-1.494 2.564-1.494 1.779 0 2.842 1.186 2.842 3.019v5.222h-1.671v-4.898c0-1.194-.601-1.91-1.771-1.91-1.232 0-1.987.847-1.987 2.125v4.683h-1.664Zm8.703 0v-8.102h1.586v1.355h.039c.439-.924 1.301-1.494 2.549-1.494 1.787 0 2.811 1.14 2.811 2.996v5.245h-1.671v-4.921c0-1.217-.57-1.887-1.725-1.887-1.171 0-1.926.832-1.926 2.087v4.721h-1.663Zm12.075.154c-2.318 0-3.843-1.594-3.843-4.205 0-2.603 1.533-4.197 3.843-4.197 2.311 0 3.843 1.594 3.843 4.197 0 2.611-1.525 4.205-3.843 4.205Zm0-1.371c1.31 0 2.149-1.032 2.149-2.834 0-1.795-.847-2.827-2.149-2.827-1.301 0-2.148 1.032-2.148 2.827 0 1.802.847 2.834 2.148 2.834Zm5.191 1.217v-11.113h1.664v11.113h-1.664Zm6.854.154c-2.318 0-3.843-1.594-3.843-4.205 0-2.603 1.533-4.197 3.843-4.197 2.311 0 3.843 1.594 3.843 4.197 0 2.611-1.525 4.205-3.843 4.205Zm0-1.371c1.309 0 2.149-1.032 2.149-2.834 0-1.795-.847-2.827-2.149-2.827-1.301 0-2.148 1.032-2.148 2.827 0 1.802.847 2.834 2.148 2.834Zm8.579-.131c1.302 0 2.157-1.055 2.157-2.726 0-1.664-.855-2.757-2.157-2.757-1.278 0-2.11 1.07-2.11 2.757 0 1.694.832 2.726 2.11 2.726Zm.016 4.397c-1.91 0-3.327-1.016-3.535-2.418h1.671c.239.678.978 1.125 1.925 1.125 1.302 0 2.072-.74 2.072-1.849v-1.332h-.031c-.454.878-1.409 1.456-2.564 1.456-2.033 0-3.366-1.587-3.366-4.113 0-2.549 1.325-4.151 3.404-4.151 1.148 0 2.087.578 2.58 1.517h.031v-1.386h1.617v7.955c0 1.933-1.494 3.196-3.804 3.196Zm6.253-.03c-.131 0-.554-.016-.677-.039v-1.348c.123.031.4.031.539.031.777 0 1.186-.323 1.44-1.155 0-.015.146-.493.146-.501l-2.926-8.109h1.802l2.056 6.592h.023l2.056-6.592h1.756l-3.042 8.525c-.693 1.964-1.486 2.596-3.173 2.596Zm10.104-6.115h1.702c.124 1.101 1.194 1.825 2.657 1.825 1.402 0 2.411-.724 2.411-1.717 0-.863-.609-1.379-2.049-1.733l-1.44-.347c-2.041-.493-2.988-1.448-2.988-2.995 0-1.918 1.671-3.235 4.043-3.235 2.349 0 3.959 1.317 4.013 3.235h-1.679c-.1-1.109-1.017-1.779-2.357-1.779-1.34 0-2.256.677-2.256 1.663 0 .786.585 1.248 2.017 1.602l1.225.3c2.279.539 3.227 1.456 3.227 3.081 0 2.079-1.656 3.381-4.29 3.381-2.464 0-4.128-1.271-4.236-3.281Zm13.262-3.812c-1.163 0-1.979.885-2.064 2.11h4.051c-.039-1.24-.824-2.11-1.987-2.11Zm1.979 4.528h1.579c-.231 1.479-1.633 2.534-3.489 2.534-2.379 0-3.82-1.61-3.82-4.167 0-2.541 1.464-4.235 3.751-4.235 2.249 0 3.65 1.586 3.65 4.043v.57h-5.722v.1c0 1.409.848 2.341 2.18 2.341.947 0 1.648-.477 1.871-1.186Zm2.965 2.38v-8.102h1.587v1.379h.038c.27-.948.994-1.51 1.949-1.51.238 0 .446.039.57.062v1.548c-.131-.054-.424-.093-.747-.093-1.071 0-1.733.716-1.733 1.864v4.852h-1.664Zm12.091-8.102-2.903 8.102h-1.787l-2.919-8.102h1.772l2.033 6.477h.031l2.033-6.477h1.74Zm1.009 8.102v-8.102h1.664v8.102h-1.664Zm.832-9.288a.955.955 0 0 1-.963-.947c0-.532.431-.955.963-.955.539 0 .97.423.97.955a.957.957 0 0 1-.97.947Zm9.488 3.974h-1.587c-.169-.863-.816-1.548-1.902-1.548-1.286 0-2.133 1.07-2.133 2.811 0 1.779.855 2.811 2.149 2.811 1.024 0 1.694-.562 1.886-1.502h1.602c-.177 1.725-1.555 2.896-3.504 2.896-2.318 0-3.827-1.587-3.827-4.205 0-2.572 1.509-4.197 3.812-4.197 2.087 0 3.358 1.34 3.504 2.934Zm4.582-1.594c-1.163 0-1.979.885-2.064 2.11h4.051c-.038-1.24-.824-2.11-1.987-2.11Zm1.979 4.528h1.579c-.231 1.479-1.633 2.534-3.489 2.534-2.379 0-3.819-1.61-3.819-4.167 0-2.541 1.463-4.235 3.75-4.235 2.249 0 3.651 1.586 3.651 4.043v.57h-5.723v.1c0 1.409.848 2.341 2.18 2.341.947 0 1.648-.477 1.871-1.186Zm2.819-3.427c0-1.448 1.278-2.441 3.173-2.441 1.802 0 3.065 1.009 3.119 2.449h-1.563c-.077-.732-.67-1.186-1.602-1.186-.901 0-1.502.439-1.502 1.078 0 .5.4.839 1.24 1.047l1.363.316c1.633.393 2.249 1.009 2.249 2.203 0 1.478-1.379 2.495-3.366 2.495-1.917 0-3.188-.994-3.319-2.48h1.648c.131.778.732 1.209 1.748 1.209 1.002 0 1.618-.416 1.618-1.07 0-.516-.308-.801-1.156-1.017l-1.447-.354c-1.464-.355-2.203-1.117-2.203-2.249Zm11.175-5.306h4.166c2.156 0 3.658 1.486 3.658 3.65 0 2.172-1.532 3.666-3.712 3.666h-2.387v3.797h-1.725v-11.113Zm1.725 1.455v4.413h1.979c1.502 0 2.356-.808 2.356-2.21s-.854-2.203-2.348-2.203h-1.987Zm7.408 9.658v-8.102h1.587v1.379h.038c.27-.948.994-1.51 1.949-1.51.238 0 .446.039.57.062v1.548c-.131-.054-.424-.093-.747-.093-1.071 0-1.733.716-1.733 1.864v4.852h-1.664Zm5.23 0v-8.102h1.663v8.102h-1.663Zm.831-9.288a.955.955 0 0 1-.962-.947c0-.532.431-.955.962-.955.539 0 .971.423.971.955a.957.957 0 0 1-.971.947Zm9.45 1.186-2.904 8.102h-1.786l-2.919-8.102h1.771l2.033 6.477h.031l2.033-6.477h1.741Zm3.619 6.923c1.163 0 2.072-.8 2.072-1.856v-.639l-1.995.123c-.993.07-1.555.509-1.555 1.202 0 .708.585 1.17 1.478 1.17Zm-.462 1.317c-1.586 0-2.695-.985-2.695-2.441 0-1.417 1.086-2.287 3.011-2.395l2.218-.131v-.624c0-.901-.608-1.44-1.625-1.44-.963 0-1.563.462-1.71 1.186h-1.571c.093-1.463 1.34-2.541 3.343-2.541 1.963 0 3.219 1.039 3.219 2.664v5.584h-1.594v-1.333h-.039c-.47.901-1.494 1.471-2.557 1.471Zm6.292-10.158h1.671v1.918h1.541v1.317h-1.541v4.467c0 .7.308 1.016.986 1.016.17 0 .439-.015.547-.038v1.317c-.185.046-.555.077-.924.077-1.641 0-2.28-.624-2.28-2.188v-4.651h-1.178v-1.317h1.178v-1.918Zm7.771 3.112c-1.163 0-1.979.885-2.064 2.11h4.051c-.039-1.24-.824-2.11-1.987-2.11Zm1.979 4.528h1.579c-.231 1.479-1.633 2.534-3.489 2.534-2.38 0-3.82-1.61-3.82-4.167 0-2.541 1.464-4.235 3.751-4.235 2.249 0 3.65 1.586 3.65 4.043v.57h-5.722v.1c0 1.409.847 2.341 2.18 2.341.947 0 1.648-.477 1.871-1.186Zm13.269.886v1.494h-6.9v-11.113h1.725v9.619h5.175Zm1.333 1.494v-8.102h1.663v8.102h-1.663Zm.831-9.288a.955.955 0 0 1-.962-.947c0-.532.431-.955.962-.955.54 0 .971.423.971.955a.957.957 0 0 1-.971.947Zm2.534 9.288v-8.102h1.587v1.363h.038c.362-.901 1.209-1.502 2.303-1.502 1.124 0 1.941.578 2.264 1.587h.038c.416-.986 1.371-1.587 2.527-1.587 1.601 0 2.649 1.063 2.649 2.673v5.568h-1.671v-5.168c0-1.047-.563-1.648-1.548-1.648-.986 0-1.672.732-1.672 1.756v5.06h-1.632v-5.291c0-.932-.593-1.525-1.533-1.525-.986 0-1.686.77-1.686 1.81v5.006h-1.664Zm13.069 0v-8.102h1.664v8.102h-1.664Zm.832-9.288a.956.956 0 0 1-.963-.947c0-.532.432-.955.963-.955.539 0 .97.423.97.955a.957.957 0 0 1-.97.947Zm3.019-.732h1.671v1.918h1.54v1.317h-1.54v4.467c0 .7.308 1.016.986 1.016.169 0 .439-.015.547-.038v1.317c-.185.046-.555.077-.925.077-1.64 0-2.279-.624-2.279-2.188v-4.651h-1.178v-1.317h1.178v-1.918Zm7.77 3.112c-1.162 0-1.979.885-2.063 2.11h4.05c-.038-1.24-.824-2.11-1.987-2.11Zm1.98 4.528h1.578c-.231 1.479-1.632 2.534-3.488 2.534-2.38 0-3.82-1.61-3.82-4.167 0-2.541 1.463-4.235 3.75-4.235 2.249 0 3.651 1.586 3.651 4.043v.57h-5.722v.1c0 1.409.847 2.341 2.179 2.341.948 0 1.648-.477 1.872-1.186Zm6.007 2.518c-2.049 0-3.404-1.632-3.404-4.189 0-2.557 1.355-4.182 3.388-4.182 1.163 0 2.087.585 2.542 1.479h.031v-4.359h1.671v11.113h-1.618v-1.379h-.03c-.478.924-1.402 1.517-2.58 1.517Zm.439-6.969c-1.317 0-2.141 1.078-2.141 2.78 0 1.71.824 2.78 2.141 2.78 1.278 0 2.133-1.086 2.133-2.78 0-1.679-.855-2.78-2.133-2.78Z"/><path fill="#868686" d="m38.787 171.994-.745-2.12h-2.947l-.744 2.12h-.97l2.73-7.409h.915l2.731 7.409h-.97Zm-2.234-6.284-1.186 3.378h2.403l-1.186-3.378h-.03Zm8.246 2.695h-.873c-.128-.58-.58-1.057-1.366-1.057-.924 0-1.55.765-1.55 1.976 0 1.243.636 1.977 1.56 1.977.73 0 1.207-.385 1.361-1.027h.878c-.139 1.063-1.032 1.813-2.244 1.813-1.478 0-2.464-1.043-2.464-2.763 0-1.684.98-2.762 2.454-2.762 1.335 0 2.13.883 2.244 1.843Zm5.267 0h-.872c-.129-.58-.58-1.057-1.366-1.057-.924 0-1.55.765-1.55 1.976 0 1.243.636 1.977 1.56 1.977.73 0 1.207-.385 1.36-1.027h.879c-.139 1.063-1.032 1.813-2.244 1.813-1.479 0-2.464-1.043-2.464-2.763 0-1.684.98-2.762 2.454-2.762 1.335 0 2.13.883 2.243 1.843Zm3.045 3.682c-1.479 0-2.475-1.063-2.475-2.763 0-1.704.996-2.762 2.475-2.762 1.474 0 2.47 1.058 2.47 2.762 0 1.7-.997 2.763-2.47 2.763Zm0-.786c.945 0 1.56-.719 1.56-1.977s-.615-1.976-1.56-1.976c-.945 0-1.566.718-1.566 1.976s.621 1.977 1.566 1.977Zm7.758-4.646v5.339h-.847v-.868h-.02c-.32.617-.874.961-1.695.961-1.166 0-1.849-.755-1.849-1.967v-3.465h.894v3.306c0 .868.406 1.335 1.232 1.335.868 0 1.391-.596 1.391-1.504v-3.137h.894Zm1.16 5.339v-5.339h.842v.852h.02c.298-.575.868-.945 1.695-.945 1.17 0 1.848.755 1.848 1.967v3.465h-.893v-3.306c0-.863-.406-1.335-1.227-1.335-.842 0-1.391.595-1.391 1.499v3.142h-.894Zm5.833-6.628h.893v1.289h1.037v.734h-1.037v3.173c0 .487.205.708.662.708.103 0 .308-.015.37-.025v.749a3.153 3.153 0 0 1-.565.041c-.98 0-1.36-.4-1.36-1.427v-3.219h-.796v-.734h.796v-1.289Zm6.094 6.628h-.914v-7.409h.898l4.056 5.818h.047v-5.818h.913v7.409h-.898l-4.056-5.796h-.046v5.796Zm10.684-5.339v5.339h-.847v-.868h-.02c-.319.617-.873.961-1.695.961-1.165 0-1.848-.755-1.848-1.967v-3.465h.893v3.306c0 .868.406 1.335 1.232 1.335.868 0 1.392-.596 1.392-1.504v-3.137h.893Zm1.16 5.339v-5.339h.842v.852h.021c.252-.565.796-.945 1.515-.945.729 0 1.268.37 1.499 1.017h.02c.298-.637.924-1.017 1.674-1.017 1.058 0 1.74.688 1.74 1.746v3.686h-.893v-3.481c0-.729-.405-1.16-1.109-1.16-.708 0-1.206.524-1.206 1.247v3.394h-.894v-3.578c0-.642-.431-1.063-1.093-1.063-.709 0-1.222.554-1.222 1.294v3.347H85.8Zm11.106.093c-.78 0-1.392-.38-1.736-.996h-.02v.903h-.853v-7.409h.894v2.963h.02c.334-.611.955-.986 1.71-.986 1.345 0 2.254 1.089 2.254 2.762 0 1.679-.904 2.763-2.27 2.763Zm-.175-4.739c-.903 0-1.545.79-1.545 1.976 0 1.191.641 1.977 1.545 1.977.945 0 1.53-.755 1.53-1.977 0-1.211-.585-1.976-1.53-1.976Zm5.494-.011c-.837 0-1.422.642-1.479 1.53h2.901c-.021-.893-.58-1.53-1.422-1.53Zm1.401 3.127h.878c-.154.935-1.057 1.623-2.223 1.623-1.53 0-2.46-1.063-2.46-2.742 0-1.658.946-2.783 2.419-2.783 1.443 0 2.331 1.048 2.331 2.665v.339h-3.83v.051c0 1.022.601 1.694 1.561 1.694.677 0 1.175-.344 1.324-.847Zm1.849 1.53v-5.339h.842v.872h.02c.175-.59.668-.965 1.294-.965.154 0 .288.026.359.036v.868a1.765 1.765 0 0 0-.477-.052c-.693 0-1.145.498-1.145 1.253v3.327h-.893Z"/><path fill="#000" d="M34.022 185.645c0-2.003 1.61-3.466 3.82-3.466 2.118 0 3.697 1.348 3.697 3.111 0 1.294-.694 2.257-2.319 3.92l-2.78 2.796v.038h5.276v1.456h-7.602v-1.171l4.013-4.089c1.355-1.409 1.71-1.995 1.71-2.865 0-.986-.894-1.771-2.049-1.771-1.217 0-2.133.878-2.133 2.033v.023h-1.633v-.015Zm13.239 8.063c-2.48 0-4.205-1.332-4.205-3.212 0-1.417 1-2.549 2.472-2.857v-.038c-1.232-.339-2.026-1.302-2.026-2.495 0-1.687 1.58-2.927 3.759-2.927 2.187 0 3.75 1.232 3.75 2.934 0 1.179-.785 2.134-2.018 2.488v.038c1.479.308 2.472 1.448 2.472 2.857 0 1.887-1.74 3.212-4.204 3.212Zm0-1.386c1.417 0 2.418-.817 2.418-1.949 0-1.147-1.001-1.964-2.418-1.964-1.417 0-2.426.824-2.426 1.964 0 1.132 1.009 1.949 2.426 1.949Zm0-5.299c1.193 0 2.048-.724 2.048-1.733 0-1.016-.847-1.74-2.048-1.74-1.21 0-2.049.724-2.049 1.74 0 1.009.84 1.733 2.049 1.733Zm11.02 6.477v-2.195h-5.56v-1.509c.955-1.795 2.218-3.789 4.72-7.409h2.496v7.47h1.525v1.448h-1.525v2.195H58.28Zm-3.95-3.658v.038h3.965v-6.161h-.03c-1.926 2.781-3.05 4.513-3.936 6.123Zm12.514 3.866c-2.665 0-4.243-2.233-4.243-5.776 0-3.52 1.594-5.753 4.243-5.753 2.657 0 4.228 2.226 4.228 5.745 0 3.543-1.563 5.784-4.228 5.784Zm0-1.448c1.586 0 2.487-1.64 2.487-4.328 0-2.649-.916-4.305-2.487-4.305-1.571 0-2.495 1.663-2.495 4.305 0 2.68.909 4.328 2.495 4.328Zm12.992 1.448c-2.48 0-4.205-1.332-4.205-3.212 0-1.417 1.001-2.549 2.472-2.857v-.038c-1.232-.339-2.025-1.302-2.025-2.495 0-1.687 1.579-2.927 3.758-2.927 2.187 0 3.75 1.232 3.75 2.934 0 1.179-.785 2.134-2.017 2.488v.038c1.479.308 2.472 1.448 2.472 2.857 0 1.887-1.74 3.212-4.205 3.212Zm0-1.386c1.417 0 2.418-.817 2.418-1.949 0-1.147-1-1.964-2.418-1.964-1.417 0-2.426.824-2.426 1.964 0 1.132 1.009 1.949 2.426 1.949Zm0-5.299c1.194 0 2.049-.724 2.049-1.733 0-1.016-.847-1.74-2.049-1.74-1.21 0-2.049.724-2.049 1.74 0 1.009.84 1.733 2.05 1.733Zm11.02 6.477v-2.195h-5.56v-1.509c.955-1.795 2.218-3.789 4.721-7.409h2.495v7.47h1.525v1.448h-1.525v2.195h-1.655Zm-3.95-3.658v.038h3.966v-6.161h-.03c-1.926 2.781-3.05 4.513-3.936 6.123Zm8.926 3.658 4.936-9.619v-.038h-5.86v-1.456h7.562v1.494l-4.829 9.619h-1.81Zm12.445 0v-2.195h-5.56v-1.509c.955-1.795 2.218-3.789 4.72-7.409h2.496v7.47h1.525v1.448h-1.525v2.195h-1.656Zm-3.951-3.658v.038h3.966v-6.161h-.03c-1.926 2.781-3.05 4.513-3.936 6.123Zm15.68 3.866c-2.48 0-4.205-1.332-4.205-3.212 0-1.417 1.001-2.549 2.472-2.857v-.038c-1.232-.339-2.025-1.302-2.025-2.495 0-1.687 1.579-2.927 3.758-2.927 2.187 0 3.751 1.232 3.751 2.934 0 1.179-.786 2.134-2.018 2.488v.038c1.478.308 2.472 1.448 2.472 2.857 0 1.887-1.741 3.212-4.205 3.212Zm0-1.386c1.417 0 2.418-.817 2.418-1.949 0-1.147-1.001-1.964-2.418-1.964-1.417 0-2.426.824-2.426 1.964 0 1.132 1.009 1.949 2.426 1.949Zm0-5.299c1.194 0 2.049-.724 2.049-1.733 0-1.016-.848-1.74-2.049-1.74-1.209 0-2.049.724-2.049 1.74 0 1.009.84 1.733 2.049 1.733Zm5.645-1.378c0-2.003 1.61-3.466 3.82-3.466 2.118 0 3.696 1.348 3.696 3.111 0 1.294-.693 2.257-2.318 3.92l-2.78 2.796v.038h5.276v1.456h-7.602v-1.171l4.013-4.089c1.355-1.409 1.709-1.995 1.709-2.865 0-.986-.893-1.771-2.048-1.771-1.217 0-2.133.878-2.133 2.033v.023h-1.633v-.015Zm12.954 8.063c-1.98 0-3.512-1.186-3.843-2.95h1.732c.262.909 1.109 1.517 2.134 1.517 1.732 0 2.749-1.601 2.749-4.405h-.031c-.446 1.094-1.617 1.818-3.049 1.818-2.111 0-3.689-1.563-3.689-3.674 0-2.225 1.709-3.843 4.058-3.843 1.648 0 2.973.84 3.689 2.334.454.886.686 1.979.686 3.281 0 3.719-1.649 5.922-4.436 5.922Zm.061-5.429c1.363 0 2.38-.979 2.38-2.288a2.326 2.326 0 0 0-2.357-2.349c-1.324 0-2.364 1.025-2.364 2.318 0 1.333.993 2.319 2.341 2.319Zm9.735 5.221 4.936-9.619v-.038h-5.861v-1.456h7.563v1.494l-4.829 9.619h-1.809Zm8.779 0 4.937-9.619v-.038h-5.861v-1.456h7.563v1.494l-4.829 9.619h-1.81Zm12.445 0v-2.195h-5.56v-1.509c.955-1.795 2.218-3.789 4.721-7.409h2.495v7.47h1.525v1.448h-1.525v2.195h-1.656Zm-3.95-3.658v.038h3.966v-6.161h-.031c-1.925 2.781-3.05 4.513-3.935 6.123Z"/><path fill="#868686" d="M254.83 165.407v2.839h1.772c.95 0 1.489-.513 1.489-1.422 0-.888-.575-1.417-1.53-1.417h-1.731Zm0 3.656v2.931h-.924v-7.409h2.778c1.427 0 2.362.873 2.362 2.208 0 1.032-.56 1.833-1.489 2.126l1.715 3.075h-1.084l-1.586-2.931h-1.772Zm7.455 3.024c-1.478 0-2.474-1.063-2.474-2.763 0-1.704.996-2.762 2.474-2.762 1.474 0 2.47 1.058 2.47 2.762 0 1.7-.996 2.763-2.47 2.763Zm0-.786c.945 0 1.561-.719 1.561-1.977s-.616-1.976-1.561-1.976c-.944 0-1.566.718-1.566 1.976s.622 1.977 1.566 1.977Zm7.758-4.646v5.339h-.847v-.868h-.021c-.318.617-.872.961-1.694.961-1.165 0-1.848-.755-1.848-1.967v-3.465h.893v3.306c0 .868.406 1.335 1.232 1.335.868 0 1.392-.596 1.392-1.504v-3.137h.893Zm1.448-1.289h.893v1.289h1.037v.734h-1.037v3.173c0 .487.206.708.663.708.102 0 .308-.015.369-.025v.749a3.153 3.153 0 0 1-.565.041c-.98 0-1.36-.4-1.36-1.427v-3.219h-.796v-.734h.796v-1.289Zm2.932 6.628v-5.339h.893v5.339h-.893Zm.446-6.238a.555.555 0 0 1 0-1.109c.308 0 .56.247.56.555a.56.56 0 0 1-.56.554Zm1.653 6.238v-5.339h.842v.852h.021c.298-.575.868-.945 1.694-.945 1.171 0 1.849.755 1.849 1.967v3.465h-.894v-3.306c0-.863-.405-1.335-1.227-1.335-.842 0-1.391.595-1.391 1.499v3.142h-.894Zm7.717-.744c.929 0 1.551-.77 1.551-1.946s-.622-1.956-1.551-1.956c-.919 0-1.52.76-1.52 1.956s.601 1.946 1.52 1.946Zm.031 2.757c-1.176 0-2.105-.663-2.254-1.571h.919c.175.487.703.811 1.371.811.924 0 1.484-.534 1.484-1.33v-.842h-.021c-.328.58-.96.96-1.71.96-1.36 0-2.254-1.073-2.254-2.731 0-1.674.894-2.742 2.275-2.742.755 0 1.381.37 1.735.991h.016v-.898h.852v5.231c0 1.274-.94 2.121-2.413 2.121Zm6.787-2.013h-.914v-7.409h.899l4.056 5.818h.046v-5.818h.914v7.409h-.898l-4.056-5.796h-.047v5.796Zm10.685-5.339v5.339h-.848v-.868h-.02c-.318.617-.873.961-1.694.961-1.166 0-1.849-.755-1.849-1.967v-3.465h.894v3.306c0 .868.405 1.335 1.232 1.335.868 0 1.391-.596 1.391-1.504v-3.137h.894Zm1.16 5.339v-5.339h.842v.852h.02c.252-.565.796-.945 1.515-.945.729 0 1.268.37 1.499 1.017h.021c.298-.637.924-1.017 1.673-1.017 1.058 0 1.741.688 1.741 1.746v3.686h-.893v-3.481c0-.729-.406-1.16-1.109-1.16-.709 0-1.207.524-1.207 1.247v3.394h-.893v-3.578c0-.642-.432-1.063-1.094-1.063-.708 0-1.222.554-1.222 1.294v3.347h-.893Zm11.105.093c-.78 0-1.391-.38-1.735-.996h-.021v.903h-.852v-7.409h.893v2.963h.021c.334-.611.955-.986 1.71-.986 1.345 0 2.253 1.089 2.253 2.762 0 1.679-.903 2.763-2.269 2.763Zm-.174-4.739c-.904 0-1.546.79-1.546 1.976 0 1.191.642 1.977 1.546 1.977.944 0 1.53-.755 1.53-1.977 0-1.211-.586-1.976-1.53-1.976Zm5.493-.011c-.837 0-1.422.642-1.478 1.53h2.9c-.02-.893-.58-1.53-1.422-1.53Zm1.402 3.127h.878c-.154.935-1.058 1.623-2.223 1.623-1.53 0-2.46-1.063-2.46-2.742 0-1.658.945-2.783 2.419-2.783 1.442 0 2.331 1.048 2.331 2.665v.339h-3.831v.051c0 1.022.601 1.694 1.561 1.694.678 0 1.176-.344 1.325-.847Zm1.848 1.53v-5.339h.842v.872h.021c.174-.59.667-.965 1.293-.965.155 0 .288.026.36.036v.868a1.78 1.78 0 0 0-.478-.052c-.693 0-1.145.498-1.145 1.253v3.327h-.893Z"/><path fill="#000" d="M253.958 185.645c0-2.003 1.609-3.466 3.819-3.466 2.118 0 3.697 1.348 3.697 3.111 0 1.294-.693 2.257-2.318 3.92l-2.78 2.796v.038h5.275v1.456h-7.601v-1.171l4.012-4.089c1.356-1.409 1.71-1.995 1.71-2.865 0-.986-.893-1.771-2.048-1.771-1.217 0-2.134.878-2.134 2.033v.023h-1.632v-.015Zm13.238 8.063c-2.48 0-4.205-1.332-4.205-3.212 0-1.417 1.001-2.549 2.472-2.857v-.038c-1.232-.339-2.025-1.302-2.025-2.495 0-1.687 1.579-2.927 3.758-2.927 2.187 0 3.751 1.232 3.751 2.934 0 1.179-.786 2.134-2.018 2.488v.038c1.479.308 2.472 1.448 2.472 2.857 0 1.887-1.74 3.212-4.205 3.212Zm0-1.386c1.417 0 2.418-.817 2.418-1.949 0-1.147-1.001-1.964-2.418-1.964-1.417 0-2.426.824-2.426 1.964 0 1.132 1.009 1.949 2.426 1.949Zm0-5.299c1.194 0 2.049-.724 2.049-1.733 0-1.016-.847-1.74-2.049-1.74-1.209 0-2.048.724-2.048 1.74 0 1.009.839 1.733 2.048 1.733Zm11.021 6.477v-2.195h-5.561v-1.509c.955-1.795 2.218-3.789 4.721-7.409h2.495v7.47h1.525v1.448h-1.525v2.195h-1.655Zm-3.951-3.658v.038h3.966v-6.161h-.031c-1.925 2.781-3.049 4.513-3.935 6.123Zm12.515 3.866c-2.665 0-4.244-2.233-4.244-5.776 0-3.52 1.594-5.753 4.244-5.753 2.656 0 4.228 2.226 4.228 5.745 0 3.543-1.564 5.784-4.228 5.784Zm0-1.448c1.586 0 2.487-1.64 2.487-4.328 0-2.649-.916-4.305-2.487-4.305-1.572 0-2.496 1.663-2.496 4.305 0 2.68.909 4.328 2.496 4.328Zm9.788 1.448c-2.48 0-4.205-1.332-4.205-3.212 0-1.417 1.001-2.549 2.472-2.857v-.038c-1.232-.339-2.025-1.302-2.025-2.495 0-1.687 1.578-2.927 3.758-2.927 2.187 0 3.75 1.232 3.75 2.934 0 1.179-.785 2.134-2.017 2.488v.038c1.478.308 2.472 1.448 2.472 2.857 0 1.887-1.741 3.212-4.205 3.212Zm0-1.386c1.417 0 2.418-.817 2.418-1.949 0-1.147-1.001-1.964-2.418-1.964-1.417 0-2.426.824-2.426 1.964 0 1.132 1.009 1.949 2.426 1.949Zm0-5.299c1.194 0 2.048-.724 2.048-1.733 0-1.016-.847-1.74-2.048-1.74-1.209 0-2.049.724-2.049 1.74 0 1.009.84 1.733 2.049 1.733Zm11.02 6.477v-2.195h-5.56v-1.509c.955-1.795 2.218-3.789 4.721-7.409h2.495v7.47h1.525v1.448h-1.525v2.195h-1.656Zm-3.95-3.658v.038h3.966v-6.161h-.031c-1.925 2.781-3.05 4.513-3.935 6.123Zm8.925 3.658 4.937-9.619v-.038h-5.861v-1.456h7.563v1.494l-4.829 9.619h-1.81Zm12.446 0v-2.195h-5.561v-1.509c.955-1.795 2.218-3.789 4.721-7.409h2.496v7.47h1.524v1.448h-1.524v2.195h-1.656Zm-3.951-3.658v.038h3.966v-6.161h-.031c-1.925 2.781-3.049 4.513-3.935 6.123Zm12.476 3.866c-2.48 0-4.205-1.332-4.205-3.212 0-1.417 1.001-2.549 2.472-2.857v-.038c-1.232-.339-2.025-1.302-2.025-2.495 0-1.687 1.579-2.927 3.758-2.927 2.187 0 3.751 1.232 3.751 2.934 0 1.179-.786 2.134-2.018 2.488v.038c1.478.308 2.472 1.448 2.472 2.857 0 1.887-1.741 3.212-4.205 3.212Zm0-1.386c1.417 0 2.418-.817 2.418-1.949 0-1.147-1.001-1.964-2.418-1.964-1.417 0-2.426.824-2.426 1.964 0 1.132 1.009 1.949 2.426 1.949Zm0-5.299c1.194 0 2.049-.724 2.049-1.733 0-1.016-.848-1.74-2.049-1.74-1.209 0-2.048.724-2.048 1.74 0 1.009.839 1.733 2.048 1.733Z"/><path fill="#868686" d="M36.769 225.898H33.97v-7.408h2.808c1.268 0 2.126.739 2.126 1.848 0 .77-.565 1.489-1.279 1.617v.041c1.007.129 1.654.837 1.654 1.823 0 1.304-.935 2.079-2.511 2.079Zm-1.874-6.592v2.377h1.386c1.094 0 1.69-.436 1.69-1.237 0-.734-.504-1.14-1.402-1.14h-1.674Zm0 5.776h1.735c1.114 0 1.7-.452 1.7-1.309 0-.858-.606-1.294-1.787-1.294h-1.648v2.603Zm7.054.149c.842 0 1.49-.59 1.49-1.361v-.436l-1.428.087c-.719.047-1.13.365-1.13.868 0 .508.426.842 1.068.842Zm-.2.76c-1.063 0-1.776-.642-1.776-1.602 0-.914.703-1.489 1.935-1.561l1.53-.087v-.447c0-.652-.431-1.042-1.17-1.042-.688 0-1.12.323-1.233.847h-.862c.061-.924.852-1.633 2.115-1.633 1.253 0 2.044.678 2.044 1.741v3.691h-.848v-.919h-.02c-.319.611-.996 1.012-1.715 1.012Zm3.717-.093v-5.339h.842v.852h.02c.298-.575.868-.945 1.695-.945 1.17 0 1.848.755 1.848 1.967v3.465h-.893v-3.306c0-.863-.406-1.335-1.227-1.335-.842 0-1.392.596-1.392 1.499v3.142h-.893Zm6.485-2.967 2.361-2.372h1.084l-2.316 2.305 2.388 3.034H54.43l-1.981-2.485-.498.473v2.012h-.894v-7.408h.894v4.441Zm7.383 2.967h-.925v-7.408h.925v7.408Zm1.299 0v-5.339h.842v.852h.02c.298-.575.868-.945 1.694-.945 1.171 0 1.849.755 1.849 1.967v3.465h-.894v-3.306c0-.863-.405-1.335-1.227-1.335-.842 0-1.391.596-1.391 1.499v3.142h-.893Zm5.832 0v-4.605h-.744v-.734h.744v-.596c0-1.027.477-1.514 1.463-1.514.2 0 .416.02.544.041v.724a2.878 2.878 0 0 0-.405-.031c-.483 0-.714.257-.714.785v.591h1.094v.734h-1.089v4.605h-.893Zm4.862.093c-1.478 0-2.474-1.063-2.474-2.762 0-1.705.996-2.763 2.474-2.763 1.474 0 2.47 1.058 2.47 2.763 0 1.699-.996 2.762-2.47 2.762Zm0-.786c.945 0 1.56-.718 1.56-1.976s-.615-1.977-1.56-1.977c-.945 0-1.566.719-1.566 1.977s.621 1.976 1.566 1.976Zm3.373.693v-5.339h.842v.873h.02a1.308 1.308 0 0 1 1.295-.966c.154 0 .287.026.36.036v.868a1.789 1.789 0 0 0-.478-.051c-.694 0-1.145.498-1.145 1.252v3.327H74.7Zm3.245 0v-5.339h.842v.852h.02c.252-.565.796-.945 1.515-.945.73 0 1.268.37 1.5 1.017h.02c.298-.637.924-1.017 1.674-1.017 1.057 0 1.74.688 1.74 1.746v3.686h-.893v-3.481c0-.729-.406-1.16-1.11-1.16-.708 0-1.206.524-1.206 1.248v3.393h-.893v-3.578c0-.642-.431-1.063-1.094-1.063-.708 0-1.222.555-1.222 1.294v3.347h-.893Zm10.212-.667c.842 0 1.489-.59 1.489-1.361v-.436l-1.427.087c-.72.047-1.13.365-1.13.868 0 .508.426.842 1.068.842Zm-.2.76c-1.063 0-1.777-.642-1.777-1.602 0-.914.704-1.489 1.936-1.561l1.53-.087v-.447c0-.652-.431-1.042-1.17-1.042-.689 0-1.12.323-1.233.847h-.862c.061-.924.852-1.633 2.115-1.633 1.253 0 2.043.678 2.043 1.741v3.691h-.847v-.919h-.02c-.319.611-.996 1.012-1.715 1.012Zm4.005-6.721h.893v1.289h1.037v.734h-1.037v3.173c0 .488.205.709.662.709.103 0 .308-.016.37-.026v.749a3.138 3.138 0 0 1-.565.042c-.98 0-1.36-.401-1.36-1.428v-3.219h-.796v-.734h.796v-1.289Zm2.931 6.628v-5.339h.893v5.339h-.893Zm.447-6.238a.558.558 0 0 1-.555-.554.556.556 0 0 1 1.114 0 .56.56 0 0 1-.56.554Zm3.866 6.331c-1.479 0-2.475-1.063-2.475-2.762 0-1.705.996-2.763 2.475-2.763 1.473 0 2.469 1.058 2.469 2.763 0 1.699-.996 2.762-2.47 2.762Zm0-.786c.944 0 1.561-.718 1.561-1.976s-.617-1.977-1.561-1.977c-.945 0-1.566.719-1.566 1.977s.621 1.976 1.566 1.976Zm3.373.693v-5.339h.842v.852h.021c.297-.575.867-.945 1.694-.945 1.17 0 1.848.755 1.848 1.967v3.465h-.893v-3.306c0-.863-.406-1.335-1.227-1.335-.842 0-1.392.596-1.392 1.499v3.142h-.893Z"/><path fill="#000" d="m41.515 247.404-1.016-3.003h-4.236l-1.016 3.003h-1.795l4.013-11.113h1.863l4.013 11.113h-1.826Zm-3.157-9.264-1.656 4.875h3.358l-1.656-4.875h-.046Zm10.666 9.264h-4.459v-11.113h4.436c1.972 0 3.265 1.094 3.265 2.773 0 1.178-.87 2.233-1.979 2.418v.062c1.51.169 2.526 1.24 2.526 2.718 0 1.956-1.425 3.142-3.789 3.142Zm-2.734-9.703v3.319h1.933c1.494 0 2.318-.616 2.318-1.717 0-1.032-.708-1.602-1.956-1.602H46.29Zm0 8.294h2.38c1.556 0 2.38-.639 2.38-1.841 0-1.201-.847-1.817-2.48-1.817h-2.28v3.658Zm12.7 1.594c-3.12 0-5.09-2.202-5.09-5.745 0-3.52 1.986-5.737 5.09-5.737 2.518 0 4.42 1.547 4.713 3.866h-1.71c-.308-1.425-1.494-2.357-3.003-2.357-2.018 0-3.327 1.656-3.327 4.228 0 2.595 1.294 4.236 3.334 4.236 1.548 0 2.65-.794 2.996-2.134h1.718c-.424 2.295-2.164 3.643-4.721 3.643Zm13.939-.185H68.47v-11.113h4.436c1.971 0 3.265 1.094 3.265 2.773 0 1.178-.87 2.233-1.979 2.418v.062c1.51.169 2.526 1.24 2.526 2.718 0 1.956-1.425 3.142-3.789 3.142Zm-2.734-9.703v3.319h1.933c1.494 0 2.318-.616 2.318-1.717 0-1.032-.708-1.602-1.956-1.602h-2.295Zm0 8.294h2.38c1.555 0 2.38-.639 2.38-1.841 0-1.201-.848-1.817-2.48-1.817h-2.28v3.658Zm10.643.231c1.163 0 2.072-.801 2.072-1.856v-.639l-1.995.123c-.993.069-1.555.508-1.555 1.201 0 .709.585 1.171 1.478 1.171Zm-.462 1.317c-1.586 0-2.695-.986-2.695-2.441 0-1.417 1.086-2.288 3.01-2.395l2.219-.131v-.624c0-.901-.608-1.44-1.625-1.44-.963 0-1.563.462-1.71 1.186h-1.57c.092-1.464 1.34-2.542 3.342-2.542 1.963 0 3.219 1.04 3.219 2.665v5.583h-1.594v-1.332h-.039c-.47.901-1.494 1.471-2.557 1.471Zm5.807-.139v-8.101h1.586v1.355h.039c.439-.924 1.301-1.494 2.549-1.494 1.787 0 2.811 1.14 2.811 2.996v5.244h-1.671v-4.921c0-1.217-.57-1.887-1.725-1.887-1.17 0-1.926.832-1.926 2.087v4.721h-1.663Zm10.335-4.628 3.273-3.473h1.956l-3.358 3.488 3.489 4.613h-1.933l-2.75-3.596-.692.685v2.911h-1.664v-11.113h1.664v6.485h.015Z"/><path fill="#545454" d="m34.45 266.908 3.911-7.661v-.024h-4.654v-.958h5.72v1l-3.845 7.643H34.45Zm9.116.144c-2.018 0-3.186-1.737-3.186-4.468 0-2.708 1.18-4.463 3.186-4.463 2.007 0 3.175 1.743 3.175 4.457 0 2.731-1.162 4.474-3.175 4.474Zm0-.94c1.348 0 2.091-1.372 2.091-3.528 0-2.127-.755-3.517-2.09-3.517-1.336 0-2.103 1.402-2.103 3.511 0 2.156.749 3.534 2.102 3.534Zm11.866-6.062-1.994 6.858H52.42l-2.354-8.643h1.126l1.73 7.056h.049l1.946-7.056h1.09l1.947 7.056h.048l1.731-7.056h1.126l-2.354 8.643h-1.018l-1.995-6.858h-.06Zm7.59 6.08c.982 0 1.737-.689 1.737-1.588v-.509l-1.665.102c-.839.054-1.318.425-1.318 1.012 0 .593.497.983 1.246.983Zm-.234.886c-1.24 0-2.072-.749-2.072-1.869 0-1.066.82-1.737 2.258-1.821l1.785-.102v-.521c0-.76-.503-1.216-1.366-1.216-.803 0-1.306.378-1.438.989H60.95c.072-1.078.995-1.905 2.468-1.905 1.462 0 2.384.791 2.384 2.03v4.307h-.988v-1.072h-.024c-.372.713-1.162 1.18-2 1.18Zm4.229-4.618c0-1.066.952-1.827 2.324-1.827 1.288 0 2.234.767 2.282 1.821h-.994c-.072-.599-.557-.971-1.324-.971-.76 0-1.264.378-1.264.923 0 .431.33.719 1.037.898l.964.234c1.258.317 1.713.773 1.713 1.689 0 1.084-1.024 1.851-2.48 1.851-1.366 0-2.318-.743-2.426-1.845h1.042c.114.647.605.994 1.45.994s1.366-.359 1.366-.922c0-.443-.258-.683-.959-.869l-1.096-.281c-1.096-.282-1.635-.845-1.635-1.695Zm5.876 4.51v-8.643h1.042v3.408h.024c.348-.695 1.03-1.102 1.977-1.102 1.366 0 2.192.922 2.192 2.312v4.025h-1.042v-3.833c0-.989-.497-1.582-1.474-1.582-1.036 0-1.677.707-1.677 1.785v3.63h-1.042Zm6.613 0v-6.229h1.042v6.229h-1.042Zm.521-7.278a.651.651 0 0 1-.647-.646.649.649 0 0 1 1.3 0 .653.653 0 0 1-.653.646Zm1.929 7.278v-6.229h.982v.994h.024c.347-.671 1.012-1.102 1.977-1.102 1.365 0 2.156.88 2.156 2.294v4.043h-1.042v-3.857c0-1.007-.473-1.558-1.432-1.558-.982 0-1.623.695-1.623 1.749v3.666h-1.042Zm9.003-.868c1.084 0 1.808-.899 1.808-2.271 0-1.371-.724-2.282-1.808-2.282-1.073 0-1.773.887-1.773 2.282 0 1.396.7 2.271 1.773 2.271Zm.035 3.216c-1.371 0-2.455-.772-2.63-1.833h1.073c.204.569.82.947 1.6.947 1.078 0 1.73-.623 1.73-1.552v-.982h-.023c-.384.677-1.12 1.12-1.995 1.12-1.587 0-2.63-1.252-2.63-3.187 0-1.952 1.043-3.198 2.654-3.198.88 0 1.611.431 2.025 1.156h.017v-1.048h.995v6.103c0 1.486-1.096 2.474-2.816 2.474Zm4.51-10.081h1.043v1.504h1.21v.856h-1.21v3.702c0 .569.24.827.773.827.12 0 .36-.018.431-.03v.874c-.126.03-.413.048-.659.048-1.144 0-1.587-.467-1.587-1.665v-3.756h-.928v-.856h.928v-1.504Zm5.769 7.841c-1.725 0-2.887-1.24-2.887-3.223 0-1.988 1.162-3.222 2.887-3.222 1.719 0 2.881 1.234 2.881 3.222 0 1.983-1.162 3.223-2.881 3.223Zm0-.916c1.102 0 1.821-.839 1.821-2.307 0-1.467-.719-2.306-1.821-2.306-1.102 0-1.827.839-1.827 2.306 0 1.468.725 2.307 1.827 2.307Zm3.936.808v-6.229h.982v.994h.024c.347-.671 1.012-1.102 1.976-1.102 1.366 0 2.157.88 2.157 2.294v4.043h-1.042v-3.857c0-1.007-.474-1.558-1.432-1.558-.982 0-1.623.695-1.623 1.749v3.666h-1.042Zm8.733-2.378h1.084c.102.935.988 1.552 2.222 1.552 1.168 0 2.019-.617 2.019-1.468 0-.731-.509-1.18-1.671-1.479l-1.109-.288c-1.593-.407-2.3-1.108-2.3-2.282 0-1.438 1.258-2.444 3.055-2.444 1.719 0 2.965 1.018 3.013 2.468h-1.078c-.096-.929-.845-1.498-1.971-1.498-1.12 0-1.899.581-1.899 1.426 0 .653.48 1.042 1.654 1.348l.904.239c1.791.45 2.516 1.138 2.516 2.378 0 1.582-1.246 2.57-3.235 2.57-1.833 0-3.102-.994-3.204-2.522Zm9.883-3.959c.905 0 1.617.443 2.019 1.162h.024v-1.054h.994v8.308h-1.042v-3.121h-.024c-.39.713-1.114 1.15-1.995 1.15-1.575 0-2.629-1.27-2.629-3.223 0-1.958 1.054-3.222 2.653-3.222Zm.186 5.529c1.066 0 1.809-.917 1.809-2.307 0-1.389-.743-2.306-1.809-2.306-1.09 0-1.773.881-1.773 2.306 0 1.42.683 2.307 1.773 2.307Zm9.326-5.421v6.229h-.988v-1.012h-.024c-.372.719-1.019 1.12-1.977 1.12-1.36 0-2.156-.88-2.156-2.294v-4.043h1.042v3.857c0 1.012.473 1.558 1.438 1.558 1.012 0 1.623-.695 1.623-1.755v-3.66h1.042Zm3.408 5.451c.983 0 1.737-.689 1.737-1.588v-.509l-1.665.102c-.838.054-1.318.425-1.318 1.012 0 .593.498.983 1.246.983Zm-.233.886c-1.24 0-2.073-.749-2.073-1.869 0-1.066.821-1.737 2.258-1.821l1.785-.102v-.521c0-.76-.503-1.216-1.365-1.216-.803 0-1.306.378-1.438.989h-1.006c.072-1.078.994-1.905 2.468-1.905 1.461 0 2.384.791 2.384 2.03v4.307h-.989v-1.072h-.024c-.371.713-1.162 1.18-2 1.18Zm4.336-.108v-6.229h.983v1.018h.024a1.524 1.524 0 0 1 1.509-1.126c.18 0 .336.03.419.042v1.012c-.083-.03-.305-.06-.557-.06-.808 0-1.335.581-1.335 1.462v3.881h-1.043Zm5.984-5.433c-.976 0-1.659.749-1.725 1.785h3.384c-.023-1.042-.676-1.785-1.659-1.785Zm1.636 3.648h1.024c-.18 1.09-1.234 1.893-2.594 1.893-1.785 0-2.869-1.24-2.869-3.199 0-1.934 1.102-3.246 2.821-3.246 1.683 0 2.72 1.222 2.72 3.109v.395h-4.469v.06c0 1.192.701 1.977 1.821 1.977.791 0 1.372-.402 1.546-.989Zm4.42-.593h1.084c.102.935.989 1.552 2.222 1.552 1.169 0 2.019-.617 2.019-1.468 0-.731-.509-1.18-1.671-1.479l-1.108-.288c-1.594-.407-2.3-1.108-2.3-2.282 0-1.438 1.258-2.444 3.054-2.444 1.72 0 2.965 1.018 3.013 2.468h-1.078c-.096-.929-.844-1.498-1.97-1.498-1.121 0-1.899.581-1.899 1.426 0 .653.479 1.042 1.653 1.348l.904.239c1.791.45 2.516 1.138 2.516 2.378 0 1.582-1.246 2.57-3.234 2.57-1.833 0-3.103-.994-3.205-2.522Zm10.117 2.486c-1.725 0-2.887-1.24-2.887-3.223 0-1.988 1.162-3.222 2.887-3.222 1.719 0 2.881 1.234 2.881 3.222 0 1.983-1.162 3.223-2.881 3.223Zm0-.916c1.102 0 1.821-.839 1.821-2.307 0-1.467-.719-2.306-1.821-2.306-1.102 0-1.827.839-1.827 2.306 0 1.468.725 2.307 1.827 2.307Zm9.051-5.421v6.229h-.989v-1.012h-.024c-.371.719-1.018 1.12-1.976 1.12-1.36 0-2.157-.88-2.157-2.294v-4.043h1.043v3.857c0 1.012.473 1.558 1.437 1.558 1.013 0 1.623-.695 1.623-1.755v-3.66h1.043Zm1.689-1.504h1.042v1.504h1.21v.856h-1.21v3.702c0 .569.24.827.773.827.12 0 .359-.018.431-.03v.874c-.126.03-.413.048-.659.048-1.144 0-1.587-.467-1.587-1.665v-3.756h-.929v-.856h.929v-1.504Zm3.42 7.733v-8.643h1.042v3.408h.024c.348-.695 1.031-1.102 1.977-1.102 1.366 0 2.192.922 2.192 2.312v4.025h-1.042v-3.833c0-.989-.497-1.582-1.473-1.582-1.037 0-1.678.707-1.678 1.785v3.63h-1.042Zm7.272 1.719h-.869l.581-3.049h1.108l-.82 3.049Zm5.546-1.719h-1.066v-8.643h1.048l4.733 6.786h.053v-6.786h1.067v8.643h-1.049l-4.732-6.762h-.054v6.762Zm9.848-5.433c-.977 0-1.659.749-1.725 1.785h3.384c-.024-1.042-.677-1.785-1.659-1.785Zm1.635 3.648h1.024c-.179 1.09-1.234 1.893-2.593 1.893-1.785 0-2.869-1.24-2.869-3.199 0-1.934 1.102-3.246 2.821-3.246 1.683 0 2.719 1.222 2.719 3.109v.395H198.1v.06c0 1.192.701 1.977 1.821 1.977.79 0 1.371-.402 1.545-.989Zm10.081-4.444-1.737 6.229h-1.06l-1.408-4.822h-.024l-1.401 4.822h-1.061l-1.743-6.229h1.037l1.245 5.067h.024l1.408-5.067h1.006l1.414 5.067h.024l1.246-5.067h1.03Zm6.99 6.229h-1.078v-3.72l-3.067-4.923h1.228l2.36 3.881h.036l2.36-3.881h1.228l-3.067 4.923v3.72Zm5.337.108c-1.725 0-2.887-1.24-2.887-3.223 0-1.988 1.162-3.222 2.887-3.222 1.719 0 2.881 1.234 2.881 3.222 0 1.983-1.162 3.223-2.881 3.223Zm0-.916c1.102 0 1.821-.839 1.821-2.307 0-1.467-.719-2.306-1.821-2.306-1.102 0-1.827.839-1.827 2.306 0 1.468.725 2.307 1.827 2.307Zm3.936.808v-6.229h.982v1.018h.024a1.526 1.526 0 0 1 1.509-1.126c.18 0 .336.03.42.042v1.012a2.098 2.098 0 0 0-.557-.06c-.809 0-1.336.581-1.336 1.462v3.881h-1.042Zm4.881-3.462 2.756-2.767h1.264l-2.702 2.689 2.785 3.54h-1.209l-2.313-2.899-.581.551v2.348h-1.042v-8.643h1.042v5.181Zm5.571 5.181h-.869l.581-3.049h1.109l-.821 3.049Zm5.547-1.719h-1.067v-8.643h1.049l4.732 6.786h.054v-6.786h1.066v8.643h-1.048l-4.732-6.762h-.054v6.762Zm10.967 0h-1.078v-3.72l-3.067-4.923h1.228l2.36 3.881h.036l2.36-3.881h1.228l-3.067 4.923v3.72Zm-218.619 15v-7.499h-.024l-2.288 1.647v-1.138l2.3-1.653H37.2v8.643h-1.042Zm6.26.144c-2.02 0-3.187-1.737-3.187-4.468 0-2.708 1.18-4.463 3.187-4.463 2.006 0 3.174 1.743 3.174 4.457 0 2.731-1.162 4.474-3.175 4.474Zm0-.94c1.347 0 2.09-1.372 2.09-3.528 0-2.127-.755-3.517-2.09-3.517-1.336 0-2.103 1.402-2.103 3.511 0 2.156.749 3.534 2.102 3.534Zm7.439.94c-2.019 0-3.187-1.737-3.187-4.468 0-2.708 1.18-4.463 3.187-4.463 2.006 0 3.175 1.743 3.175 4.457 0 2.731-1.163 4.474-3.175 4.474Zm0-.94c1.348 0 2.09-1.372 2.09-3.528 0-2.127-.754-3.517-2.09-3.517-1.336 0-2.102 1.402-2.102 3.511 0 2.156.748 3.534 2.102 3.534Zm6.499.796v-7.499h-.024l-2.288 1.647v-1.138l2.3-1.653h1.054v8.643h-1.042Zm3.18-6.151c0-1.51 1.223-2.636 2.852-2.636 1.545 0 2.761 1.048 2.761 2.372 0 .964-.437 1.683-1.88 3.175l-2.187 2.258v.024h4.21v.958H59.59v-.743l3.042-3.204c1.162-1.222 1.438-1.683 1.438-2.402 0-.833-.76-1.498-1.713-1.498-1.013 0-1.78.731-1.78 1.696v.006h-1.041v-.006Zm7.692 7.87h-.869l.581-3.049h1.108l-.82 3.049Zm5.558-10.362v5.54c0 1.306.857 2.253 2.354 2.253 1.498 0 2.354-.947 2.354-2.253v-5.54h1.079v5.612c0 1.845-1.288 3.175-3.433 3.175-2.144 0-3.432-1.33-3.432-3.175v-5.612h1.078Zm7.302 8.643v-6.229h.982v.994h.024c.348-.671 1.013-1.102 1.977-1.102 1.366 0 2.156.88 2.156 2.294v4.043h-1.042v-3.857c0-1.007-.473-1.558-1.432-1.558-.982 0-1.623.695-1.623 1.749v3.666h-1.042Zm6.523 0v-6.229h1.042v6.229H86.61Zm.521-7.278a.651.651 0 0 1-.647-.646.649.649 0 0 1 1.3 0 .653.653 0 0 1-.653.646Zm2.264-.455h1.043v1.504h1.21v.856h-1.21v3.702c0 .569.239.827.772.827.12 0 .36-.018.431-.03v.874c-.125.03-.413.048-.659.048-1.144 0-1.587-.467-1.587-1.665v-3.756h-.928v-.856h.928v-1.504Zm5.685 2.3c-.977 0-1.66.749-1.725 1.785h3.384c-.024-1.042-.677-1.785-1.66-1.785Zm1.635 3.648h1.024c-.18 1.09-1.234 1.893-2.594 1.893-1.784 0-2.869-1.24-2.869-3.199 0-1.934 1.103-3.246 2.822-3.246 1.683 0 2.719 1.222 2.719 3.109v.395h-4.468v.06c0 1.192.7 1.977 1.82 1.977.791 0 1.372-.402 1.546-.989Zm4.516 1.893c-1.587 0-2.665-1.27-2.665-3.223 0-1.952 1.072-3.222 2.641-3.222.893 0 1.612.437 1.983 1.12h.024v-3.426h1.042v8.643h-.994v-1.054h-.018c-.401.719-1.114 1.162-2.013 1.162Zm.198-5.529c-1.102 0-1.797.899-1.797 2.306 0 1.414.695 2.307 1.797 2.307 1.072 0 1.791-.911 1.791-2.307 0-1.389-.719-2.306-1.791-2.306Zm6.499 3.043h1.084c.102.935.988 1.552 2.222 1.552 1.168 0 2.019-.617 2.019-1.468 0-.731-.509-1.18-1.671-1.479l-1.108-.288c-1.594-.407-2.3-1.108-2.3-2.282 0-1.438 1.257-2.444 3.054-2.444 1.719 0 2.965 1.018 3.013 2.468h-1.078c-.096-.929-.844-1.498-1.971-1.498-1.12 0-1.898.581-1.898 1.426 0 .653.479 1.042 1.653 1.348l.904.239c1.791.45 2.516 1.138 2.516 2.378 0 1.582-1.246 2.57-3.234 2.57-1.833 0-3.103-.994-3.205-2.522Zm7.871-5.355h1.042v1.504h1.21v.856h-1.21v3.702c0 .569.239.827.773.827.119 0 .359-.018.431-.03v.874c-.126.03-.413.048-.659.048-1.144 0-1.587-.467-1.587-1.665v-3.756h-.929v-.856h.929v-1.504Zm5.301 6.955c.982 0 1.737-.689 1.737-1.588v-.509l-1.665.102c-.839.054-1.318.425-1.318 1.012 0 .593.497.983 1.246.983Zm-.234.886c-1.24 0-2.072-.749-2.072-1.869 0-1.066.82-1.737 2.258-1.821l1.785-.102v-.521c0-.76-.503-1.216-1.366-1.216-.803 0-1.306.378-1.437.989h-1.007c.072-1.078.995-1.905 2.468-1.905 1.462 0 2.384.791 2.384 2.03v4.307h-.988v-1.072h-.024c-.372.713-1.162 1.18-2.001 1.18Zm4.672-7.841h1.042v1.504h1.21v.856h-1.21v3.702c0 .569.24.827.773.827.12 0 .36-.018.431-.03v.874c-.125.03-.413.048-.658.048-1.145 0-1.588-.467-1.588-1.665v-3.756h-.928v-.856h.928v-1.504Zm5.685 2.3c-.977 0-1.66.749-1.725 1.785h3.384c-.024-1.042-.677-1.785-1.659-1.785Zm1.635 3.648h1.024c-.18 1.09-1.234 1.893-2.593 1.893-1.785 0-2.87-1.24-2.87-3.199 0-1.934 1.102-3.246 2.822-3.246 1.683 0 2.719 1.222 2.719 3.109v.395h-4.468v.06c0 1.192.7 1.977 1.82 1.977.791 0 1.372-.402 1.546-.989Zm2.048-2.725c0-1.066.953-1.827 2.324-1.827 1.288 0 2.235.767 2.283 1.821h-.995c-.072-.599-.557-.971-1.323-.971-.761 0-1.264.378-1.264.923 0 .431.329.719 1.036.898l.964.234c1.258.317 1.713.773 1.713 1.689 0 1.084-1.024 1.851-2.479 1.851-1.366 0-2.318-.743-2.426-1.845h1.042c.114.647.605.994 1.449.994.845 0 1.366-.359 1.366-.922 0-.443-.257-.683-.958-.869l-1.096-.281c-1.096-.282-1.636-.845-1.636-1.695Z"/><g opacity=".1"><g filter="url(#a)"><path fill="url(#b)" d="M466.972 182.877h-36.408l-41.825 81.028c-2.6 8.219 3.973 11.179 7.585 11.631h33.59c1.734 0 3.034-1.292 3.468-1.939l40.741-78.702c2.774-9.149-3.612-11.824-7.151-12.018Z"/></g><g filter="url(#c)"><path fill="url(#d)" d="M395.96 182.877h36.407l41.825 81.028c2.601 8.219-3.973 11.179-7.585 11.631h-33.59c-1.733 0-3.034-1.292-3.467-1.939l-40.742-78.702c-2.773-9.149 3.612-11.824 7.152-12.018Z"/></g><path fill="url(#e)" fill-opacity=".5" d="m406.693 229.384 25.619-46.517 23.9 46.517-25.619 45.955-23.9-45.955Z"/></g><defs><linearGradient id="b" x1="431.474" x2="431.474" y1="182.877" y2="275.536" gradientUnits="userSpaceOnUse"><stop stop-color="#0029FF"/><stop offset="1" stop-color="#40D1FF"/></linearGradient><linearGradient id="d" x1="431.457" x2="431.457" y1="182.877" y2="275.536" gradientUnits="userSpaceOnUse"><stop stop-color="#0094FF"/><stop offset=".656" stop-color="#22EBBB"/><stop offset="1" stop-color="#00E469"/></linearGradient><filter id="a" width="88.94" height="94.942" x="387.005" y="182.877" color-interpolation-filters="sRGB" filterUnits="userSpaceOnUse"><feFlood flood-opacity="0" result="BackgroundImageFix"/><feColorMatrix in="SourceAlpha" result="hardAlpha" values="0 0 0 0 0 0 0 0 0 0 0 0 0 0 0 0 0 0 127 0"/><feOffset dy="1.142"/><feGaussianBlur stdDeviation=".571"/><feComposite in2="hardAlpha" operator="out"/><feColorMatrix values="0 0 0 0 0 0 0 0 0 0 0 0 0 0 0 0 0 0 0.1 0"/><feBlend in2="BackgroundImageFix" result="effect1_dropShadow_946_20750"/><feBlend in="SourceGraphic" in2="effect1_dropShadow_946_20750" result="shape"/></filter><filter id="c" width="118.625" height="124.627" x="372.145" y="168.034" color-interpolation-filters="sRGB" filterUnits="userSpaceOnUse"><feFlood flood-opacity="0" result="BackgroundImageFix"/><feColorMatrix in="SourceAlpha" result="hardAlpha" values="0 0 0 0 0 0 0 0 0 0 0 0 0 0 0 0 0 0 127 0"/><feOffset dy="1.142"/><feGaussianBlur stdDeviation="7.992"/><feComposite in2="hardAlpha" operator="out"/><feColorMatrix values="0 0 0 0 0 0 0 0 0 0 0 0 0 0 0 0 0 0 0.1 0"/><feBlend in2="BackgroundImageFix" result="effect1_dropShadow_946_20750"/><feBlend in="SourceGraphic" in2="effect1_dropShadow_946_20750" result="shape"/></filter><radialGradient id="e" cx="0" cy="0" r="1" gradientTransform="matrix(0 46.2357 -24.7591 0 431.452 229.103)" gradientUnits="userSpaceOnUse"><stop stop-color="#FFFA88"/><stop offset="1" stop-color="#31F396" stop-opacity="0"/></radialGradient></defs></svg>